<svg width="358" height="310" viewBox="0 0 358 310" fill="none" xmlns="http://www.w3.org/2000/svg">
<g filter="url(#filter0_d_1_425)">
<rect x="40" y="8" width="278" height="230" rx="20" fill="#746BFF" fill-opacity="0.01"/>
<rect x="40.5" y="8.5" width="277" height="229" rx="19.5" stroke="#746BFF" stroke-opacity="0.4"/>
<rect x="56" y="24" width="246" height="112" rx="12" fill="#746BFF" fill-opacity="0.05" stroke="#746BFF" stroke-dasharray="4 4"/>
<path d="M151.714 84.724L151.448 83.688C151.999 83.5387 152.661 83.3473 153.436 83.114C154.22 82.8713 155.018 82.624 155.83 82.372L155.984 83.338C155.247 83.5807 154.5 83.8233 153.744 84.066C152.997 84.3087 152.321 84.528 151.714 84.724ZM155.956 80.006H151.56V79.026H155.956V80.006ZM153.352 87.818V76.254H154.388V87.832C154.388 88.1213 154.351 88.3453 154.276 88.504C154.201 88.672 154.075 88.798 153.898 88.882C153.721 88.9753 153.492 89.0313 153.212 89.05C152.932 89.078 152.563 89.092 152.106 89.092C152.097 88.952 152.059 88.784 151.994 88.588C151.938 88.4013 151.873 88.2287 151.798 88.07C152.097 88.0793 152.367 88.084 152.61 88.084C152.862 88.0933 153.03 88.0933 153.114 88.084C153.198 88.084 153.259 88.0653 153.296 88.028C153.333 87.9907 153.352 87.9207 153.352 87.818ZM163.866 82.484H157.37V81.546H163.866V82.484ZM163.852 85.27H157.384V84.332H163.852V85.27ZM164.356 88.154H157.412V87.174H164.356V88.154ZM158.028 76.324L159.022 76.576C158.779 77.3227 158.49 78.06 158.154 78.788C157.827 79.5067 157.473 80.1833 157.09 80.818C156.707 81.4433 156.306 81.9987 155.886 82.484C155.839 82.4187 155.765 82.3393 155.662 82.246C155.569 82.1527 155.471 82.0593 155.368 81.966C155.265 81.8633 155.177 81.784 155.102 81.728C155.513 81.2893 155.9 80.7853 156.264 80.216C156.628 79.6373 156.959 79.0167 157.258 78.354C157.566 77.6913 157.823 77.0147 158.028 76.324ZM157.034 79.572L157.832 78.746H158.056H164.076V79.712H158.056V89.12H157.034V79.572ZM161.402 87.692H160.408V79.264H161.402V87.692ZM159.974 76.702L160.884 76.352C161.099 76.6693 161.304 77.0193 161.5 77.402C161.696 77.7753 161.841 78.1067 161.934 78.396L160.982 78.802C160.889 78.5127 160.744 78.172 160.548 77.78C160.361 77.388 160.17 77.0287 159.974 76.702ZM178.104 81.056H165.854V80.104H178.104V81.056ZM176.564 83.086H170.81V82.218H176.564V83.086ZM178.3 85.956H169.76V85.046H178.3V85.956ZM170.32 78.788L171.328 79.054C170.749 80.454 170.007 81.728 169.102 82.876C168.206 84.0147 167.207 84.9573 166.106 85.704C166.069 85.6387 166.003 85.5547 165.91 85.452C165.826 85.34 165.737 85.2327 165.644 85.13C165.551 85.018 165.467 84.934 165.392 84.878C166.465 84.1967 167.427 83.3287 168.276 82.274C169.135 81.2193 169.816 80.0573 170.32 78.788ZM173.61 87.972V84.108H174.618V88C174.618 88.2613 174.581 88.462 174.506 88.602C174.441 88.7513 174.305 88.868 174.1 88.952C173.895 89.0173 173.619 89.0547 173.274 89.064C172.929 89.0827 172.499 89.092 171.986 89.092C171.967 88.9613 171.921 88.812 171.846 88.644C171.781 88.476 171.715 88.3267 171.65 88.196C172.042 88.2053 172.397 88.21 172.714 88.21C173.031 88.21 173.241 88.21 173.344 88.21C173.447 88.2007 173.517 88.1773 173.554 88.14C173.591 88.112 173.61 88.056 173.61 87.972ZM176.2 82.4V82.218H176.438L176.648 82.162L177.292 82.666C176.872 83.058 176.377 83.436 175.808 83.8C175.239 84.1547 174.683 84.4533 174.142 84.696C174.086 84.6027 174.002 84.5 173.89 84.388C173.778 84.2667 173.685 84.1733 173.61 84.108C173.927 83.968 174.249 83.8047 174.576 83.618C174.903 83.422 175.211 83.2167 175.5 83.002C175.789 82.7873 176.023 82.5867 176.2 82.4ZM169.97 79.432H168.948V76.254H169.97V79.432ZM175.038 79.418H174.016V76.24H175.038V79.418ZM178.244 78.27H165.742V77.318H178.244V78.27ZM168.794 89.12H167.786V83.198L168.514 82.47L168.794 82.554V89.12ZM185.328 81.924L186.112 81.35C186.467 81.658 186.84 81.994 187.232 82.358C187.624 82.7127 188.007 83.0767 188.38 83.45C188.753 83.814 189.103 84.1687 189.43 84.514C189.757 84.85 190.032 85.1533 190.256 85.424L189.374 86.11C189.169 85.8393 188.907 85.5313 188.59 85.186C188.282 84.8313 187.941 84.4627 187.568 84.08C187.204 83.6973 186.826 83.324 186.434 82.96C186.051 82.5867 185.683 82.2413 185.328 81.924ZM185.468 78.984V76.24H186.56V78.984C186.56 79.432 186.532 79.9033 186.476 80.398C186.429 80.8927 186.331 81.4013 186.182 81.924C186.033 82.4373 185.809 82.9507 185.51 83.464C185.221 83.968 184.833 84.458 184.348 84.934C183.863 85.41 183.261 85.8627 182.542 86.292C182.495 86.2173 182.425 86.1333 182.332 86.04C182.248 85.9373 182.159 85.8347 182.066 85.732C181.973 85.6293 181.879 85.55 181.786 85.494C182.486 85.1207 183.065 84.7193 183.522 84.29C183.979 83.8513 184.339 83.4033 184.6 82.946C184.861 82.4793 185.053 82.0173 185.174 81.56C185.305 81.1027 185.384 80.6547 185.412 80.216C185.449 79.7773 185.468 79.3667 185.468 78.984ZM181.436 89.148H180.386V78.634H191.082V79.67H181.436V89.148ZM190.606 87.72V78.634H191.642V87.734C191.642 88.0793 191.595 88.3407 191.502 88.518C191.409 88.7047 191.245 88.8447 191.012 88.938C190.76 89.022 190.415 89.0687 189.976 89.078C189.547 89.0967 189.019 89.106 188.394 89.106C188.375 89.0033 188.347 88.8867 188.31 88.756C188.273 88.6347 188.231 88.5087 188.184 88.378C188.137 88.2473 188.086 88.1353 188.03 88.042C188.366 88.0513 188.683 88.056 188.982 88.056C189.29 88.0653 189.556 88.0653 189.78 88.056C190.013 88.056 190.172 88.056 190.256 88.056C190.396 88.0467 190.489 88.0187 190.536 87.972C190.583 87.9253 190.606 87.8413 190.606 87.72ZM197.634 79.152L198.628 79.474C198.32 79.8847 197.965 80.2813 197.564 80.664C197.163 81.0467 196.738 81.406 196.29 81.742C195.851 82.0687 195.417 82.3533 194.988 82.596C194.941 82.5307 194.871 82.4467 194.778 82.344C194.685 82.2413 194.591 82.1387 194.498 82.036C194.405 81.9333 194.321 81.8493 194.246 81.784C194.881 81.476 195.501 81.0887 196.108 80.622C196.724 80.146 197.233 79.656 197.634 79.152ZM201.204 79.768L201.918 79.166C202.347 79.418 202.795 79.7027 203.262 80.02C203.729 80.3373 204.167 80.6593 204.578 80.986C204.998 81.3127 205.339 81.6067 205.6 81.868L204.844 82.568C204.592 82.2973 204.265 81.9987 203.864 81.672C203.463 81.336 203.029 81 202.562 80.664C202.095 80.328 201.643 80.0293 201.204 79.768ZM197.102 89.134H196.08V84.43H203.948V89.078H202.87V85.368H197.102V89.134ZM203.388 88.658H196.626V87.706H203.388V88.658ZM195.198 80.09H194.162V77.528H205.852V80.09H204.774V78.494H195.198V80.09ZM199.062 76.394L200.14 76.142C200.308 76.394 200.471 76.6787 200.63 76.996C200.789 77.3133 200.901 77.5887 200.966 77.822L199.832 78.088C199.767 77.864 199.659 77.5933 199.51 77.276C199.37 76.9493 199.221 76.6553 199.062 76.394ZM199.93 80.384L200.84 80.79C200.355 81.546 199.762 82.2507 199.062 82.904C198.371 83.5573 197.611 84.15 196.78 84.682C195.959 85.2047 195.1 85.648 194.204 86.012C194.129 85.8907 194.027 85.7507 193.896 85.592C193.765 85.424 193.639 85.284 193.518 85.172C194.386 84.8453 195.221 84.444 196.024 83.968C196.836 83.4827 197.578 82.9367 198.25 82.33C198.922 81.714 199.482 81.0653 199.93 80.384ZM199.482 81.266L200.336 80.86C201.157 81.8493 202.081 82.6613 203.108 83.296C204.135 83.9307 205.245 84.486 206.44 84.962C206.319 85.0647 206.193 85.2 206.062 85.368C205.931 85.5267 205.829 85.6853 205.754 85.844C204.942 85.4707 204.172 85.074 203.444 84.654C202.716 84.2247 202.021 83.7347 201.358 83.184C200.705 82.6333 200.079 81.994 199.482 81.266Z" fill="#746BFF"/>
<rect x="56" y="148" width="117" height="42" rx="8" fill="#746BFF" fill-opacity="0.05" stroke="#746BFF" stroke-dasharray="4 4"/>
<rect x="185" y="148" width="117" height="42" rx="8" fill="#746BFF" fill-opacity="0.05" stroke="#746BFF" stroke-dasharray="4 4"/>
<path d="M112.96 171.704H107.36V170.78H112.96V171.704ZM112.932 169.114H107.416V168.274H112.932V169.114ZM112.946 166.72H107.43V165.81H112.946V166.72ZM110.468 174.616H109.516V166.3H110.468V174.616ZM112.47 173.846V165.81H113.478V173.86C113.478 174.121 113.445 174.327 113.38 174.476C113.315 174.635 113.193 174.756 113.016 174.84C112.839 174.915 112.601 174.961 112.302 174.98C112.003 174.999 111.635 175.008 111.196 175.008C111.187 174.868 111.154 174.709 111.098 174.532C111.051 174.355 110.995 174.196 110.93 174.056C111.229 174.065 111.504 174.07 111.756 174.07C112.008 174.079 112.171 174.079 112.246 174.07C112.395 174.07 112.47 173.995 112.47 173.846ZM106.702 169.548V165.81H107.682V169.548C107.682 169.987 107.663 170.453 107.626 170.948C107.589 171.433 107.509 171.928 107.388 172.432C107.276 172.927 107.108 173.407 106.884 173.874C106.66 174.331 106.366 174.751 106.002 175.134C105.946 175.078 105.867 175.008 105.764 174.924C105.671 174.849 105.573 174.779 105.47 174.714C105.367 174.649 105.274 174.597 105.19 174.56C105.647 174.084 105.979 173.561 106.184 172.992C106.399 172.413 106.539 171.825 106.604 171.228C106.669 170.631 106.702 170.071 106.702 169.548ZM108.228 162.198L109.152 162.436C108.797 163.407 108.345 164.331 107.794 165.208C107.253 166.076 106.655 166.809 106.002 167.406C105.965 167.341 105.909 167.257 105.834 167.154C105.759 167.051 105.68 166.949 105.596 166.846C105.512 166.743 105.437 166.664 105.372 166.608C105.979 166.076 106.529 165.423 107.024 164.648C107.519 163.873 107.92 163.057 108.228 162.198ZM111.462 164.298H107.794L108.242 163.402H111.462V164.298ZM111.196 163.598V163.402H111.42L111.588 163.36L112.274 163.822C112.115 164.111 111.929 164.415 111.714 164.732C111.499 165.04 111.28 165.339 111.056 165.628C110.832 165.917 110.613 166.174 110.398 166.398C110.305 166.314 110.188 166.23 110.048 166.146C109.917 166.053 109.801 165.978 109.698 165.922C109.885 165.717 110.071 165.479 110.258 165.208C110.445 164.937 110.622 164.662 110.79 164.382C110.958 164.093 111.093 163.831 111.196 163.598ZM106.002 163.948H101.284V162.982H106.002V163.948ZM104.658 168.246H102.614V167.294H105.554V173.356H102.614V172.418H104.658V168.246ZM103.034 163.458L104.014 163.668C103.855 164.545 103.659 165.404 103.426 166.244C103.193 167.084 102.917 167.873 102.6 168.61C102.283 169.338 101.909 169.982 101.48 170.542C101.452 170.449 101.41 170.332 101.354 170.192C101.307 170.052 101.247 169.907 101.172 169.758C101.107 169.609 101.046 169.492 100.99 169.408C101.513 168.689 101.937 167.807 102.264 166.762C102.6 165.717 102.857 164.615 103.034 163.458ZM103.104 174.476H102.194V167.294H103.104V174.476ZM125.63 167.574H117.454V166.552H125.63V167.574ZM126.204 170.85H121.486V169.856H126.204V170.85ZM122.032 174.126L120.94 173.972V167.028H122.032V174.126ZM117.636 168.708L118.714 168.82C118.518 170.229 118.191 171.466 117.734 172.53C117.277 173.594 116.656 174.471 115.872 175.162C115.816 175.097 115.737 175.017 115.634 174.924C115.531 174.84 115.424 174.751 115.312 174.658C115.2 174.574 115.097 174.509 115.004 174.462C115.788 173.855 116.385 173.062 116.796 172.082C117.207 171.102 117.487 169.977 117.636 168.708ZM117.454 170.822L118.308 170.5C118.551 171.209 118.868 171.788 119.26 172.236C119.652 172.675 120.105 173.011 120.618 173.244C121.131 173.477 121.696 173.636 122.312 173.72C122.937 173.804 123.605 173.846 124.314 173.846C124.426 173.846 124.599 173.846 124.832 173.846C125.065 173.846 125.327 173.846 125.616 173.846C125.915 173.846 126.218 173.846 126.526 173.846C126.834 173.837 127.114 173.832 127.366 173.832C127.618 173.832 127.809 173.832 127.94 173.832C127.893 173.916 127.842 174.019 127.786 174.14C127.73 174.271 127.679 174.401 127.632 174.532C127.595 174.672 127.567 174.793 127.548 174.896H126.848H124.272C123.432 174.896 122.662 174.84 121.962 174.728C121.262 174.625 120.627 174.429 120.058 174.14C119.489 173.851 118.985 173.44 118.546 172.908C118.117 172.367 117.753 171.671 117.454 170.822ZM116.698 166.874H115.648V163.822H127.352V166.874H126.274V164.83H116.698V166.874ZM120.464 162.436L121.5 162.142C121.659 162.413 121.817 162.711 121.976 163.038C122.144 163.355 122.261 163.631 122.326 163.864L121.234 164.214C121.178 163.981 121.075 163.696 120.926 163.36C120.777 163.024 120.623 162.716 120.464 162.436Z" fill="#746BFF"/>
<path d="M241.834 164.816H236.584V163.808H241.834V164.816ZM241.498 164.06V163.808H241.68L241.862 163.78L242.506 163.948C242.282 165.824 241.904 167.481 241.372 168.918C240.849 170.355 240.205 171.587 239.44 172.614C238.684 173.631 237.835 174.467 236.892 175.12C236.817 174.999 236.71 174.859 236.57 174.7C236.439 174.541 236.318 174.415 236.206 174.322C237.074 173.771 237.867 173.011 238.586 172.04C239.314 171.069 239.93 169.912 240.434 168.568C240.938 167.215 241.293 165.712 241.498 164.06ZM237.256 164.676L238.18 164.536C238.395 165.992 238.703 167.35 239.104 168.61C239.505 169.861 240.028 170.967 240.672 171.928C241.316 172.88 242.105 173.636 243.038 174.196C242.963 174.252 242.879 174.327 242.786 174.42C242.693 174.523 242.604 174.625 242.52 174.728C242.436 174.831 242.366 174.929 242.31 175.022C241.33 174.387 240.509 173.566 239.846 172.558C239.193 171.541 238.656 170.369 238.236 169.044C237.825 167.709 237.499 166.253 237.256 164.676ZM236.528 163.85H230.172V162.898H236.528V163.85ZM235.156 166.734H231.656V165.796H235.156V166.734ZM235.198 169.674H231.656V168.75H235.198V169.674ZM232.118 172.404L231.11 172.53V163.416H232.118V172.404ZM230.27 173.202L230.032 172.18C230.583 172.096 231.222 172.003 231.95 171.9C232.678 171.788 233.448 171.667 234.26 171.536C235.081 171.405 235.893 171.275 236.696 171.144L236.752 172.04C235.987 172.18 235.217 172.325 234.442 172.474C233.667 172.614 232.925 172.745 232.216 172.866C231.507 172.987 230.858 173.099 230.27 173.202ZM235.506 175.092H234.47V163.402H235.506V175.092ZM255.484 169.632H249.492V168.722H255.484V169.632ZM255.484 172.068H249.45V171.158H255.484V172.068ZM255.582 162.618L256.59 163.024C256.347 163.491 256.081 163.967 255.792 164.452C255.512 164.928 255.246 165.334 254.994 165.67L254.098 165.292C254.266 165.049 254.439 164.779 254.616 164.48C254.803 164.172 254.98 163.855 255.148 163.528C255.325 163.201 255.47 162.898 255.582 162.618ZM248.414 163.108L249.31 162.702C249.506 162.963 249.702 163.248 249.898 163.556C250.094 163.864 250.267 164.167 250.416 164.466C250.575 164.765 250.696 165.035 250.78 165.278L249.828 165.74C249.763 165.507 249.655 165.236 249.506 164.928C249.357 164.62 249.189 164.307 249.002 163.99C248.815 163.673 248.619 163.379 248.414 163.108ZM249.842 175.12H248.806V166.23H255.526V167.224H249.842V175.12ZM255.008 173.79V166.23H256.03V173.804C256.03 174.084 255.993 174.308 255.918 174.476C255.853 174.644 255.713 174.775 255.498 174.868C255.283 174.952 254.994 175.003 254.63 175.022C254.275 175.041 253.832 175.05 253.3 175.05C253.281 174.91 253.239 174.742 253.174 174.546C253.109 174.35 253.039 174.177 252.964 174.028C253.365 174.047 253.729 174.056 254.056 174.056C254.392 174.065 254.611 174.065 254.714 174.056C254.91 174.047 255.008 173.958 255.008 173.79ZM253.006 166.846H251.956V162.226H253.006V166.846ZM244.69 163.108L245.32 162.394C245.609 162.525 245.908 162.688 246.216 162.884C246.524 163.071 246.813 163.262 247.084 163.458C247.364 163.654 247.588 163.836 247.756 164.004L247.112 164.83C246.944 164.653 246.725 164.461 246.454 164.256C246.193 164.051 245.903 163.845 245.586 163.64C245.278 163.435 244.979 163.257 244.69 163.108ZM244.032 166.86L244.634 166.118C244.933 166.249 245.241 166.407 245.558 166.594C245.875 166.781 246.174 166.972 246.454 167.168C246.743 167.364 246.972 167.541 247.14 167.7L246.524 168.54C246.347 168.372 246.118 168.185 245.838 167.98C245.558 167.775 245.259 167.574 244.942 167.378C244.634 167.182 244.331 167.009 244.032 166.86ZM245.376 174.98L244.466 174.294C244.699 173.93 244.951 173.496 245.222 172.992C245.502 172.488 245.782 171.956 246.062 171.396C246.351 170.836 246.613 170.29 246.846 169.758L247.644 170.388C247.42 170.883 247.182 171.401 246.93 171.942C246.678 172.483 246.417 173.015 246.146 173.538C245.885 174.051 245.628 174.532 245.376 174.98Z" fill="#746BFF"/>
<path d="M166.172 210.684H155.828V209.76H166.172V210.684ZM161.708 213.264L162.392 212.688C162.744 212.92 163.112 213.172 163.496 213.444C163.888 213.708 164.272 213.984 164.648 214.272C165.024 214.56 165.372 214.84 165.692 215.112C166.02 215.384 166.296 215.636 166.52 215.868L165.788 216.564C165.572 216.332 165.304 216.076 164.984 215.796C164.672 215.516 164.332 215.228 163.964 214.932C163.596 214.628 163.216 214.336 162.824 214.056C162.44 213.768 162.068 213.504 161.708 213.264ZM161.492 210.084L162.464 210.444C162.016 211.268 161.472 212.072 160.832 212.856C160.192 213.632 159.476 214.352 158.684 215.016C157.9 215.68 157.052 216.252 156.14 216.732C156.1 216.652 156.04 216.564 155.96 216.468C155.888 216.372 155.812 216.276 155.732 216.18C155.66 216.084 155.592 216.004 155.528 215.94C156.184 215.612 156.808 215.232 157.4 214.8C158 214.36 158.556 213.884 159.068 213.372C159.58 212.852 160.04 212.316 160.448 211.764C160.864 211.204 161.212 210.644 161.492 210.084ZM161.48 219.936H160.508V212.484L161.48 211.512V211.524V219.936ZM178.544 217.056H167.48V216.216H178.544V217.056ZM178.1 210.492H167.924V209.652H178.1V210.492ZM176.54 214.728H169.496V213.936H176.54V214.728ZM176.192 218.844V211.668H177.092V218.856C177.092 219.128 177.052 219.336 176.972 219.48C176.9 219.632 176.764 219.744 176.564 219.816C176.372 219.888 176.104 219.932 175.76 219.948C175.416 219.964 174.984 219.972 174.464 219.972C174.44 219.852 174.396 219.704 174.332 219.528C174.268 219.36 174.2 219.22 174.128 219.108C174.4 219.116 174.656 219.12 174.896 219.12C175.136 219.12 175.344 219.12 175.52 219.12C175.704 219.12 175.832 219.12 175.904 219.12C176.016 219.112 176.092 219.088 176.132 219.048C176.172 219.016 176.192 218.948 176.192 218.844ZM169.784 219.984H168.896V211.668H176.564V212.496H169.784V219.984ZM173.408 216.528H172.496V209.916H173.408V216.528ZM188.744 212.544V211.596H184.736V212.544H188.744ZM188.744 210.948V210H184.736V210.948H188.744ZM189.608 213.24H183.908V209.316H189.608V213.24ZM190.268 214.86H183.368V214.104H190.268V214.86ZM187.16 219.384L186.308 219.036V214.476H187.16V219.384ZM184.148 216.9L184.712 216.684C184.92 217.348 185.196 217.844 185.54 218.172C185.892 218.492 186.3 218.708 186.764 218.82C187.236 218.924 187.752 218.976 188.312 218.976C188.384 218.976 188.524 218.976 188.732 218.976C188.94 218.976 189.172 218.976 189.428 218.976C189.684 218.976 189.924 218.976 190.148 218.976C190.372 218.976 190.54 218.972 190.652 218.964C190.612 219.028 190.572 219.108 190.532 219.204C190.492 219.3 190.46 219.4 190.436 219.504C190.412 219.608 190.392 219.7 190.376 219.78H189.884H188.276C187.772 219.78 187.308 219.74 186.884 219.66C186.46 219.588 186.076 219.452 185.732 219.252C185.388 219.052 185.084 218.764 184.82 218.388C184.556 218.004 184.332 217.508 184.148 216.9ZM189.68 217.02H186.896V216.276H189.68V217.02ZM184.148 215.436L184.976 215.532C184.856 216.516 184.636 217.38 184.316 218.124C183.996 218.86 183.564 219.472 183.02 219.96C182.98 219.904 182.916 219.84 182.828 219.768C182.74 219.704 182.652 219.636 182.564 219.564C182.484 219.5 182.412 219.452 182.348 219.42C182.884 218.996 183.292 218.448 183.572 217.776C183.86 217.096 184.052 216.316 184.148 215.436ZM179.576 216.18L179.348 215.292C179.812 215.172 180.372 215.012 181.028 214.812C181.684 214.604 182.348 214.396 183.02 214.188L183.14 215.004C182.524 215.212 181.904 215.42 181.28 215.628C180.656 215.828 180.088 216.012 179.576 216.18ZM183.14 212.184H179.48V211.332H183.14V212.184ZM180.968 218.832V208.932H181.808V218.832C181.808 219.08 181.776 219.268 181.712 219.396C181.656 219.532 181.552 219.636 181.4 219.708C181.256 219.78 181.064 219.828 180.824 219.852C180.584 219.876 180.272 219.884 179.888 219.876C179.88 219.772 179.848 219.636 179.792 219.468C179.744 219.308 179.692 219.168 179.636 219.048C179.892 219.056 180.124 219.06 180.332 219.06C180.548 219.06 180.692 219.056 180.764 219.048C180.836 219.048 180.888 219.032 180.92 219C180.952 218.968 180.968 218.912 180.968 218.832ZM194.444 212.268H194.996V214.596C194.996 214.676 195 214.728 195.008 214.752C195.024 214.768 195.072 214.776 195.152 214.776C195.176 214.776 195.22 214.776 195.284 214.776C195.348 214.776 195.412 214.776 195.476 214.776C195.54 214.776 195.588 214.776 195.62 214.776C195.692 214.776 195.736 214.772 195.752 214.764C195.776 214.756 195.792 214.748 195.8 214.74C195.856 214.788 195.932 214.832 196.028 214.872C196.124 214.904 196.216 214.932 196.304 214.956C196.272 215.092 196.208 215.192 196.112 215.256C196.016 215.312 195.884 215.34 195.716 215.34C195.684 215.34 195.624 215.34 195.536 215.34C195.448 215.34 195.36 215.34 195.272 215.34C195.192 215.34 195.136 215.34 195.104 215.34C194.848 215.34 194.672 215.292 194.576 215.196C194.488 215.1 194.444 214.9 194.444 214.596V212.268ZM193.232 212.268H193.784V213.396C193.784 213.636 193.76 213.896 193.712 214.176C193.664 214.448 193.572 214.72 193.436 214.992C193.3 215.256 193.1 215.496 192.836 215.712C192.796 215.656 192.728 215.588 192.632 215.508C192.536 215.428 192.46 215.372 192.404 215.34C192.636 215.14 192.812 214.932 192.932 214.716C193.052 214.492 193.132 214.268 193.172 214.044C193.212 213.812 193.232 213.592 193.232 213.384V212.268ZM194.456 212.328V209.7H195.128V212.328H194.456ZM193.112 212.328V209.7H193.772V212.328H193.112ZM191.588 210.204V209.436H196.628V210.204H191.588ZM192.116 219.072V218.34H196.124V219.072H192.116ZM192.116 217.14V216.42H196.124V217.14H192.116ZM191.78 219.9V211.716H196.52V219.732H195.776V212.484H192.5V219.9H191.78ZM197.408 215.604L197.78 214.872H202.208V215.604H197.408ZM197.708 213.756L198.44 213.9C198.296 214.428 198.1 214.94 197.852 215.436C197.612 215.932 197.352 216.348 197.072 216.684C197.008 216.628 196.908 216.556 196.772 216.468C196.644 216.38 196.532 216.316 196.436 216.276C196.732 215.956 196.984 215.576 197.192 215.136C197.408 214.688 197.58 214.228 197.708 213.756ZM201.14 211.812H198.032V212.832H201.14V211.812ZM201.14 210.132H198.032V211.14H201.14V210.132ZM197.24 213.564V209.4H201.968V213.564H197.24ZM199.244 219.276V213.804H200.06V219.276H199.244ZM197.336 217.524V216.792H201.968V217.524H197.336ZM196.808 219.66V218.904H202.568V219.66H196.808Z" fill="#746BFF"/>
</g>
<defs>
<filter id="filter0_d_1_425" x="0" y="0" width="358" height="310" filterUnits="userSpaceOnUse" color-interpolation-filters="sRGB">
<feFlood flood-opacity="0" result="BackgroundImageFix"/>
<feColorMatrix in="SourceAlpha" type="matrix" values="0 0 0 0 0 0 0 0 0 0 0 0 0 0 0 0 0 0 127 0" result="hardAlpha"/>
<feOffset dy="32"/>
<feGaussianBlur stdDeviation="20"/>
<feComposite in2="hardAlpha" operator="out"/>
<feColorMatrix type="matrix" values="0 0 0 0 0.203042 0 0 0 0 0.196161 0 0 0 0 0.369911 0 0 0 0.05 0"/>
<feBlend mode="normal" in2="BackgroundImageFix" result="effect1_dropShadow_1_425"/>
<feBlend mode="normal" in="SourceGraphic" in2="effect1_dropShadow_1_425" result="shape"/>
</filter>
</defs>
</svg>
