<svg width="358" height="310" viewBox="0 0 358 310" fill="none" xmlns="http://www.w3.org/2000/svg">
<g filter="url(#filter0_d_1_444)">
<rect x="40" y="8" width="278" height="230" rx="20" fill="#746BFF" fill-opacity="0.01"/>
<rect x="40.5" y="8.5" width="277" height="229" rx="19.5" stroke="#746BFF" stroke-opacity="0.4"/>
<rect x="56" y="24" width="246" height="144" rx="12" fill="#746BFF" fill-opacity="0.05" stroke="#746BFF" stroke-dasharray="4 4"/>
<path d="M151.714 100.724L151.448 99.688C151.999 99.5387 152.661 99.3473 153.436 99.114C154.22 98.8713 155.018 98.624 155.83 98.372L155.984 99.338C155.247 99.5807 154.5 99.8233 153.744 100.066C152.997 100.309 152.321 100.528 151.714 100.724ZM155.956 96.006H151.56V95.026H155.956V96.006ZM153.352 103.818V92.254H154.388V103.832C154.388 104.121 154.351 104.345 154.276 104.504C154.201 104.672 154.075 104.798 153.898 104.882C153.721 104.975 153.492 105.031 153.212 105.05C152.932 105.078 152.563 105.092 152.106 105.092C152.097 104.952 152.059 104.784 151.994 104.588C151.938 104.401 151.873 104.229 151.798 104.07C152.097 104.079 152.367 104.084 152.61 104.084C152.862 104.093 153.03 104.093 153.114 104.084C153.198 104.084 153.259 104.065 153.296 104.028C153.333 103.991 153.352 103.921 153.352 103.818ZM163.866 98.484H157.37V97.546H163.866V98.484ZM163.852 101.27H157.384V100.332H163.852V101.27ZM164.356 104.154H157.412V103.174H164.356V104.154ZM158.028 92.324L159.022 92.576C158.779 93.3227 158.49 94.06 158.154 94.788C157.827 95.5067 157.473 96.1833 157.09 96.818C156.707 97.4433 156.306 97.9987 155.886 98.484C155.839 98.4187 155.765 98.3393 155.662 98.246C155.569 98.1527 155.471 98.0593 155.368 97.966C155.265 97.8633 155.177 97.784 155.102 97.728C155.513 97.2893 155.9 96.7853 156.264 96.216C156.628 95.6373 156.959 95.0167 157.258 94.354C157.566 93.6913 157.823 93.0147 158.028 92.324ZM157.034 95.572L157.832 94.746H158.056H164.076V95.712H158.056V105.12H157.034V95.572ZM161.402 103.692H160.408V95.264H161.402V103.692ZM159.974 92.702L160.884 92.352C161.099 92.6693 161.304 93.0193 161.5 93.402C161.696 93.7753 161.841 94.1067 161.934 94.396L160.982 94.802C160.889 94.5127 160.744 94.172 160.548 93.78C160.361 93.388 160.17 93.0287 159.974 92.702ZM178.104 97.056H165.854V96.104H178.104V97.056ZM176.564 99.086H170.81V98.218H176.564V99.086ZM178.3 101.956H169.76V101.046H178.3V101.956ZM170.32 94.788L171.328 95.054C170.749 96.454 170.007 97.728 169.102 98.876C168.206 100.015 167.207 100.957 166.106 101.704C166.069 101.639 166.003 101.555 165.91 101.452C165.826 101.34 165.737 101.233 165.644 101.13C165.551 101.018 165.467 100.934 165.392 100.878C166.465 100.197 167.427 99.3287 168.276 98.274C169.135 97.2193 169.816 96.0573 170.32 94.788ZM173.61 103.972V100.108H174.618V104C174.618 104.261 174.581 104.462 174.506 104.602C174.441 104.751 174.305 104.868 174.1 104.952C173.895 105.017 173.619 105.055 173.274 105.064C172.929 105.083 172.499 105.092 171.986 105.092C171.967 104.961 171.921 104.812 171.846 104.644C171.781 104.476 171.715 104.327 171.65 104.196C172.042 104.205 172.397 104.21 172.714 104.21C173.031 104.21 173.241 104.21 173.344 104.21C173.447 104.201 173.517 104.177 173.554 104.14C173.591 104.112 173.61 104.056 173.61 103.972ZM176.2 98.4V98.218H176.438L176.648 98.162L177.292 98.666C176.872 99.058 176.377 99.436 175.808 99.8C175.239 100.155 174.683 100.453 174.142 100.696C174.086 100.603 174.002 100.5 173.89 100.388C173.778 100.267 173.685 100.173 173.61 100.108C173.927 99.968 174.249 99.8047 174.576 99.618C174.903 99.422 175.211 99.2167 175.5 99.002C175.789 98.7873 176.023 98.5867 176.2 98.4ZM169.97 95.432H168.948V92.254H169.97V95.432ZM175.038 95.418H174.016V92.24H175.038V95.418ZM178.244 94.27H165.742V93.318H178.244V94.27ZM168.794 105.12H167.786V99.198L168.514 98.47L168.794 98.554V105.12ZM185.328 97.924L186.112 97.35C186.467 97.658 186.84 97.994 187.232 98.358C187.624 98.7127 188.007 99.0767 188.38 99.45C188.753 99.814 189.103 100.169 189.43 100.514C189.757 100.85 190.032 101.153 190.256 101.424L189.374 102.11C189.169 101.839 188.907 101.531 188.59 101.186C188.282 100.831 187.941 100.463 187.568 100.08C187.204 99.6973 186.826 99.324 186.434 98.96C186.051 98.5867 185.683 98.2413 185.328 97.924ZM185.468 94.984V92.24H186.56V94.984C186.56 95.432 186.532 95.9033 186.476 96.398C186.429 96.8927 186.331 97.4013 186.182 97.924C186.033 98.4373 185.809 98.9507 185.51 99.464C185.221 99.968 184.833 100.458 184.348 100.934C183.863 101.41 183.261 101.863 182.542 102.292C182.495 102.217 182.425 102.133 182.332 102.04C182.248 101.937 182.159 101.835 182.066 101.732C181.973 101.629 181.879 101.55 181.786 101.494C182.486 101.121 183.065 100.719 183.522 100.29C183.979 99.8513 184.339 99.4033 184.6 98.946C184.861 98.4793 185.053 98.0173 185.174 97.56C185.305 97.1027 185.384 96.6547 185.412 96.216C185.449 95.7773 185.468 95.3667 185.468 94.984ZM181.436 105.148H180.386V94.634H191.082V95.67H181.436V105.148ZM190.606 103.72V94.634H191.642V103.734C191.642 104.079 191.595 104.341 191.502 104.518C191.409 104.705 191.245 104.845 191.012 104.938C190.76 105.022 190.415 105.069 189.976 105.078C189.547 105.097 189.019 105.106 188.394 105.106C188.375 105.003 188.347 104.887 188.31 104.756C188.273 104.635 188.231 104.509 188.184 104.378C188.137 104.247 188.086 104.135 188.03 104.042C188.366 104.051 188.683 104.056 188.982 104.056C189.29 104.065 189.556 104.065 189.78 104.056C190.013 104.056 190.172 104.056 190.256 104.056C190.396 104.047 190.489 104.019 190.536 103.972C190.583 103.925 190.606 103.841 190.606 103.72ZM197.634 95.152L198.628 95.474C198.32 95.8847 197.965 96.2813 197.564 96.664C197.163 97.0467 196.738 97.406 196.29 97.742C195.851 98.0687 195.417 98.3533 194.988 98.596C194.941 98.5307 194.871 98.4467 194.778 98.344C194.685 98.2413 194.591 98.1387 194.498 98.036C194.405 97.9333 194.321 97.8493 194.246 97.784C194.881 97.476 195.501 97.0887 196.108 96.622C196.724 96.146 197.233 95.656 197.634 95.152ZM201.204 95.768L201.918 95.166C202.347 95.418 202.795 95.7027 203.262 96.02C203.729 96.3373 204.167 96.6593 204.578 96.986C204.998 97.3127 205.339 97.6067 205.6 97.868L204.844 98.568C204.592 98.2973 204.265 97.9987 203.864 97.672C203.463 97.336 203.029 97 202.562 96.664C202.095 96.328 201.643 96.0293 201.204 95.768ZM197.102 105.134H196.08V100.43H203.948V105.078H202.87V101.368H197.102V105.134ZM203.388 104.658H196.626V103.706H203.388V104.658ZM195.198 96.09H194.162V93.528H205.852V96.09H204.774V94.494H195.198V96.09ZM199.062 92.394L200.14 92.142C200.308 92.394 200.471 92.6787 200.63 92.996C200.789 93.3133 200.901 93.5887 200.966 93.822L199.832 94.088C199.767 93.864 199.659 93.5933 199.51 93.276C199.37 92.9493 199.221 92.6553 199.062 92.394ZM199.93 96.384L200.84 96.79C200.355 97.546 199.762 98.2507 199.062 98.904C198.371 99.5573 197.611 100.15 196.78 100.682C195.959 101.205 195.1 101.648 194.204 102.012C194.129 101.891 194.027 101.751 193.896 101.592C193.765 101.424 193.639 101.284 193.518 101.172C194.386 100.845 195.221 100.444 196.024 99.968C196.836 99.4827 197.578 98.9367 198.25 98.33C198.922 97.714 199.482 97.0653 199.93 96.384ZM199.482 97.266L200.336 96.86C201.157 97.8493 202.081 98.6613 203.108 99.296C204.135 99.9307 205.245 100.486 206.44 100.962C206.319 101.065 206.193 101.2 206.062 101.368C205.931 101.527 205.829 101.685 205.754 101.844C204.942 101.471 204.172 101.074 203.444 100.654C202.716 100.225 202.021 99.7347 201.358 99.184C200.705 98.6333 200.079 97.994 199.482 97.266Z" fill="#746BFF"/>
<rect x="56" y="180" width="117" height="42" rx="8" fill="#746BFF" fill-opacity="0.05" stroke="#746BFF" stroke-dasharray="4 4"/>
<rect x="185" y="180" width="117" height="42" rx="8" fill="#746BFF" fill-opacity="0.05" stroke="#746BFF" stroke-dasharray="4 4"/>
<path d="M112.96 203.704H107.36V202.78H112.96V203.704ZM112.932 201.114H107.416V200.274H112.932V201.114ZM112.946 198.72H107.43V197.81H112.946V198.72ZM110.468 206.616H109.516V198.3H110.468V206.616ZM112.47 205.846V197.81H113.478V205.86C113.478 206.121 113.445 206.327 113.38 206.476C113.315 206.635 113.193 206.756 113.016 206.84C112.839 206.915 112.601 206.961 112.302 206.98C112.003 206.999 111.635 207.008 111.196 207.008C111.187 206.868 111.154 206.709 111.098 206.532C111.051 206.355 110.995 206.196 110.93 206.056C111.229 206.065 111.504 206.07 111.756 206.07C112.008 206.079 112.171 206.079 112.246 206.07C112.395 206.07 112.47 205.995 112.47 205.846ZM106.702 201.548V197.81H107.682V201.548C107.682 201.987 107.663 202.453 107.626 202.948C107.589 203.433 107.509 203.928 107.388 204.432C107.276 204.927 107.108 205.407 106.884 205.874C106.66 206.331 106.366 206.751 106.002 207.134C105.946 207.078 105.867 207.008 105.764 206.924C105.671 206.849 105.573 206.779 105.47 206.714C105.367 206.649 105.274 206.597 105.19 206.56C105.647 206.084 105.979 205.561 106.184 204.992C106.399 204.413 106.539 203.825 106.604 203.228C106.669 202.631 106.702 202.071 106.702 201.548ZM108.228 194.198L109.152 194.436C108.797 195.407 108.345 196.331 107.794 197.208C107.253 198.076 106.655 198.809 106.002 199.406C105.965 199.341 105.909 199.257 105.834 199.154C105.759 199.051 105.68 198.949 105.596 198.846C105.512 198.743 105.437 198.664 105.372 198.608C105.979 198.076 106.529 197.423 107.024 196.648C107.519 195.873 107.92 195.057 108.228 194.198ZM111.462 196.298H107.794L108.242 195.402H111.462V196.298ZM111.196 195.598V195.402H111.42L111.588 195.36L112.274 195.822C112.115 196.111 111.929 196.415 111.714 196.732C111.499 197.04 111.28 197.339 111.056 197.628C110.832 197.917 110.613 198.174 110.398 198.398C110.305 198.314 110.188 198.23 110.048 198.146C109.917 198.053 109.801 197.978 109.698 197.922C109.885 197.717 110.071 197.479 110.258 197.208C110.445 196.937 110.622 196.662 110.79 196.382C110.958 196.093 111.093 195.831 111.196 195.598ZM106.002 195.948H101.284V194.982H106.002V195.948ZM104.658 200.246H102.614V199.294H105.554V205.356H102.614V204.418H104.658V200.246ZM103.034 195.458L104.014 195.668C103.855 196.545 103.659 197.404 103.426 198.244C103.193 199.084 102.917 199.873 102.6 200.61C102.283 201.338 101.909 201.982 101.48 202.542C101.452 202.449 101.41 202.332 101.354 202.192C101.307 202.052 101.247 201.907 101.172 201.758C101.107 201.609 101.046 201.492 100.99 201.408C101.513 200.689 101.937 199.807 102.264 198.762C102.6 197.717 102.857 196.615 103.034 195.458ZM103.104 206.476H102.194V199.294H103.104V206.476ZM125.63 199.574H117.454V198.552H125.63V199.574ZM126.204 202.85H121.486V201.856H126.204V202.85ZM122.032 206.126L120.94 205.972V199.028H122.032V206.126ZM117.636 200.708L118.714 200.82C118.518 202.229 118.191 203.466 117.734 204.53C117.277 205.594 116.656 206.471 115.872 207.162C115.816 207.097 115.737 207.017 115.634 206.924C115.531 206.84 115.424 206.751 115.312 206.658C115.2 206.574 115.097 206.509 115.004 206.462C115.788 205.855 116.385 205.062 116.796 204.082C117.207 203.102 117.487 201.977 117.636 200.708ZM117.454 202.822L118.308 202.5C118.551 203.209 118.868 203.788 119.26 204.236C119.652 204.675 120.105 205.011 120.618 205.244C121.131 205.477 121.696 205.636 122.312 205.72C122.937 205.804 123.605 205.846 124.314 205.846C124.426 205.846 124.599 205.846 124.832 205.846C125.065 205.846 125.327 205.846 125.616 205.846C125.915 205.846 126.218 205.846 126.526 205.846C126.834 205.837 127.114 205.832 127.366 205.832C127.618 205.832 127.809 205.832 127.94 205.832C127.893 205.916 127.842 206.019 127.786 206.14C127.73 206.271 127.679 206.401 127.632 206.532C127.595 206.672 127.567 206.793 127.548 206.896H126.848H124.272C123.432 206.896 122.662 206.84 121.962 206.728C121.262 206.625 120.627 206.429 120.058 206.14C119.489 205.851 118.985 205.44 118.546 204.908C118.117 204.367 117.753 203.671 117.454 202.822ZM116.698 198.874H115.648V195.822H127.352V198.874H126.274V196.83H116.698V198.874ZM120.464 194.436L121.5 194.142C121.659 194.413 121.817 194.711 121.976 195.038C122.144 195.355 122.261 195.631 122.326 195.864L121.234 196.214C121.178 195.981 121.075 195.696 120.926 195.36C120.777 195.024 120.623 194.716 120.464 194.436Z" fill="#746BFF"/>
<path d="M241.834 196.816H236.584V195.808H241.834V196.816ZM241.498 196.06V195.808H241.68L241.862 195.78L242.506 195.948C242.282 197.824 241.904 199.481 241.372 200.918C240.849 202.355 240.205 203.587 239.44 204.614C238.684 205.631 237.835 206.467 236.892 207.12C236.817 206.999 236.71 206.859 236.57 206.7C236.439 206.541 236.318 206.415 236.206 206.322C237.074 205.771 237.867 205.011 238.586 204.04C239.314 203.069 239.93 201.912 240.434 200.568C240.938 199.215 241.293 197.712 241.498 196.06ZM237.256 196.676L238.18 196.536C238.395 197.992 238.703 199.35 239.104 200.61C239.505 201.861 240.028 202.967 240.672 203.928C241.316 204.88 242.105 205.636 243.038 206.196C242.963 206.252 242.879 206.327 242.786 206.42C242.693 206.523 242.604 206.625 242.52 206.728C242.436 206.831 242.366 206.929 242.31 207.022C241.33 206.387 240.509 205.566 239.846 204.558C239.193 203.541 238.656 202.369 238.236 201.044C237.825 199.709 237.499 198.253 237.256 196.676ZM236.528 195.85H230.172V194.898H236.528V195.85ZM235.156 198.734H231.656V197.796H235.156V198.734ZM235.198 201.674H231.656V200.75H235.198V201.674ZM232.118 204.404L231.11 204.53V195.416H232.118V204.404ZM230.27 205.202L230.032 204.18C230.583 204.096 231.222 204.003 231.95 203.9C232.678 203.788 233.448 203.667 234.26 203.536C235.081 203.405 235.893 203.275 236.696 203.144L236.752 204.04C235.987 204.18 235.217 204.325 234.442 204.474C233.667 204.614 232.925 204.745 232.216 204.866C231.507 204.987 230.858 205.099 230.27 205.202ZM235.506 207.092H234.47V195.402H235.506V207.092ZM255.484 201.632H249.492V200.722H255.484V201.632ZM255.484 204.068H249.45V203.158H255.484V204.068ZM255.582 194.618L256.59 195.024C256.347 195.491 256.081 195.967 255.792 196.452C255.512 196.928 255.246 197.334 254.994 197.67L254.098 197.292C254.266 197.049 254.439 196.779 254.616 196.48C254.803 196.172 254.98 195.855 255.148 195.528C255.325 195.201 255.47 194.898 255.582 194.618ZM248.414 195.108L249.31 194.702C249.506 194.963 249.702 195.248 249.898 195.556C250.094 195.864 250.267 196.167 250.416 196.466C250.575 196.765 250.696 197.035 250.78 197.278L249.828 197.74C249.763 197.507 249.655 197.236 249.506 196.928C249.357 196.62 249.189 196.307 249.002 195.99C248.815 195.673 248.619 195.379 248.414 195.108ZM249.842 207.12H248.806V198.23H255.526V199.224H249.842V207.12ZM255.008 205.79V198.23H256.03V205.804C256.03 206.084 255.993 206.308 255.918 206.476C255.853 206.644 255.713 206.775 255.498 206.868C255.283 206.952 254.994 207.003 254.63 207.022C254.275 207.041 253.832 207.05 253.3 207.05C253.281 206.91 253.239 206.742 253.174 206.546C253.109 206.35 253.039 206.177 252.964 206.028C253.365 206.047 253.729 206.056 254.056 206.056C254.392 206.065 254.611 206.065 254.714 206.056C254.91 206.047 255.008 205.958 255.008 205.79ZM253.006 198.846H251.956V194.226H253.006V198.846ZM244.69 195.108L245.32 194.394C245.609 194.525 245.908 194.688 246.216 194.884C246.524 195.071 246.813 195.262 247.084 195.458C247.364 195.654 247.588 195.836 247.756 196.004L247.112 196.83C246.944 196.653 246.725 196.461 246.454 196.256C246.193 196.051 245.903 195.845 245.586 195.64C245.278 195.435 244.979 195.257 244.69 195.108ZM244.032 198.86L244.634 198.118C244.933 198.249 245.241 198.407 245.558 198.594C245.875 198.781 246.174 198.972 246.454 199.168C246.743 199.364 246.972 199.541 247.14 199.7L246.524 200.54C246.347 200.372 246.118 200.185 245.838 199.98C245.558 199.775 245.259 199.574 244.942 199.378C244.634 199.182 244.331 199.009 244.032 198.86ZM245.376 206.98L244.466 206.294C244.699 205.93 244.951 205.496 245.222 204.992C245.502 204.488 245.782 203.956 246.062 203.396C246.351 202.836 246.613 202.29 246.846 201.758L247.644 202.388C247.42 202.883 247.182 203.401 246.93 203.942C246.678 204.483 246.417 205.015 246.146 205.538C245.885 206.051 245.628 206.532 245.376 206.98Z" fill="#746BFF"/>
</g>
<defs>
<filter id="filter0_d_1_444" x="0" y="0" width="358" height="310" filterUnits="userSpaceOnUse" color-interpolation-filters="sRGB">
<feFlood flood-opacity="0" result="BackgroundImageFix"/>
<feColorMatrix in="SourceAlpha" type="matrix" values="0 0 0 0 0 0 0 0 0 0 0 0 0 0 0 0 0 0 127 0" result="hardAlpha"/>
<feOffset dy="32"/>
<feGaussianBlur stdDeviation="20"/>
<feComposite in2="hardAlpha" operator="out"/>
<feColorMatrix type="matrix" values="0 0 0 0 0.203922 0 0 0 0 0.196078 0 0 0 0 0.368627 0 0 0 0.05 0"/>
<feBlend mode="normal" in2="BackgroundImageFix" result="effect1_dropShadow_1_444"/>
<feBlend mode="normal" in="SourceGraphic" in2="effect1_dropShadow_1_444" result="shape"/>
</filter>
</defs>
</svg>
