<svg width="342" height="148" viewBox="0 0 342 148" fill="none" xmlns="http://www.w3.org/2000/svg">
<g filter="url(#filter0_d_1_461)">
<path d="M32 28C32 16.9543 40.9543 8 52 8H290C301.046 8 310 16.9543 310 28V72C310 83.0457 301.046 92 290 92H36C33.7909 92 32 90.2091 32 88V28Z" fill="#746BFF" fill-opacity="0.01"/>
<path d="M52 8.5H290C300.77 8.5 309.5 17.2304 309.5 28V72C309.5 82.7695 300.77 91.5 290 91.5H36C34.067 91.5 32.5 89.933 32.5 88V28C32.5 17.2304 41.2304 8.5 52 8.5Z" stroke="url(#paint0_linear_1_461)" stroke-opacity="0.4"/>
<path d="M59.984 30.448L60.32 31.056C60.032 31.1947 59.7813 31.376 59.568 31.6C59.3547 31.824 59.1893 32.0587 59.072 32.304C58.9547 32.5493 58.896 32.7893 58.896 33.024C58.9387 32.992 58.9973 32.9653 59.072 32.944C59.1573 32.912 59.248 32.896 59.344 32.896C59.6427 32.896 59.8827 32.9973 60.064 33.2C60.2453 33.392 60.336 33.632 60.336 33.92C60.336 34.176 60.2453 34.416 60.064 34.64C59.8827 34.8533 59.6107 34.96 59.248 34.96C58.9067 34.96 58.608 34.8213 58.352 34.544C58.1067 34.256 57.984 33.888 57.984 33.44C57.984 32.9707 58.08 32.5387 58.272 32.144C58.464 31.7493 58.7147 31.408 59.024 31.12C59.3333 30.8213 59.6533 30.5973 59.984 30.448ZM63.056 30.448L63.392 31.056C63.104 31.1947 62.8533 31.376 62.64 31.6C62.4267 31.824 62.2613 32.0587 62.144 32.304C62.0267 32.5493 61.968 32.7893 61.968 33.024C62.0107 32.992 62.0693 32.9653 62.144 32.944C62.2293 32.912 62.3147 32.896 62.4 32.896C62.7093 32.896 62.9547 32.9973 63.136 33.2C63.3173 33.392 63.408 33.632 63.408 33.92C63.408 34.176 63.3173 34.416 63.136 34.64C62.9547 34.8533 62.6827 34.96 62.32 34.96C61.968 34.96 61.6693 34.8213 61.424 34.544C61.1787 34.256 61.056 33.888 61.056 33.44C61.056 32.9707 61.152 32.5387 61.344 32.144C61.536 31.7493 61.7813 31.408 62.08 31.12C62.3893 30.8213 62.7147 30.5973 63.056 30.448ZM76.528 39.648H66.576V38.432H76.528V39.648ZM70.24 35.472L71.056 34.736C71.408 34.9813 71.776 35.2587 72.16 35.568C72.5547 35.8667 72.928 36.1707 73.28 36.48C73.6427 36.7787 73.936 37.0453 74.16 37.28L73.28 38.144C73.0773 37.8987 72.8053 37.6213 72.464 37.312C72.1227 37.0027 71.7547 36.688 71.36 36.368C70.9653 36.0373 70.592 35.7387 70.24 35.472ZM71.472 31.632L72.496 31.104C72.8907 31.6053 73.36 32.1067 73.904 32.608C74.448 33.0987 75.0293 33.5733 75.648 34.032C76.2773 34.4907 76.9173 34.9173 77.568 35.312C78.2187 35.696 78.8427 36.016 79.44 36.272C79.3333 36.3573 79.2213 36.4693 79.104 36.608C78.9867 36.736 78.8747 36.8693 78.768 37.008C78.6613 37.136 78.5707 37.2587 78.496 37.376C77.9093 37.0667 77.2907 36.6987 76.64 36.272C76 35.8453 75.3653 35.3813 74.736 34.88C74.1067 34.368 73.5093 33.84 72.944 33.296C72.3893 32.7413 71.8987 32.1867 71.472 31.632ZM71.904 30.448L73.072 30.992C72.4853 31.8773 71.7867 32.72 70.976 33.52C70.1653 34.32 69.2907 35.056 68.352 35.728C67.424 36.3893 66.4693 36.9707 65.488 37.472C65.3813 37.3013 65.2427 37.12 65.072 36.928C64.9013 36.7253 64.7307 36.5493 64.56 36.4C65.52 35.9627 66.4587 35.4347 67.376 34.816C68.304 34.1973 69.1573 33.5147 69.936 32.768C70.7253 32.0213 71.3813 31.248 71.904 30.448ZM76.368 38.576V38.432H76.592L76.816 38.368L77.744 38.816C77.4133 39.264 77.04 39.76 76.624 40.304C76.208 40.8373 75.7707 41.392 75.312 41.968C74.8533 42.544 74.3947 43.12 73.936 43.696C73.4773 44.272 73.0347 44.816 72.608 45.328L71.376 44.768C71.8133 44.256 72.2667 43.7173 72.736 43.152C73.2053 42.5867 73.664 42.0267 74.112 41.472C74.5707 40.9067 74.992 40.3733 75.376 39.872C75.7707 39.3707 76.1013 38.9387 76.368 38.576ZM84.048 45.104H82.816V31.648H93.312V45.024H92.032V32.864H84.048V45.104ZM92.576 38.368H83.648V37.184H92.576V38.368ZM92.592 44.064H83.616V42.848H92.592V44.064ZM111.024 33.776H97.008V32.64H111.024V33.776ZM108.432 39.376H100.928V38.352H108.432V39.376ZM101.264 45.264H100.08V35.616H108.24V36.704H101.264V45.264ZM107.968 43.76V35.616H109.152V43.776C109.152 44.128 109.104 44.4 109.008 44.592C108.912 44.7947 108.731 44.9493 108.464 45.056C108.197 45.1413 107.835 45.1947 107.376 45.216C106.928 45.2373 106.363 45.248 105.68 45.248C105.648 45.0773 105.595 44.88 105.52 44.656C105.445 44.432 105.365 44.2347 105.28 44.064C105.632 44.0747 105.963 44.0853 106.272 44.096C106.592 44.1067 106.869 44.1067 107.104 44.096C107.339 44.096 107.504 44.096 107.6 44.096C107.749 44.096 107.845 44.0693 107.888 44.016C107.941 43.9627 107.968 43.8773 107.968 43.76ZM102.256 30.56L103.472 30.848C103.109 32.0107 102.651 33.1627 102.096 34.304C101.541 35.4453 100.875 36.512 100.096 37.504C99.3173 38.4853 98.4213 39.3387 97.408 40.064C97.3547 39.968 97.28 39.8667 97.184 39.76C97.088 39.6427 96.992 39.5307 96.896 39.424C96.8 39.3067 96.7147 39.2107 96.64 39.136C97.3547 38.6453 98.0053 38.0747 98.592 37.424C99.1893 36.7733 99.7227 36.0693 100.192 35.312C100.661 34.5547 101.067 33.776 101.408 32.976C101.749 32.1653 102.032 31.36 102.256 30.56ZM108.432 42.096H100.928V41.056H108.432V42.096ZM118.368 33.6H112.752V32.448H118.368V33.6ZM117.024 45.2H115.952V34.896H117.024V45.2ZM112.88 42.496L112.64 41.328C113.141 41.2533 113.717 41.168 114.368 41.072C115.019 40.976 115.707 40.8693 116.432 40.752C117.168 40.6347 117.904 40.5173 118.64 40.4L118.688 41.472C117.664 41.6533 116.64 41.84 115.616 42.032C114.603 42.2133 113.691 42.368 112.88 42.496ZM113.408 38.496C113.333 38.5707 113.296 38.64 113.296 38.704C113.275 38.6187 113.243 38.512 113.2 38.384C113.157 38.2453 113.109 38.112 113.056 37.984C113.013 37.8453 112.971 37.728 112.928 37.632C113.067 37.6 113.195 37.4667 113.312 37.232C113.429 36.9867 113.552 36.688 113.68 36.336C113.744 36.1653 113.84 35.8827 113.968 35.488C114.096 35.0933 114.229 34.6293 114.368 34.096C114.517 33.552 114.661 32.976 114.8 32.368C114.939 31.76 115.051 31.1573 115.136 30.56L116.304 30.8C116.144 31.6533 115.947 32.512 115.712 33.376C115.477 34.24 115.221 35.072 114.944 35.872C114.667 36.6613 114.384 37.376 114.096 38.016V38.048C114.096 38.048 114.053 38.0693 113.968 38.112C113.893 38.1547 113.803 38.2133 113.696 38.288C113.589 38.352 113.493 38.4213 113.408 38.496ZM113.296 38.704V37.696L113.952 37.376H118.416V38.464H114.448C114.181 38.464 113.936 38.4853 113.712 38.528C113.499 38.5707 113.36 38.6293 113.296 38.704ZM127.072 33.952H119.136V32.848H127.072V33.952ZM120.464 37.648L121.52 37.36C121.851 38.384 122.293 39.3493 122.848 40.256C123.413 41.1627 124.075 41.9573 124.832 42.64C125.6 43.312 126.453 43.8347 127.392 44.208C127.296 44.2933 127.195 44.3893 127.088 44.496C126.992 44.6133 126.896 44.736 126.8 44.864C126.715 44.992 126.64 45.104 126.576 45.2C125.616 44.7627 124.747 44.1707 123.968 43.424C123.189 42.6773 122.507 41.8133 121.92 40.832C121.333 39.8507 120.848 38.7893 120.464 37.648ZM124.528 37.328L125.632 37.6C125.152 39.36 124.4 40.8853 123.376 42.176C122.352 43.456 121.035 44.496 119.424 45.296C119.381 45.2213 119.312 45.1307 119.216 45.024C119.131 44.9173 119.035 44.8107 118.928 44.704C118.832 44.5973 118.741 44.512 118.656 44.448C120.203 43.712 121.467 42.7467 122.448 41.552C123.429 40.3467 124.123 38.9387 124.528 37.328ZM121.84 30.928L122.864 30.48C123.077 30.768 123.291 31.0987 123.504 31.472C123.728 31.8347 123.893 32.144 124 32.4L122.928 32.928C122.821 32.6613 122.661 32.3413 122.448 31.968C122.245 31.584 122.043 31.2373 121.84 30.928ZM124.208 34.864L125.088 34.352C125.376 34.704 125.669 35.088 125.968 35.504C126.277 35.92 126.56 36.3307 126.816 36.736C127.083 37.1307 127.291 37.4827 127.44 37.792L126.496 38.4C126.347 38.0907 126.144 37.7333 125.888 37.328C125.643 36.912 125.371 36.4907 125.072 36.064C124.784 35.6267 124.496 35.2267 124.208 34.864ZM121.168 34.368L122.24 34.72C122.016 35.168 121.765 35.6267 121.488 36.096C121.211 36.5547 120.923 36.992 120.624 37.408C120.336 37.824 120.043 38.1973 119.744 38.528C119.691 38.4533 119.616 38.3627 119.52 38.256C119.435 38.1387 119.339 38.0267 119.232 37.92C119.125 37.8027 119.035 37.7067 118.96 37.632C119.365 37.216 119.765 36.7147 120.16 36.128C120.565 35.5413 120.901 34.9547 121.168 34.368ZM134.272 44.896L134.096 43.712C134.779 43.68 135.568 43.6373 136.464 43.584C137.36 43.5307 138.309 43.472 139.312 43.408C140.325 43.3333 141.339 43.2587 142.352 43.184L142.336 44.272C141.376 44.3467 140.411 44.4213 139.44 44.496C138.469 44.5707 137.541 44.64 136.656 44.704C135.771 44.7787 134.976 44.8427 134.272 44.896ZM140.448 41.856L141.424 41.44C141.701 41.792 141.973 42.1813 142.24 42.608C142.507 43.0347 142.747 43.4507 142.96 43.856C143.173 44.2613 143.333 44.624 143.44 44.944L142.4 45.408C142.293 45.088 142.139 44.72 141.936 44.304C141.733 43.8987 141.499 43.4827 141.232 43.056C140.976 42.6187 140.715 42.2187 140.448 41.856ZM141.392 40.144V37.856H135.904V40.144H141.392ZM142.496 41.152H134.832V36.848H142.496V41.152ZM140.912 34.4V32.432H136.272V34.4H140.912ZM142.064 35.424H135.168V31.408H142.064V35.424ZM139.184 43.904L138.032 43.936V35.152H139.184V43.904ZM133.024 39.744H129.456V38.64H133.024V39.744ZM132.64 38.848V38.64H133.824C133.824 38.64 133.819 38.672 133.808 38.736C133.808 38.8 133.803 38.8747 133.792 38.96C133.792 39.0453 133.787 39.1147 133.776 39.168C133.712 40.384 133.637 41.3707 133.552 42.128C133.467 42.8747 133.371 43.4507 133.264 43.856C133.157 44.2507 133.029 44.528 132.88 44.688C132.741 44.848 132.587 44.96 132.416 45.024C132.256 45.0987 132.064 45.1467 131.84 45.168C131.637 45.1893 131.371 45.1947 131.04 45.184C130.709 45.184 130.357 45.1733 129.984 45.152C129.973 44.9813 129.936 44.7893 129.872 44.576C129.819 44.3733 129.739 44.192 129.632 44.032C130.005 44.064 130.347 44.0853 130.656 44.096C130.976 44.1067 131.205 44.112 131.344 44.112C131.472 44.112 131.579 44.1013 131.664 44.08C131.749 44.0587 131.824 44.0107 131.888 43.936C131.995 43.8293 132.091 43.5947 132.176 43.232C132.272 42.8693 132.357 42.336 132.432 41.632C132.507 40.9173 132.576 39.9893 132.64 38.848ZM129.344 34.976H130.448C130.405 35.4987 130.347 36.0533 130.272 36.64C130.208 37.216 130.139 37.776 130.064 38.32C130 38.864 129.936 39.3387 129.872 39.744H128.752C128.827 39.328 128.901 38.848 128.976 38.304C129.061 37.7493 129.136 37.184 129.2 36.608C129.264 36.0213 129.312 35.4773 129.344 34.976ZM133.888 36.08H129.632V34.976H132.768V32.512H128.928V31.408H133.888V36.08ZM154.048 42.528L155.04 41.952C155.477 42.1867 155.936 42.4427 156.416 42.72C156.907 42.9973 157.371 43.2747 157.808 43.552C158.256 43.8293 158.629 44.0747 158.928 44.288L157.936 44.96C157.648 44.7253 157.28 44.464 156.832 44.176C156.395 43.888 155.931 43.6 155.44 43.312C154.949 43.0133 154.485 42.752 154.048 42.528ZM148.512 42.096L149.6 42.512C149.259 42.8213 148.869 43.136 148.432 43.456C148.005 43.7653 147.557 44.0533 147.088 44.32C146.629 44.5973 146.187 44.8373 145.76 45.04C145.696 44.976 145.611 44.896 145.504 44.8C145.397 44.704 145.285 44.6027 145.168 44.496C145.051 44.4 144.944 44.3253 144.848 44.272C145.509 43.9947 146.171 43.664 146.832 43.28C147.504 42.896 148.064 42.5013 148.512 42.096ZM154.512 39.2L155.488 38.736C155.915 39.0347 156.352 39.3707 156.8 39.744C157.259 40.1173 157.685 40.496 158.08 40.88C158.475 41.2533 158.795 41.5947 159.04 41.904L158 42.416C157.765 42.1173 157.456 41.7813 157.072 41.408C156.688 41.024 156.272 40.64 155.824 40.256C155.376 39.872 154.939 39.52 154.512 39.2ZM152.064 33.296H148.832V32.304H152.064V33.296ZM152.72 34.784V30.56H153.92V34.784C153.92 35.008 153.968 35.152 154.064 35.216C154.171 35.28 154.416 35.312 154.8 35.312C154.885 35.312 155.045 35.312 155.28 35.312C155.515 35.312 155.771 35.312 156.048 35.312C156.336 35.312 156.608 35.312 156.864 35.312C157.12 35.312 157.301 35.312 157.408 35.312C157.611 35.312 157.76 35.28 157.856 35.216C157.963 35.152 158.037 35.0133 158.08 34.8C158.133 34.5867 158.165 34.2667 158.176 33.84C158.315 33.936 158.485 34.0213 158.688 34.096C158.891 34.1707 159.077 34.224 159.248 34.256C159.205 34.8107 159.125 35.2427 159.008 35.552C158.891 35.8507 158.715 36.0587 158.48 36.176C158.256 36.2933 157.941 36.352 157.536 36.352C157.461 36.352 157.328 36.352 157.136 36.352C156.944 36.352 156.72 36.352 156.464 36.352C156.219 36.352 155.973 36.352 155.728 36.352C155.483 36.352 155.264 36.352 155.072 36.352C154.891 36.352 154.763 36.352 154.688 36.352C154.176 36.352 153.776 36.3093 153.488 36.224C153.2 36.1387 152.997 35.984 152.88 35.76C152.773 35.5253 152.72 35.2 152.72 34.784ZM144.784 36.88L144.656 35.776C145.264 35.7013 145.968 35.616 146.768 35.52C147.579 35.4133 148.437 35.3013 149.344 35.184C150.261 35.056 151.179 34.928 152.096 34.8L152.128 35.792C151.253 35.92 150.373 36.048 149.488 36.176C148.603 36.304 147.755 36.432 146.944 36.56C146.144 36.6773 145.424 36.784 144.784 36.88ZM157.776 31.536L158.704 32.4C158.245 32.6027 157.723 32.8 157.136 32.992C156.549 33.184 155.947 33.36 155.328 33.52C154.72 33.68 154.123 33.8293 153.536 33.968C153.515 33.8507 153.461 33.7067 153.376 33.536C153.301 33.3547 153.232 33.2 153.168 33.072C153.723 32.944 154.288 32.7947 154.864 32.624C155.44 32.4533 155.979 32.2773 156.48 32.096C156.992 31.904 157.424 31.7173 157.776 31.536ZM149.568 35.824L148.4 35.92V30.56H149.568V35.824ZM146.848 36.144L145.76 36.24V31.728H146.848V36.144ZM146.368 41.888C146.283 41.9413 146.24 41.9947 146.24 42.048C146.229 41.9733 146.203 41.8667 146.16 41.728C146.117 41.5893 146.075 41.4507 146.032 41.312C145.989 41.1627 145.947 41.04 145.904 40.944C146.171 40.912 146.475 40.8427 146.816 40.736C147.168 40.6293 147.573 40.48 148.032 40.288C148.288 40.192 148.667 40.0373 149.168 39.824C149.669 39.6107 150.235 39.3493 150.864 39.04C151.504 38.72 152.165 38.368 152.848 37.984C153.541 37.6 154.208 37.1947 154.848 36.768L155.664 37.6C154.256 38.4533 152.827 39.2107 151.376 39.872C149.936 40.5227 148.507 41.0827 147.088 41.552V41.6C147.088 41.6 147.045 41.616 146.96 41.648C146.875 41.6693 146.773 41.7013 146.656 41.744C146.549 41.7867 146.453 41.8347 146.368 41.888ZM146.24 42.048L146.208 41.232L146.992 40.832L157.024 40.192C157.045 40.3413 157.077 40.5067 157.12 40.688C157.163 40.8693 157.205 41.0133 157.248 41.12C155.659 41.2267 154.293 41.3227 153.152 41.408C152.021 41.4827 151.067 41.5467 150.288 41.6C149.509 41.6533 148.875 41.7013 148.384 41.744C147.893 41.7867 147.509 41.8293 147.232 41.872C146.955 41.904 146.741 41.936 146.592 41.968C146.453 41.9893 146.336 42.016 146.24 42.048ZM147.104 39.296C147.029 39.3493 146.992 39.408 146.992 39.472C146.981 39.3973 146.955 39.296 146.912 39.168C146.88 39.04 146.843 38.9067 146.8 38.768C146.757 38.6293 146.715 38.512 146.672 38.416C146.853 38.4053 147.04 38.368 147.232 38.304C147.435 38.2293 147.664 38.1387 147.92 38.032C148.101 37.9467 148.389 37.808 148.784 37.616C149.189 37.4133 149.637 37.168 150.128 36.88C150.619 36.592 151.083 36.2827 151.52 35.952L152.4 36.624C151.653 37.1147 150.885 37.5573 150.096 37.952C149.307 38.3467 148.523 38.6773 147.744 38.944V38.976C147.744 38.976 147.707 38.992 147.632 39.024C147.557 39.056 147.467 39.0987 147.36 39.152C147.264 39.1947 147.179 39.2427 147.104 39.296ZM146.992 39.472L146.976 38.704L147.6 38.368L153.136 37.952C153.093 38.0907 153.051 38.2453 153.008 38.416C152.976 38.5867 152.949 38.7253 152.928 38.832C151.925 38.9067 151.088 38.976 150.416 39.04C149.755 39.0933 149.211 39.1413 148.784 39.184C148.368 39.2267 148.043 39.264 147.808 39.296C147.573 39.328 147.397 39.36 147.28 39.392C147.163 39.4133 147.067 39.44 146.992 39.472ZM151.552 43.984V40.832H152.752V44.016C152.752 44.3253 152.709 44.56 152.624 44.72C152.549 44.8907 152.379 45.0187 152.112 45.104C151.867 45.1893 151.547 45.2373 151.152 45.248C150.757 45.2693 150.267 45.28 149.68 45.28C149.648 45.12 149.589 44.9387 149.504 44.736C149.419 44.544 149.333 44.3733 149.248 44.224C149.568 44.2347 149.861 44.24 150.128 44.24C150.395 44.2507 150.629 44.2507 150.832 44.24C151.035 44.24 151.173 44.24 151.248 44.24C151.365 44.2293 151.445 44.208 151.488 44.176C151.531 44.144 151.552 44.08 151.552 43.984ZM167.488 34.16H163.552V33.008H167.488V34.16ZM171.024 45.264H169.776V30.56H171.024V45.264ZM162.608 37.632L163.328 36.832C163.669 37.0347 164.027 37.2747 164.4 37.552C164.784 37.8187 165.141 38.0907 165.472 38.368C165.813 38.6453 166.091 38.8907 166.304 39.104L165.552 40.016C165.349 39.792 165.077 39.5413 164.736 39.264C164.405 38.976 164.053 38.688 163.68 38.4C163.307 38.112 162.949 37.856 162.608 37.632ZM163.696 30.544L164.896 30.768C164.672 31.7813 164.4 32.7573 164.08 33.696C163.76 34.6347 163.397 35.5093 162.992 36.32C162.587 37.12 162.139 37.824 161.648 38.432C161.573 38.3573 161.472 38.272 161.344 38.176C161.227 38.08 161.099 37.984 160.96 37.888C160.832 37.792 160.72 37.7173 160.624 37.664C161.115 37.1093 161.557 36.4587 161.952 35.712C162.347 34.9547 162.688 34.1387 162.976 33.264C163.264 32.3893 163.504 31.4827 163.696 30.544ZM167.104 33.296V33.008H167.328L167.568 32.96L168.416 33.216C168.128 35.328 167.664 37.1627 167.024 38.72C166.395 40.2667 165.621 41.568 164.704 42.624C163.797 43.68 162.768 44.5227 161.616 45.152C161.552 45.056 161.456 44.9387 161.328 44.8C161.211 44.672 161.088 44.5493 160.96 44.432C160.832 44.3147 160.715 44.224 160.608 44.16C161.749 43.584 162.763 42.816 163.648 41.856C164.533 40.8853 165.269 39.696 165.856 38.288C166.443 36.88 166.859 35.216 167.104 33.296ZM170.544 36.128L171.472 35.408C171.92 35.76 172.4 36.1547 172.912 36.592C173.424 37.0293 173.904 37.4613 174.352 37.888C174.8 38.3147 175.168 38.6933 175.456 39.024L174.464 39.872C174.187 39.5307 173.829 39.1413 173.392 38.704C172.955 38.256 172.485 37.808 171.984 37.36C171.493 36.912 171.013 36.5013 170.544 36.128ZM177.376 40.896C177.291 40.96 177.248 41.024 177.248 41.088C177.237 41.0027 177.205 40.896 177.152 40.768C177.109 40.6293 177.061 40.4907 177.008 40.352C176.965 40.2027 176.917 40.08 176.864 39.984C177.045 39.952 177.232 39.84 177.424 39.648C177.616 39.456 177.835 39.2107 178.08 38.912C178.208 38.7733 178.4 38.5387 178.656 38.208C178.923 37.8773 179.211 37.4827 179.52 37.024C179.84 36.5653 180.165 36.0693 180.496 35.536C180.827 35.0027 181.131 34.464 181.408 33.92L182.416 34.528C181.787 35.616 181.093 36.6827 180.336 37.728C179.589 38.7627 178.837 39.6693 178.08 40.448V40.48C178.08 40.48 178.037 40.5013 177.952 40.544C177.867 40.576 177.771 40.624 177.664 40.688C177.557 40.752 177.461 40.8213 177.376 40.896ZM177.248 41.088L177.2 40.112L177.792 39.696L182.144 38.912C182.123 39.072 182.112 39.2533 182.112 39.456C182.123 39.648 182.133 39.8027 182.144 39.92C181.141 40.1227 180.331 40.2933 179.712 40.432C179.104 40.56 178.635 40.6667 178.304 40.752C177.984 40.8267 177.749 40.8907 177.6 40.944C177.451 40.9867 177.333 41.0347 177.248 41.088ZM177.248 37.04C177.184 37.104 177.152 37.168 177.152 37.232C177.131 37.1467 177.093 37.0347 177.04 36.896C176.997 36.7573 176.949 36.6133 176.896 36.464C176.853 36.3147 176.805 36.192 176.752 36.096C176.901 36.0533 177.045 35.9467 177.184 35.776C177.333 35.5947 177.493 35.3707 177.664 35.104C177.749 34.9653 177.877 34.7467 178.048 34.448C178.229 34.1493 178.427 33.792 178.64 33.376C178.853 32.96 179.061 32.5173 179.264 32.048C179.477 31.568 179.664 31.088 179.824 30.608L180.96 31.136C180.683 31.7867 180.373 32.4427 180.032 33.104C179.701 33.7547 179.355 34.3787 178.992 34.976C178.629 35.5733 178.256 36.1067 177.872 36.576V36.608C177.872 36.608 177.835 36.6293 177.76 36.672C177.696 36.7147 177.611 36.768 177.504 36.832C177.408 36.896 177.323 36.9653 177.248 37.04ZM177.152 37.232L177.12 36.336L177.696 35.968L180.688 35.664C180.656 35.824 180.629 36 180.608 36.192C180.597 36.384 180.592 36.5387 180.592 36.656C179.909 36.7413 179.355 36.816 178.928 36.88C178.512 36.9333 178.187 36.9813 177.952 37.024C177.717 37.0667 177.541 37.104 177.424 37.136C177.307 37.168 177.216 37.2 177.152 37.232ZM177.12 44.288L176.864 43.136C177.312 43.0187 177.824 42.8853 178.4 42.736C178.976 42.576 179.584 42.4107 180.224 42.24C180.875 42.0587 181.531 41.8773 182.192 41.696L182.368 42.72C181.44 42.9973 180.517 43.2747 179.6 43.552C178.683 43.8187 177.856 44.064 177.12 44.288ZM190.64 34.336L183.12 35.488L182.928 34.4L190.448 33.28L190.64 34.336ZM191.088 37.36L182.8 38.928L182.608 37.84L190.896 36.304L191.088 37.36ZM185.344 30.528H186.544C186.533 31.776 186.555 32.976 186.608 34.128C186.672 35.28 186.768 36.3627 186.896 37.376C187.035 38.3787 187.195 39.2907 187.376 40.112C187.568 40.9333 187.787 41.6373 188.032 42.224C188.277 42.8107 188.549 43.264 188.848 43.584C189.157 43.904 189.488 44.064 189.84 44.064C189.979 44.064 190.091 44.016 190.176 43.92C190.272 43.8133 190.347 43.632 190.4 43.376C190.453 43.1093 190.491 42.7413 190.512 42.272C190.629 42.4107 190.773 42.5387 190.944 42.656C191.115 42.7627 191.269 42.848 191.408 42.912C191.344 43.5093 191.248 43.9733 191.12 44.304C190.992 44.6453 190.816 44.8853 190.592 45.024C190.368 45.1627 190.075 45.232 189.712 45.232C189.168 45.232 188.688 45.0507 188.272 44.688C187.856 44.336 187.488 43.8293 187.168 43.168C186.848 42.496 186.571 41.712 186.336 40.816C186.112 39.9093 185.925 38.9067 185.776 37.808C185.637 36.7093 185.531 35.5467 185.456 34.32C185.392 33.0933 185.355 31.8293 185.344 30.528ZM187.264 31.52L187.968 30.848C188.235 30.9653 188.512 31.104 188.8 31.264C189.099 31.424 189.376 31.5893 189.632 31.76C189.899 31.92 190.117 32.0747 190.288 32.224L189.584 32.976C189.317 32.7413 188.965 32.4907 188.528 32.224C188.091 31.9467 187.669 31.712 187.264 31.52ZM190.192 38.416L191.2 38.896C190.613 39.8133 189.888 40.6613 189.024 41.44C188.171 42.208 187.216 42.8907 186.16 43.488C185.115 44.0853 184.011 44.5867 182.848 44.992C182.773 44.8427 182.661 44.672 182.512 44.48C182.373 44.2987 182.235 44.1387 182.096 44C183.237 43.648 184.32 43.2 185.344 42.656C186.379 42.112 187.307 41.4827 188.128 40.768C188.96 40.0427 189.648 39.2587 190.192 38.416ZM194.512 45.712L194.16 44.864C194.821 44.5973 195.323 44.256 195.664 43.84C196.016 43.424 196.192 42.912 196.192 42.304L195.888 40.96L196.752 42.176C196.635 42.3147 196.501 42.4107 196.352 42.464C196.203 42.5067 196.053 42.528 195.904 42.528C195.573 42.528 195.291 42.432 195.056 42.24C194.821 42.048 194.704 41.7653 194.704 41.392C194.704 41.008 194.827 40.72 195.072 40.528C195.317 40.336 195.6 40.24 195.92 40.24C196.368 40.24 196.709 40.4107 196.944 40.752C197.179 41.0827 197.296 41.5253 197.296 42.08C197.296 42.944 197.045 43.6907 196.544 44.32C196.043 44.96 195.365 45.424 194.512 45.712ZM210.336 42.368V34.32H211.568V42.384C211.568 42.7253 211.621 42.9867 211.728 43.168C211.835 43.3493 212.037 43.472 212.336 43.536C212.645 43.6 213.093 43.632 213.68 43.632C213.84 43.632 214.117 43.632 214.512 43.632C214.907 43.632 215.355 43.632 215.856 43.632C216.368 43.632 216.88 43.632 217.392 43.632C217.915 43.632 218.384 43.632 218.8 43.632C219.227 43.632 219.547 43.632 219.76 43.632C220.208 43.632 220.565 43.5893 220.832 43.504C221.099 43.4187 221.307 43.264 221.456 43.04C221.616 42.816 221.733 42.5013 221.808 42.096C221.883 41.68 221.952 41.152 222.016 40.512C222.123 40.5867 222.245 40.656 222.384 40.72C222.533 40.784 222.683 40.8427 222.832 40.896C222.981 40.9493 223.115 40.9867 223.232 41.008C223.157 41.744 223.056 42.3573 222.928 42.848C222.8 43.3387 222.613 43.728 222.368 44.016C222.133 44.304 221.803 44.512 221.376 44.64C220.96 44.768 220.421 44.832 219.76 44.832C219.653 44.832 219.445 44.832 219.136 44.832C218.827 44.832 218.464 44.832 218.048 44.832C217.632 44.832 217.195 44.832 216.736 44.832C216.277 44.832 215.84 44.832 215.424 44.832C215.008 44.832 214.651 44.832 214.352 44.832C214.053 44.832 213.851 44.832 213.744 44.832C212.88 44.832 212.197 44.7627 211.696 44.624C211.195 44.4853 210.843 44.24 210.64 43.888C210.437 43.536 210.336 43.0293 210.336 42.368ZM220.432 38.144H210.992V36.96H220.432V38.144ZM219.952 32.752H209.488V31.552H221.2V38.944H219.952V32.752ZM238.688 32.752H225.424V31.6H238.688V32.752ZM239.184 38.464H224.832V37.312H239.184V38.464ZM235.616 45.296H234.368V32.208H235.616V45.296ZM228.688 36.624V32.208H229.904V36.624C229.904 37.4027 229.861 38.1867 229.776 38.976C229.691 39.7653 229.509 40.5387 229.232 41.296C228.965 42.0427 228.56 42.7627 228.016 43.456C227.472 44.1387 226.741 44.768 225.824 45.344C225.749 45.2373 225.659 45.1307 225.552 45.024C225.445 44.9173 225.328 44.8107 225.2 44.704C225.083 44.5973 224.971 44.512 224.864 44.448C225.728 43.9147 226.416 43.3387 226.928 42.72C227.44 42.1013 227.819 41.456 228.064 40.784C228.32 40.112 228.485 39.424 228.56 38.72C228.645 38.016 228.688 37.3173 228.688 36.624ZM253.44 44.192H244.88V43.088H253.44V44.192ZM245.584 45.2H244.416V39.024H254.192V45.168H252.96V40.144H245.584V45.2ZM252.688 33.968H242.944V32.848H253.904V37.328H242.944V36.192H252.688V33.968ZM242.464 36.704V32.848H243.68V36.72C243.68 37.3493 243.653 38.0373 243.6 38.784C243.547 39.52 243.445 40.2773 243.296 41.056C243.157 41.824 242.949 42.576 242.672 43.312C242.395 44.0373 242.021 44.704 241.552 45.312C241.488 45.2373 241.397 45.1413 241.28 45.024C241.163 44.9173 241.04 44.8107 240.912 44.704C240.784 44.608 240.672 44.5387 240.576 44.496C241.003 43.9307 241.339 43.3173 241.584 42.656C241.84 41.9947 242.032 41.3173 242.16 40.624C242.288 39.9307 242.368 39.2533 242.4 38.592C242.443 37.92 242.464 37.2907 242.464 36.704ZM246.976 30.864L248.128 30.544C248.341 30.8747 248.544 31.2427 248.736 31.648C248.939 32.0427 249.093 32.384 249.2 32.672L248 33.056C247.904 32.7573 247.755 32.4053 247.552 32C247.36 31.584 247.168 31.2053 246.976 30.864ZM263.552 37.6L264.672 37.312C265.195 38.9867 266.021 40.4213 267.152 41.616C268.293 42.8 269.728 43.6427 271.456 44.144C271.371 44.2293 271.275 44.336 271.168 44.464C271.061 44.592 270.96 44.7253 270.864 44.864C270.768 45.0027 270.693 45.1253 270.64 45.232C269.445 44.8373 268.389 44.2827 267.472 43.568C266.565 42.8533 265.787 41.9947 265.136 40.992C264.496 39.9893 263.968 38.8587 263.552 37.6ZM270.304 33.008H257.632V31.792H270.304V33.008ZM270.992 37.936H257.056V36.72H270.992V37.936ZM263.264 34.912V32.208H264.528V34.912C264.528 35.5733 264.485 36.272 264.4 37.008C264.315 37.7333 264.144 38.4693 263.888 39.216C263.632 39.9627 263.243 40.6987 262.72 41.424C262.208 42.1387 261.52 42.8213 260.656 43.472C259.803 44.1227 258.736 44.7147 257.456 45.248C257.403 45.152 257.328 45.04 257.232 44.912C257.147 44.784 257.051 44.656 256.944 44.528C256.848 44.4107 256.752 44.3147 256.656 44.24C257.872 43.7493 258.88 43.2053 259.68 42.608C260.491 42.0107 261.131 41.3867 261.6 40.736C262.08 40.0853 262.437 39.424 262.672 38.752C262.917 38.08 263.077 37.4187 263.152 36.768C263.227 36.1067 263.264 35.488 263.264 34.912ZM287.152 39.92H272.848V38.944H287.152V39.92ZM280.528 45.28H279.344V39.792H280.528V45.28ZM277.728 37.808L278.96 38C278.437 38.9493 277.707 39.8507 276.768 40.704C275.84 41.5573 274.651 42.2987 273.2 42.928C273.157 42.832 273.093 42.7307 273.008 42.624C272.933 42.5067 272.848 42.3947 272.752 42.288C272.667 42.1813 272.581 42.1013 272.496 42.048C273.413 41.6853 274.213 41.2747 274.896 40.816C275.579 40.3467 276.155 39.856 276.624 39.344C277.104 38.8213 277.472 38.3093 277.728 37.808ZM282.256 39.568L283.136 39.232C283.435 39.6053 283.819 39.9627 284.288 40.304C284.757 40.6453 285.275 40.9493 285.84 41.216C286.405 41.472 286.965 41.68 287.52 41.84C287.403 41.9467 287.275 42.0907 287.136 42.272C286.997 42.4427 286.885 42.6027 286.8 42.752C286.213 42.5493 285.632 42.288 285.056 41.968C284.491 41.6373 283.963 41.2693 283.472 40.864C282.992 40.448 282.587 40.016 282.256 39.568ZM276.528 44.768H275.36V41.024H284.272V42.016H276.528V44.768ZM283.68 43.6V41.024H284.848V43.616C284.848 43.8827 284.811 44.0853 284.736 44.224C284.672 44.3627 284.539 44.4747 284.336 44.56C284.144 44.6347 283.877 44.6773 283.536 44.688C283.195 44.6987 282.779 44.704 282.288 44.704C282.267 44.5653 282.224 44.4107 282.16 44.24C282.096 44.08 282.027 43.936 281.952 43.808C282.304 43.8187 282.613 43.8293 282.88 43.84C283.157 43.84 283.344 43.84 283.44 43.84C283.536 43.8293 283.6 43.808 283.632 43.776C283.664 43.744 283.68 43.6853 283.68 43.6ZM284.256 37.248V36.224H275.904V37.248H284.256ZM284.256 35.456V34.448H275.904V35.456H284.256ZM285.456 38.064H274.736V33.632H285.456V38.064ZM286.96 32.592H273.056V31.584H286.96V32.592ZM277.888 33.36H276.72V30.56H277.888V33.36ZM283.216 33.312H282.032V30.56H283.216V33.312Z" fill="#111111"/>
<path d="M79.28 58.408H71.952V57.352H79.28V58.408ZM77.968 62.952H74.16V62.056H77.968V62.952ZM77.968 65.24H74.16V64.328H77.968V65.24ZM74.576 67.912H73.536V59.784H78.016V60.728H74.576V67.912ZM77.536 66.808V59.784H78.624V66.808C78.624 67.064 78.592 67.2667 78.528 67.416C78.4747 67.5547 78.3573 67.6667 78.176 67.752C78.0053 67.8267 77.7813 67.8747 77.504 67.896C77.2373 67.9173 76.9013 67.928 76.496 67.928C76.4747 67.7893 76.432 67.6347 76.368 67.464C76.304 67.2827 76.2453 67.128 76.192 67C76.448 67.0107 76.6827 67.016 76.896 67.016C77.12 67.016 77.264 67.016 77.328 67.016C77.4667 67.016 77.536 66.9467 77.536 66.808ZM74.768 55.544L75.856 55.736C75.5467 57.144 75.104 58.4133 74.528 59.544C73.952 60.6747 73.2373 61.6187 72.384 62.376C72.3307 62.312 72.2507 62.232 72.144 62.136C72.048 62.0293 71.9467 61.928 71.84 61.832C71.744 61.7253 71.6533 61.64 71.568 61.576C72.3787 60.904 73.0507 60.0507 73.584 59.016C74.1173 57.9707 74.512 56.8133 74.768 55.544ZM66.336 70.28H65.264V56.248H68.464V57.336H66.336V70.28ZM68.256 56.568V56.248H68.432L68.608 56.184L69.36 56.632C69.232 57.08 69.0933 57.56 68.944 58.072C68.7947 58.5733 68.64 59.0747 68.48 59.576C68.32 60.0773 68.1653 60.5467 68.016 60.984C68.496 61.6667 68.8107 62.3067 68.96 62.904C69.12 63.4907 69.2 64.04 69.2 64.552C69.2 64.9787 69.1573 65.3573 69.072 65.688C68.9867 66.0187 68.8427 66.2587 68.64 66.408C68.544 66.4933 68.432 66.5573 68.304 66.6C68.176 66.6427 68.0427 66.6747 67.904 66.696C67.6373 66.728 67.344 66.7333 67.024 66.712C67.0133 66.5733 66.9867 66.408 66.944 66.216C66.9013 66.0133 66.832 65.8373 66.736 65.688C66.8853 65.6987 67.024 65.7093 67.152 65.72C67.28 65.72 67.392 65.72 67.488 65.72C67.5627 65.7093 67.6373 65.6933 67.712 65.672C67.7867 65.6507 67.8507 65.6187 67.904 65.576C68.0107 65.48 68.08 65.3253 68.112 65.112C68.1547 64.8987 68.176 64.6693 68.176 64.424C68.176 63.976 68.1013 63.4747 67.952 62.92C67.8027 62.3547 67.4827 61.7467 66.992 61.096C67.12 60.7333 67.2427 60.344 67.36 59.928C67.488 59.512 67.6053 59.1013 67.712 58.696C67.8187 58.28 67.92 57.8907 68.016 57.528C68.112 57.1653 68.192 56.8453 68.256 56.568ZM69.232 57.384L70.032 56.936C70.352 57.32 70.672 57.7467 70.992 58.216C71.3227 58.6747 71.5627 59.0747 71.712 59.416L70.864 59.912C70.7147 59.5707 70.48 59.16 70.16 58.68C69.8507 58.2 69.5413 57.768 69.232 57.384ZM69.168 62.744V61.72H71.68V67.704H70.624V62.744H69.168ZM69.904 67.72C70.3307 67.3467 70.72 67.16 71.072 67.16C71.3387 67.16 71.5787 67.2613 71.792 67.464C72.0053 67.656 72.2987 67.8747 72.672 68.12C73.0773 68.408 73.5253 68.6107 74.016 68.728C74.5067 68.8347 75.0827 68.888 75.744 68.888C76.096 68.888 76.4907 68.8827 76.928 68.872C77.3653 68.8613 77.8027 68.84 78.24 68.808C78.688 68.776 79.0933 68.7387 79.456 68.696C79.4133 68.792 79.3707 68.9093 79.328 69.048C79.296 69.1867 79.264 69.3253 79.232 69.464C79.2107 69.6027 79.1947 69.7253 79.184 69.832C78.992 69.8427 78.752 69.8533 78.464 69.864C78.176 69.8747 77.8667 69.8853 77.536 69.896C77.2053 69.9173 76.88 69.928 76.56 69.928C76.2507 69.9387 75.9733 69.944 75.728 69.944C75.0133 69.944 74.3947 69.8747 73.872 69.736C73.36 69.5973 72.88 69.3627 72.432 69.032C72.144 68.84 71.8827 68.6427 71.648 68.44C71.424 68.2267 71.2267 68.12 71.056 68.12C70.9173 68.12 70.7573 68.216 70.576 68.408C70.3947 68.6 70.1973 68.8453 69.984 69.144C69.7813 69.4533 69.5787 69.7787 69.376 70.12L68.624 69.128C69.0613 68.552 69.488 68.0827 69.904 67.72ZM89.392 68.488V62.52H90.592V68.472C90.592 68.7387 90.6347 68.9147 90.72 69C90.816 69.0747 91.024 69.112 91.344 69.112C91.4187 69.112 91.5467 69.112 91.728 69.112C91.92 69.112 92.128 69.112 92.352 69.112C92.5867 69.112 92.8 69.112 92.992 69.112C93.1947 69.112 93.344 69.112 93.44 69.112C93.6533 69.112 93.8133 69.048 93.92 68.92C94.0267 68.792 94.1013 68.536 94.144 68.152C94.1867 67.768 94.2187 67.192 94.24 66.424C94.3253 66.4987 94.432 66.568 94.56 66.632C94.6987 66.696 94.8373 66.7547 94.976 66.808C95.1253 66.8613 95.2533 66.904 95.36 66.936C95.3067 67.8 95.2267 68.4773 95.12 68.968C95.0133 69.448 94.832 69.7787 94.576 69.96C94.3307 70.152 93.984 70.248 93.536 70.248C93.4613 70.248 93.312 70.248 93.088 70.248C92.864 70.248 92.6187 70.248 92.352 70.248C92.096 70.248 91.8613 70.248 91.648 70.248C91.4347 70.248 91.2907 70.248 91.216 70.248C90.736 70.248 90.3627 70.1947 90.096 70.088C89.8293 69.992 89.6427 69.816 89.536 69.56C89.44 69.304 89.392 68.9467 89.392 68.488ZM85.168 62.6H86.448C86.3733 63.5067 86.2507 64.3547 86.08 65.144C85.92 65.9333 85.6587 66.6533 85.296 67.304C84.944 67.944 84.4427 68.5147 83.792 69.016C83.152 69.5173 82.32 69.9387 81.296 70.28C81.2533 70.1733 81.1893 70.056 81.104 69.928C81.0187 69.8 80.928 69.672 80.832 69.544C80.736 69.4267 80.64 69.3307 80.544 69.256C81.504 68.968 82.272 68.6053 82.848 68.168C83.4347 67.7307 83.8827 67.2347 84.192 66.68C84.512 66.1147 84.736 65.4907 84.864 64.808C85.0027 64.1253 85.104 63.3893 85.168 62.6ZM82.208 56.744L83.296 56.344C83.5733 56.7493 83.84 57.192 84.096 57.672C84.3627 58.1413 84.5973 58.6053 84.8 59.064C85.0133 59.5227 85.168 59.9333 85.264 60.296L84.096 60.744C84.0107 60.392 83.8667 59.9867 83.664 59.528C83.472 59.0587 83.248 58.584 82.992 58.104C82.7467 57.6133 82.4853 57.16 82.208 56.744ZM92.72 56.168L93.968 56.616C93.744 57.0747 93.504 57.5547 93.248 58.056C92.992 58.5573 92.7307 59.0373 92.464 59.496C92.208 59.9547 91.9627 60.3547 91.728 60.696L90.704 60.296C90.9387 59.9333 91.1787 59.512 91.424 59.032C91.68 58.552 91.92 58.0613 92.144 57.56C92.3787 57.048 92.5707 56.584 92.72 56.168ZM95.168 62.808H80.88V61.672H95.168V62.808ZM88.56 62.136H87.344V55.56H88.56V62.136ZM108.704 62.424H99.424V61.288H108.704V62.424ZM108.704 65.896H99.424V64.76H108.704V65.896ZM108.704 69.4H99.424V68.264H108.704V69.4ZM99.824 70.296H98.608V57.752H109.648V70.216H108.384V58.904H99.824V70.296ZM103.28 55.528L104.688 55.72C104.507 56.2 104.32 56.68 104.128 57.16C103.936 57.64 103.749 58.056 103.568 58.408L102.48 58.2C102.587 57.944 102.688 57.6613 102.784 57.352C102.891 57.032 102.987 56.7173 103.072 56.408C103.168 56.088 103.237 55.7947 103.28 55.528ZM126.544 60.408H120.112V59.256H126.544V60.408ZM125.952 59.512V59.256H127.12C127.12 59.256 127.12 59.2933 127.12 59.368C127.12 59.4427 127.12 59.528 127.12 59.624C127.12 59.72 127.12 59.8 127.12 59.864C127.067 61.5173 127.008 62.9147 126.944 64.056C126.891 65.1867 126.827 66.12 126.752 66.856C126.688 67.5813 126.608 68.1467 126.512 68.552C126.416 68.9573 126.299 69.2507 126.16 69.432C125.989 69.6347 125.813 69.7787 125.632 69.864C125.461 69.9493 125.248 70.008 124.992 70.04C124.747 70.0613 124.421 70.072 124.016 70.072C123.611 70.072 123.195 70.056 122.768 70.024C122.757 69.8533 122.72 69.656 122.656 69.432C122.592 69.208 122.507 69.0107 122.4 68.84C122.848 68.8827 123.264 68.9093 123.648 68.92C124.032 68.92 124.309 68.92 124.48 68.92C124.619 68.9307 124.736 68.92 124.832 68.888C124.939 68.856 125.029 68.792 125.104 68.696C125.211 68.568 125.307 68.3173 125.392 67.944C125.477 67.56 125.552 67.016 125.616 66.312C125.68 65.5973 125.739 64.6853 125.792 63.576C125.845 62.4667 125.899 61.112 125.952 59.512ZM122.432 55.832H123.632C123.621 56.952 123.6 58.0667 123.568 59.176C123.547 60.2853 123.477 61.3733 123.36 62.44C123.253 63.496 123.083 64.504 122.848 65.464C122.613 66.424 122.288 67.3093 121.872 68.12C121.456 68.9307 120.923 69.6453 120.272 70.264C120.208 70.168 120.117 70.0613 120 69.944C119.893 69.8373 119.781 69.7307 119.664 69.624C119.547 69.528 119.435 69.4533 119.328 69.4C119.947 68.8347 120.448 68.1733 120.832 67.416C121.227 66.6587 121.531 65.8267 121.744 64.92C121.968 64.0133 122.128 63.0587 122.224 62.056C122.32 61.0533 122.379 60.0293 122.4 58.984C122.421 57.928 122.432 56.8773 122.432 55.832ZM119.616 57.944H113.424V56.872H119.616V57.944ZM119.904 61.784H112.864V60.68H119.904V61.784ZM117.568 63.432L118.56 63.16C118.763 63.64 118.971 64.1573 119.184 64.712C119.397 65.256 119.595 65.784 119.776 66.296C119.957 66.808 120.096 67.2507 120.192 67.624L119.136 67.976C119.04 67.592 118.907 67.144 118.736 66.632C118.565 66.1093 118.379 65.5707 118.176 65.016C117.973 64.4507 117.771 63.9227 117.568 63.432ZM113.44 68.312L113.344 67.288L113.952 66.856L119.184 65.752C119.205 65.912 119.232 66.0933 119.264 66.296C119.296 66.4987 119.328 66.664 119.36 66.792C118.379 67.016 117.552 67.208 116.88 67.368C116.219 67.5173 115.675 67.64 115.248 67.736C114.832 67.832 114.501 67.9173 114.256 67.992C114.021 68.0667 113.845 68.1253 113.728 68.168C113.611 68.2107 113.515 68.2587 113.44 68.312ZM113.552 68.088C113.467 68.1627 113.424 68.232 113.424 68.296C113.403 68.2107 113.371 68.104 113.328 67.976C113.285 67.8373 113.237 67.6987 113.184 67.56C113.131 67.4107 113.083 67.288 113.04 67.192C113.168 67.1493 113.285 67.032 113.392 66.84C113.509 66.6373 113.637 66.3813 113.776 66.072C113.84 65.9227 113.931 65.6827 114.048 65.352C114.165 65.0107 114.299 64.6107 114.448 64.152C114.597 63.6933 114.736 63.2027 114.864 62.68C115.003 62.1467 115.12 61.6187 115.216 61.096L116.4 61.48C116.24 62.184 116.043 62.9093 115.808 63.656C115.573 64.392 115.323 65.1013 115.056 65.784C114.8 66.456 114.539 67.064 114.272 67.608V67.64C114.272 67.64 114.229 67.6613 114.144 67.704C114.059 67.7467 113.957 67.8053 113.84 67.88C113.733 67.944 113.637 68.0133 113.552 68.088ZM134.128 62.248V56.28H135.2V62.248C135.2 62.8667 135.179 63.528 135.136 64.232C135.093 64.936 135.008 65.6453 134.88 66.36C134.763 67.0747 134.587 67.768 134.352 68.44C134.117 69.112 133.803 69.72 133.408 70.264C133.355 70.2 133.269 70.1253 133.152 70.04C133.045 69.9653 132.933 69.8853 132.816 69.8C132.709 69.7253 132.613 69.6667 132.528 69.624C133.019 68.9307 133.376 68.1627 133.6 67.32C133.824 66.4667 133.968 65.6027 134.032 64.728C134.096 63.8427 134.128 63.016 134.128 62.248ZM142.192 57.352H134.8V56.28H142.192V57.352ZM141.696 68.824V56.28H142.784V68.824C142.784 69.1547 142.741 69.4107 142.656 69.592C142.571 69.784 142.421 69.9333 142.208 70.04C141.995 70.1253 141.707 70.1787 141.344 70.2C140.992 70.2213 140.528 70.232 139.952 70.232C139.941 70.1253 139.915 70.0027 139.872 69.864C139.829 69.736 139.781 69.6027 139.728 69.464C139.675 69.336 139.621 69.224 139.568 69.128C139.995 69.1387 140.373 69.144 140.704 69.144C141.045 69.1547 141.269 69.1547 141.376 69.144C141.589 69.144 141.696 69.0373 141.696 68.824ZM140.688 60.104H136.192V59.176H140.688V60.104ZM141.088 62.648H135.84V61.736H141.088V62.648ZM138.896 62.376H137.92V57.832H138.896V62.376ZM139.568 64.856H136.704V63.96H140.496V67.704H136.704V66.792H139.568V64.856ZM137.12 68.44H136.192V63.96H137.12V68.44ZM129.68 56.648L130.464 55.912C130.763 56.1467 131.067 56.408 131.376 56.696C131.696 56.984 131.995 57.272 132.272 57.56C132.549 57.8373 132.773 58.088 132.944 58.312L132.096 59.16C131.936 58.9253 131.717 58.664 131.44 58.376C131.173 58.0773 130.885 57.7787 130.576 57.48C130.267 57.1707 129.968 56.8933 129.68 56.648ZM130.8 69.832L130.56 68.728L130.848 68.232L133.28 66.376C133.333 66.536 133.403 66.7173 133.488 66.92C133.584 67.112 133.664 67.2667 133.728 67.384C133.152 67.8427 132.683 68.216 132.32 68.504C131.957 68.792 131.675 69.0213 131.472 69.192C131.269 69.3627 131.12 69.4907 131.024 69.576C130.928 69.672 130.853 69.7573 130.8 69.832ZM131.536 61.736H128.688V60.584H131.536V61.736ZM130.928 69.464C130.843 69.6133 130.8 69.736 130.8 69.832C130.747 69.7467 130.672 69.6507 130.576 69.544C130.491 69.4373 130.4 69.336 130.304 69.24C130.208 69.144 130.123 69.0693 130.048 69.016C130.155 68.9307 130.277 68.808 130.416 68.648C130.555 68.4773 130.677 68.28 130.784 68.056C130.891 67.8213 130.944 67.56 130.944 67.272V60.584H132.112V68.104C132.112 68.104 132.064 68.1467 131.968 68.232C131.883 68.3173 131.776 68.4293 131.648 68.568C131.52 68.7067 131.387 68.856 131.248 69.016C131.12 69.176 131.013 69.3253 130.928 69.464ZM156.336 66.536V61.224H157.584V66.568C157.584 66.9307 157.536 67.2187 157.44 67.432C157.344 67.6347 157.147 67.7893 156.848 67.896C156.549 67.992 156.144 68.0507 155.632 68.072C155.131 68.0827 154.501 68.088 153.744 68.088C153.723 67.9067 153.675 67.6987 153.6 67.464C153.536 67.2187 153.461 67.0053 153.376 66.824C153.76 66.8347 154.128 66.8453 154.48 66.856C154.843 66.8667 155.152 66.872 155.408 66.872C155.664 66.8613 155.845 66.856 155.952 66.856C156.101 66.8453 156.203 66.8187 156.256 66.776C156.309 66.7333 156.336 66.6533 156.336 66.536ZM151.024 70.248H149.76V61.928H151.024V70.248ZM156.88 62.376H145.568V61.224H156.88V62.376ZM159.136 58.52H144.88V57.368H159.136V58.52ZM149.856 60.36H148.624V55.56H149.856V60.36ZM155.392 60.36H154.144V55.56H155.392V60.36ZM166.704 58.6H160.816V57.448H166.704V58.6ZM174.432 60.376H166.816V59.208H174.432V60.376ZM164.368 65.912H163.184V57.896H164.368V65.912ZM173.872 59.48V59.208H175.04C175.04 59.208 175.04 59.2507 175.04 59.336C175.04 59.4107 175.04 59.496 175.04 59.592C175.04 59.688 175.04 59.7627 175.04 59.816C174.976 61.4693 174.912 62.872 174.848 64.024C174.784 65.1653 174.709 66.1093 174.624 66.856C174.539 67.592 174.443 68.168 174.336 68.584C174.229 69 174.101 69.2987 173.952 69.48C173.781 69.704 173.6 69.8587 173.408 69.944C173.216 70.0293 172.981 70.0827 172.704 70.104C172.448 70.1253 172.107 70.136 171.68 70.136C171.253 70.136 170.811 70.12 170.352 70.088C170.341 69.9173 170.304 69.7147 170.24 69.48C170.176 69.256 170.085 69.064 169.968 68.904C170.469 68.936 170.923 68.9627 171.328 68.984C171.744 68.9947 172.037 69 172.208 69C172.379 69 172.512 68.984 172.608 68.952C172.704 68.9093 172.795 68.84 172.88 68.744C173.008 68.6053 173.12 68.344 173.216 67.96C173.312 67.576 173.397 67.0213 173.472 66.296C173.547 65.5707 173.616 64.6533 173.68 63.544C173.744 62.424 173.808 61.0693 173.872 59.48ZM160.896 67.32L160.608 66.088C161.131 65.9707 161.739 65.8213 162.432 65.64C163.125 65.4587 163.856 65.2667 164.624 65.064C165.392 64.8613 166.165 64.6533 166.944 64.44L167.088 65.576C166.011 65.896 164.923 66.2107 163.824 66.52C162.736 66.8293 161.76 67.096 160.896 67.32ZM169.536 55.816H170.752C170.741 57.0533 170.72 58.2587 170.688 59.432C170.656 60.6053 170.56 61.7253 170.4 62.792C170.24 63.8587 169.984 64.8613 169.632 65.8C169.291 66.728 168.805 67.5707 168.176 68.328C167.557 69.0853 166.757 69.7413 165.776 70.296C165.723 70.1893 165.648 70.0773 165.552 69.96C165.456 69.8427 165.349 69.7253 165.232 69.608C165.125 69.5013 165.019 69.416 164.912 69.352C165.851 68.8507 166.613 68.248 167.2 67.544C167.787 66.84 168.24 66.056 168.56 65.192C168.891 64.328 169.12 63.3947 169.248 62.392C169.387 61.3893 169.467 60.3387 169.488 59.24C169.509 58.1307 169.525 56.9893 169.536 55.816ZM178.736 70.264H177.6V61.256H182.672V62.28H178.736V70.264ZM182.128 68.872V61.256H183.312V68.888C183.312 69.1973 183.275 69.4373 183.2 69.608C183.125 69.7893 182.976 69.9333 182.752 70.04C182.528 70.1253 182.24 70.1787 181.888 70.2C181.536 70.2213 181.109 70.232 180.608 70.232C180.576 70.072 180.517 69.8853 180.432 69.672C180.357 69.4587 180.283 69.2773 180.208 69.128C180.581 69.1387 180.923 69.144 181.232 69.144C181.541 69.1547 181.749 69.1547 181.856 69.144C181.973 69.144 182.048 69.1227 182.08 69.08C182.112 69.048 182.128 68.9787 182.128 68.872ZM182.752 64.6H178.144V63.656H182.752V64.6ZM182.752 67.016H178.144V66.056H182.752V67.016ZM184.816 60.888V55.592H186V60.888C186 61.144 186.048 61.3093 186.144 61.384C186.251 61.4587 186.491 61.496 186.864 61.496C186.939 61.496 187.088 61.496 187.312 61.496C187.547 61.496 187.803 61.496 188.08 61.496C188.357 61.496 188.619 61.496 188.864 61.496C189.109 61.496 189.285 61.496 189.392 61.496C189.605 61.496 189.765 61.4533 189.872 61.368C189.979 61.272 190.053 61.096 190.096 60.84C190.139 60.5733 190.171 60.1733 190.192 59.64C190.32 59.736 190.491 59.8267 190.704 59.912C190.917 59.9973 191.109 60.0613 191.28 60.104C191.237 60.7547 191.157 61.2613 191.04 61.624C190.923 61.976 190.741 62.2267 190.496 62.376C190.261 62.5147 189.931 62.584 189.504 62.584C189.429 62.584 189.301 62.584 189.12 62.584C188.939 62.584 188.725 62.584 188.48 62.584C188.235 62.584 187.989 62.584 187.744 62.584C187.509 62.584 187.301 62.584 187.12 62.584C186.939 62.584 186.816 62.584 186.752 62.584C186.24 62.584 185.845 62.536 185.568 62.44C185.291 62.3333 185.093 62.1573 184.976 61.912C184.869 61.6667 184.816 61.3253 184.816 60.888ZM189.728 56.76L190.528 57.656C190.069 57.8587 189.563 58.0667 189.008 58.28C188.453 58.4827 187.883 58.6747 187.296 58.856C186.709 59.0373 186.139 59.208 185.584 59.368C185.563 59.2507 185.515 59.112 185.44 58.952C185.376 58.7813 185.307 58.6373 185.232 58.52C185.755 58.36 186.293 58.1787 186.848 57.976C187.403 57.7733 187.931 57.5707 188.432 57.368C188.933 57.1547 189.365 56.952 189.728 56.76ZM184.816 68.44V63.032H186.016V68.44C186.016 68.7067 186.069 68.8773 186.176 68.952C186.293 69.0267 186.533 69.064 186.896 69.064C186.981 69.064 187.141 69.064 187.376 69.064C187.611 69.064 187.867 69.064 188.144 69.064C188.432 69.064 188.699 69.064 188.944 69.064C189.189 69.064 189.371 69.064 189.488 69.064C189.712 69.064 189.877 69.016 189.984 68.92C190.101 68.8133 190.181 68.6107 190.224 68.312C190.277 68.0133 190.315 67.56 190.336 66.952C190.475 67.048 190.645 67.1387 190.848 67.224C191.061 67.3093 191.248 67.3733 191.408 67.416C191.365 68.1307 191.285 68.6853 191.168 69.08C191.051 69.4747 190.869 69.7467 190.624 69.896C190.379 70.056 190.027 70.136 189.568 70.136C189.504 70.136 189.376 70.136 189.184 70.136C189.003 70.136 188.789 70.136 188.544 70.136C188.299 70.136 188.053 70.136 187.808 70.136C187.563 70.136 187.344 70.136 187.152 70.136C186.971 70.136 186.848 70.136 186.784 70.136C186.272 70.136 185.872 70.088 185.584 69.992C185.296 69.896 185.093 69.7253 184.976 69.48C184.869 69.2347 184.816 68.888 184.816 68.44ZM189.904 63.896L190.72 64.792C190.272 65.0587 189.76 65.304 189.184 65.528C188.608 65.752 188.011 65.9653 187.392 66.168C186.773 66.36 186.176 66.536 185.6 66.696C185.568 66.5787 185.515 66.4347 185.44 66.264C185.365 66.0933 185.296 65.9493 185.232 65.832C185.787 65.6613 186.352 65.4747 186.928 65.272C187.515 65.0587 188.069 64.8347 188.592 64.6C189.115 64.3653 189.552 64.1307 189.904 63.896ZM180.992 56.904L181.984 56.52C182.261 56.872 182.533 57.256 182.8 57.672C183.077 58.088 183.323 58.4987 183.536 58.904C183.76 59.3093 183.925 59.672 184.032 59.992L182.976 60.472C182.869 60.1413 182.709 59.7733 182.496 59.368C182.293 58.952 182.059 58.5307 181.792 58.104C181.525 57.6773 181.259 57.2773 180.992 56.904ZM177.456 59.944C177.381 60.0187 177.344 60.088 177.344 60.152C177.323 60.0667 177.285 59.9547 177.232 59.816C177.189 59.6667 177.141 59.5227 177.088 59.384C177.035 59.2347 176.981 59.1067 176.928 59C177.056 58.968 177.179 58.8987 177.296 58.792C177.413 58.6747 177.541 58.5307 177.68 58.36C177.776 58.2533 177.92 58.056 178.112 57.768C178.315 57.4693 178.528 57.1227 178.752 56.728C178.976 56.3333 179.173 55.9333 179.344 55.528L180.592 55.912C180.357 56.3493 180.101 56.7867 179.824 57.224C179.547 57.6613 179.264 58.0773 178.976 58.472C178.688 58.856 178.4 59.1973 178.112 59.496V59.512C178.112 59.512 178.069 59.5333 177.984 59.576C177.909 59.6187 177.819 59.672 177.712 59.736C177.616 59.8 177.531 59.8693 177.456 59.944ZM177.344 60.152L177.312 59.32L177.936 58.952L183.136 58.648C183.104 58.7867 183.077 58.952 183.056 59.144C183.045 59.3253 183.04 59.4747 183.04 59.592C182.091 59.656 181.291 59.7147 180.64 59.768C180 59.8213 179.477 59.8693 179.072 59.912C178.667 59.944 178.352 59.976 178.128 60.008C177.904 60.0293 177.733 60.0507 177.616 60.072C177.499 60.0933 177.408 60.12 177.344 60.152ZM196.016 60.024L195.68 59.416C195.968 59.2667 196.219 59.0853 196.432 58.872C196.645 58.648 196.811 58.4133 196.928 58.168C197.045 57.912 197.104 57.672 197.104 57.448C197.061 57.48 196.997 57.512 196.912 57.544C196.837 57.5653 196.752 57.576 196.656 57.576C196.357 57.576 196.117 57.48 195.936 57.288C195.755 57.0853 195.664 56.84 195.664 56.552C195.664 56.296 195.755 56.0613 195.936 55.848C196.117 55.624 196.389 55.512 196.752 55.512C197.104 55.512 197.403 55.656 197.648 55.944C197.893 56.2213 198.016 56.584 198.016 57.032C198.016 57.5013 197.92 57.9333 197.728 58.328C197.536 58.7227 197.285 59.064 196.976 59.352C196.677 59.64 196.357 59.864 196.016 60.024ZM192.944 60.024L192.608 59.416C192.896 59.2667 193.147 59.0853 193.36 58.872C193.573 58.648 193.739 58.4133 193.856 58.168C193.973 57.912 194.032 57.672 194.032 57.448C193.989 57.48 193.925 57.512 193.84 57.544C193.765 57.5653 193.685 57.576 193.6 57.576C193.301 57.576 193.056 57.48 192.864 57.288C192.683 57.0853 192.592 56.84 192.592 56.552C192.592 56.296 192.683 56.0613 192.864 55.848C193.045 55.624 193.317 55.512 193.68 55.512C194.032 55.512 194.331 55.656 194.576 55.944C194.821 56.2213 194.944 56.584 194.944 57.032C194.944 57.5013 194.848 57.9333 194.656 58.328C194.464 58.7227 194.213 59.064 193.904 59.352C193.605 59.64 193.285 59.864 192.944 60.024Z" fill="#111111"/>
</g>
<defs>
<filter id="filter0_d_1_461" x="0" y="0" width="342" height="148" filterUnits="userSpaceOnUse" color-interpolation-filters="sRGB">
<feFlood flood-opacity="0" result="BackgroundImageFix"/>
<feColorMatrix in="SourceAlpha" type="matrix" values="0 0 0 0 0 0 0 0 0 0 0 0 0 0 0 0 0 0 127 0" result="hardAlpha"/>
<feOffset dy="24"/>
<feGaussianBlur stdDeviation="16"/>
<feComposite in2="hardAlpha" operator="out"/>
<feColorMatrix type="matrix" values="0 0 0 0 0.203922 0 0 0 0 0.196078 0 0 0 0 0.368627 0 0 0 0.05 0"/>
<feBlend mode="normal" in2="BackgroundImageFix" result="effect1_dropShadow_1_461"/>
<feBlend mode="normal" in="SourceGraphic" in2="effect1_dropShadow_1_461" result="shape"/>
</filter>
<linearGradient id="paint0_linear_1_461" x1="32" y1="23.3391" x2="331.623" y2="90.2836" gradientUnits="userSpaceOnUse">
<stop stop-color="#746BFF"/>
<stop offset="1" stop-color="#FF35DA"/>
</linearGradient>
</defs>
</svg>
