<svg width="48" height="32" viewBox="0 0 48 32" fill="none" xmlns="http://www.w3.org/2000/svg">
<path d="M12.5156 0.1875C14.2969 0.1875 15.9531 0.53125 17.4844 1.21875C19.0156 1.89062 20.3359 2.8125 21.4453 3.98438C22.5547 5.15625 23.4219 6.53125 24.0469 8.10938C24.6875 9.6875 25.0078 11.3672 25.0078 13.1484C25.0078 14.9453 24.6875 16.6328 24.0469 18.2109C23.4219 19.7891 22.5547 21.1641 21.4453 22.3359C20.3359 23.5078 19.0156 24.4375 17.4844 25.125C15.9531 25.7969 14.2969 26.1328 12.5156 26.1328C10.7188 26.1328 9.05469 25.7969 7.52344 25.125C6.00781 24.4375 4.6875 23.5078 3.5625 22.3359C2.45312 21.1641 1.57812 19.7891 0.9375 18.2109C0.3125 16.6328 0 14.9453 0 13.1484C0 11.3672 0.3125 9.6875 0.9375 8.10938C1.57812 6.53125 2.45312 5.15625 3.5625 3.98438C4.6875 2.8125 6.00781 1.89062 7.52344 1.21875C9.05469 0.53125 10.7188 0.1875 12.5156 0.1875ZM12.5156 3.89062C11.2969 3.89062 10.1719 4.13281 9.14062 4.61719C8.10938 5.08594 7.21875 5.74219 6.46875 6.58594C5.71875 7.41406 5.13281 8.39062 4.71094 9.51562C4.28906 10.6406 4.07812 11.8516 4.07812 13.1484C4.07812 14.4453 4.28906 15.6641 4.71094 16.8047C5.13281 17.9297 5.71875 18.9141 6.46875 19.7578C7.21875 20.5859 8.10938 21.2422 9.14062 21.7266C10.1719 22.1953 11.2969 22.4297 12.5156 22.4297C13.7344 22.4297 14.8594 22.1953 15.8906 21.7266C16.9219 21.2422 17.8047 20.5859 18.5391 19.7578C19.2891 18.9141 19.875 17.9297 20.2969 16.8047C20.7188 15.6641 20.9297 14.4453 20.9297 13.1484C20.9297 11.8516 20.7188 10.6406 20.2969 9.51562C19.875 8.39062 19.2891 7.41406 18.5391 6.58594C17.8047 5.74219 16.9219 5.08594 15.8906 4.61719C14.8594 4.13281 13.7344 3.89062 12.5156 3.89062ZM40.125 4.40625H36.4219C35.0312 4.40625 33.9141 4.34375 33.0703 4.21875C31.8203 4.03125 30.6875 3.74219 29.6719 3.35156L31.0078 0C32.1016 0.421875 33.1406 0.695313 34.125 0.820312C35.125 0.945312 36.7266 1.00781 38.9297 1.00781H45.1172V3.67969L39.1641 11.0391C40.3516 10.9453 41.4375 11.0469 42.4219 11.3438C43.4062 11.6406 44.2266 12.0781 44.8828 12.6562C45.5547 13.2188 46.125 13.8906 46.5938 14.6719C47.0625 15.4531 47.3984 16.2812 47.6016 17.1562C47.8203 18.0156 47.9297 18.8984 47.9297 19.8047C47.9297 25.0703 44.625 28.6797 38.0156 30.6328C35.3281 31.4297 32.4062 31.875 29.25 31.9688V28.3359C32.1562 28.1484 34.5156 27.8047 36.3281 27.3047C38.6719 26.6484 40.5078 25.7109 41.8359 24.4922C43.1797 23.2734 43.8516 21.6484 43.8516 19.6172C43.8516 17.8672 43.3672 16.5312 42.3984 15.6094C41.4453 14.6875 40.1406 14.2266 38.4844 14.2266C37.3594 14.2266 36.1328 14.4688 34.8047 14.9531L33.6797 12.7266L40.125 4.40625Z" fill="#E5E8F0"/>
</svg>
