<svg width="48" height="26" viewBox="0 0 48 26" fill="none" xmlns="http://www.w3.org/2000/svg">
<path d="M12.5156 0.046875C14.2969 0.046875 15.9531 0.390625 17.4844 1.07812C19.0156 1.75 20.3359 2.67188 21.4453 3.84375C22.5547 5.01562 23.4219 6.39062 24.0469 7.96875C24.6875 9.54688 25.0078 11.2266 25.0078 13.0078C25.0078 14.8047 24.6875 16.4922 24.0469 18.0703C23.4219 19.6484 22.5547 21.0234 21.4453 22.1953C20.3359 23.3672 19.0156 24.2969 17.4844 24.9844C15.9531 25.6562 14.2969 25.9922 12.5156 25.9922C10.7188 25.9922 9.05469 25.6562 7.52344 24.9844C6.00781 24.2969 4.6875 23.3672 3.5625 22.1953C2.45312 21.0234 1.57812 19.6484 0.9375 18.0703C0.3125 16.4922 0 14.8047 0 13.0078C0 11.2266 0.3125 9.54688 0.9375 7.96875C1.57812 6.39062 2.45312 5.01562 3.5625 3.84375C4.6875 2.67188 6.00781 1.75 7.52344 1.07812C9.05469 0.390625 10.7188 0.046875 12.5156 0.046875ZM12.5156 3.75C11.2969 3.75 10.1719 3.99219 9.14062 4.47656C8.10938 4.94531 7.21875 5.60156 6.46875 6.44531C5.71875 7.27344 5.13281 8.25 4.71094 9.375C4.28906 10.5 4.07812 11.7109 4.07812 13.0078C4.07812 14.3047 4.28906 15.5234 4.71094 16.6641C5.13281 17.7891 5.71875 18.7734 6.46875 19.6172C7.21875 20.4453 8.10938 21.1016 9.14062 21.5859C10.1719 22.0547 11.2969 22.2891 12.5156 22.2891C13.7344 22.2891 14.8594 22.0547 15.8906 21.5859C16.9219 21.1016 17.8047 20.4453 18.5391 19.6172C19.2891 18.7734 19.875 17.7891 20.2969 16.6641C20.7188 15.5234 20.9297 14.3047 20.9297 13.0078C20.9297 11.7109 20.7188 10.5 20.2969 9.375C19.875 8.25 19.2891 7.27344 18.5391 6.44531C17.8047 5.60156 16.9219 4.94531 15.8906 4.47656C14.8594 3.99219 13.7344 3.75 12.5156 3.75ZM30.1641 2.15625C32.9922 0.71875 35.8984 0 38.8828 0C40.0391 0 41.0938 0.132813 42.0469 0.398438C43.0156 0.648438 43.8828 1.04688 44.6484 1.59375C45.4297 2.14063 46.0391 2.88281 46.4766 3.82031C46.9141 4.74219 47.1328 5.82031 47.1328 7.05469C47.1328 8.07031 47.0156 8.96094 46.7812 9.72656C46.3438 11.1016 45.375 12.25 43.875 13.1719C43.125 13.6406 41.4922 14.4219 38.9766 15.5156C38.9453 15.5312 38.9062 15.5547 38.8594 15.5859C38.8125 15.6016 38.7734 15.6172 38.7422 15.6328C38.7109 15.6328 38.6719 15.6484 38.625 15.6797C37.7188 16.0703 37.1328 16.3281 36.8672 16.4531C36.6172 16.5781 36.2031 16.8359 35.625 17.2266C35.0625 17.6172 34.6953 17.9844 34.5234 18.3281C34.3672 18.6719 34.1953 19.1484 34.0078 19.7578C33.8359 20.3672 33.75 21.0703 33.75 21.8672H46.6641V25.3828H29.7188V22.1016C29.7188 20.9141 29.8594 19.8516 30.1406 18.9141C30.4219 17.9609 30.7812 17.1562 31.2188 16.5C31.6562 15.8438 32.2656 15.2344 33.0469 14.6719C33.8438 14.0938 34.625 13.6172 35.3906 13.2422C36.1719 12.8516 37.1484 12.4219 38.3203 11.9531C39.2109 11.5938 39.8828 11.3047 40.3359 11.0859C40.7891 10.8672 41.2578 10.5781 41.7422 10.2188C42.2266 9.84375 42.5625 9.41406 42.75 8.92969C42.9531 8.44531 43.0547 7.86719 43.0547 7.19531C43.0547 5.86719 42.6406 4.89844 41.8125 4.28906C40.9844 3.67969 39.875 3.375 38.4844 3.375C36.25 3.375 33.8984 3.97656 31.4297 5.17969L30.1641 2.15625Z" fill="#E5E8F0"/>
</svg>
