<svg width="40" height="26" viewBox="0 0 40 26" fill="none" xmlns="http://www.w3.org/2000/svg">
<path d="M12.5156 0.046875C14.2969 0.046875 15.9531 0.390625 17.4844 1.07812C19.0156 1.75 20.3359 2.67188 21.4453 3.84375C22.5547 5.01562 23.4219 6.39062 24.0469 7.96875C24.6875 9.54688 25.0078 11.2266 25.0078 13.0078C25.0078 14.8047 24.6875 16.4922 24.0469 18.0703C23.4219 19.6484 22.5547 21.0234 21.4453 22.1953C20.3359 23.3672 19.0156 24.2969 17.4844 24.9844C15.9531 25.6562 14.2969 25.9922 12.5156 25.9922C10.7188 25.9922 9.05469 25.6562 7.52344 24.9844C6.00781 24.2969 4.6875 23.3672 3.5625 22.1953C2.45312 21.0234 1.57812 19.6484 0.9375 18.0703C0.3125 16.4922 0 14.8047 0 13.0078C0 11.2266 0.3125 9.54688 0.9375 7.96875C1.57812 6.39062 2.45312 5.01562 3.5625 3.84375C4.6875 2.67188 6.00781 1.75 7.52344 1.07812C9.05469 0.390625 10.7188 0.046875 12.5156 0.046875ZM12.5156 3.75C11.2969 3.75 10.1719 3.99219 9.14062 4.47656C8.10938 4.94531 7.21875 5.60156 6.46875 6.44531C5.71875 7.27344 5.13281 8.25 4.71094 9.375C4.28906 10.5 4.07812 11.7109 4.07812 13.0078C4.07812 14.3047 4.28906 15.5234 4.71094 16.6641C5.13281 17.7891 5.71875 18.7734 6.46875 19.6172C7.21875 20.4453 8.10938 21.1016 9.14062 21.5859C10.1719 22.0547 11.2969 22.2891 12.5156 22.2891C13.7344 22.2891 14.8594 22.0547 15.8906 21.5859C16.9219 21.1016 17.8047 20.4453 18.5391 19.6172C19.2891 18.7734 19.875 17.7891 20.2969 16.6641C20.7188 15.5234 20.9297 14.3047 20.9297 13.0078C20.9297 11.7109 20.7188 10.5 20.2969 9.375C19.875 8.25 19.2891 7.27344 18.5391 6.44531C17.8047 5.60156 16.9219 4.94531 15.8906 4.47656C14.8594 3.99219 13.7344 3.75 12.5156 3.75ZM29.25 3.75L37.6406 0L39.6797 1.03125V25.3828H35.6016V4.89844L30.6797 6.98438L29.25 3.75Z" fill="#E5E8F0"/>
</svg>
