<svg width="402" height="286" viewBox="0 0 402 286" fill="none" xmlns="http://www.w3.org/2000/svg">
<rect x="0.5" y="0.5" width="401" height="285" rx="19.5" fill="#E7BAF4" fill-opacity="0.07" stroke="#EBE1FF"/>
<rect x="20" y="20" width="362" height="56" rx="12" fill="#E7BAF4" fill-opacity="0.07" stroke="#B18BFF" stroke-dasharray="4 4"/>
<rect x="20" y="88" width="362" height="98" rx="12" fill="#E7BAF4" fill-opacity="0.07" stroke="#B18BFF" stroke-dasharray="4 4"/>
<rect x="20" y="198" width="362" height="68" rx="14" fill="#E7BAF4" fill-opacity="0.07" stroke="#B18BFF" stroke-dasharray="4 4"/>
<path d="M169.816 50.256L169.512 49.072C170.141 48.9013 170.899 48.6827 171.784 48.416C172.68 48.1387 173.592 47.856 174.52 47.568L174.696 48.672C173.853 48.9493 173 49.2267 172.136 49.504C171.283 49.7813 170.509 50.032 169.816 50.256ZM174.664 44.864H169.64V43.744H174.664V44.864ZM171.688 53.792V40.576H172.872V53.808C172.872 54.1387 172.829 54.3947 172.744 54.576C172.659 54.768 172.515 54.912 172.312 55.008C172.109 55.1147 171.848 55.1787 171.528 55.2C171.208 55.232 170.787 55.248 170.264 55.248C170.253 55.088 170.211 54.896 170.136 54.672C170.072 54.4587 169.997 54.2613 169.912 54.08C170.253 54.0907 170.563 54.096 170.84 54.096C171.128 54.1067 171.32 54.1067 171.416 54.096C171.512 54.096 171.581 54.0747 171.624 54.032C171.667 53.9893 171.688 53.9093 171.688 53.792ZM183.704 47.696H176.28V46.624H183.704V47.696ZM183.688 50.88H176.296V49.808H183.688V50.88ZM184.264 54.176H176.328V53.056H184.264V54.176ZM177.032 40.656L178.168 40.944C177.891 41.7973 177.56 42.64 177.176 43.472C176.803 44.2933 176.397 45.0667 175.96 45.792C175.523 46.5067 175.064 47.1413 174.584 47.696C174.531 47.6213 174.445 47.5307 174.328 47.424C174.221 47.3173 174.109 47.2107 173.992 47.104C173.875 46.9867 173.773 46.896 173.688 46.832C174.157 46.3307 174.6 45.7547 175.016 45.104C175.432 44.4427 175.811 43.7333 176.152 42.976C176.504 42.2187 176.797 41.4453 177.032 40.656ZM175.896 44.368L176.808 43.424H177.064H183.944V44.528H177.064V55.28H175.896V44.368ZM180.888 53.648H179.752V44.016H180.888V53.648ZM179.256 41.088L180.296 40.688C180.541 41.0507 180.776 41.4507 181 41.888C181.224 42.3147 181.389 42.6933 181.496 43.024L180.408 43.488C180.301 43.1573 180.136 42.768 179.912 42.32C179.699 41.872 179.48 41.4613 179.256 41.088ZM199.976 46.064H185.976V44.976H199.976V46.064ZM198.216 48.384H191.64V47.392H198.216V48.384ZM200.2 51.664H190.44V50.624H200.2V51.664ZM191.08 43.472L192.232 43.776C191.571 45.376 190.723 46.832 189.688 48.144C188.664 49.4453 187.523 50.5227 186.264 51.376C186.221 51.3013 186.147 51.2053 186.04 51.088C185.944 50.96 185.843 50.8373 185.736 50.72C185.629 50.592 185.533 50.496 185.448 50.432C186.675 49.6533 187.773 48.6613 188.744 47.456C189.725 46.2507 190.504 44.9227 191.08 43.472ZM194.84 53.968V49.552H195.992V54C195.992 54.2987 195.949 54.528 195.864 54.688C195.789 54.8587 195.635 54.992 195.4 55.088C195.165 55.1627 194.851 55.2053 194.456 55.216C194.061 55.2373 193.571 55.248 192.984 55.248C192.963 55.0987 192.909 54.928 192.824 54.736C192.749 54.544 192.675 54.3733 192.6 54.224C193.048 54.2347 193.453 54.24 193.816 54.24C194.179 54.24 194.419 54.24 194.536 54.24C194.653 54.2293 194.733 54.2027 194.776 54.16C194.819 54.128 194.84 54.064 194.84 53.968ZM197.8 47.6V47.392H198.072L198.312 47.328L199.048 47.904C198.568 48.352 198.003 48.784 197.352 49.2C196.701 49.6053 196.067 49.9467 195.448 50.224C195.384 50.1173 195.288 50 195.16 49.872C195.032 49.7333 194.925 49.6267 194.84 49.552C195.203 49.392 195.571 49.2053 195.944 48.992C196.317 48.768 196.669 48.5333 197 48.288C197.331 48.0427 197.597 47.8133 197.8 47.6ZM190.68 44.208H189.512V40.576H190.68V44.208ZM196.472 44.192H195.304V40.56H196.472V44.192ZM200.136 42.88H185.848V41.792H200.136V42.88ZM189.336 55.28H188.184V48.512L189.016 47.68L189.336 47.776V55.28ZM208.232 47.056L209.128 46.4C209.533 46.752 209.96 47.136 210.408 47.552C210.856 47.9573 211.293 48.3733 211.72 48.8C212.147 49.216 212.547 49.6213 212.92 50.016C213.293 50.4 213.608 50.7467 213.864 51.056L212.856 51.84C212.621 51.5307 212.323 51.1787 211.96 50.784C211.608 50.3787 211.219 49.9573 210.792 49.52C210.376 49.0827 209.944 48.656 209.496 48.24C209.059 47.8133 208.637 47.4187 208.232 47.056ZM208.392 43.696V40.56H209.64V43.696C209.64 44.208 209.608 44.7467 209.544 45.312C209.491 45.8773 209.379 46.4587 209.208 47.056C209.037 47.6427 208.781 48.2293 208.44 48.816C208.109 49.392 207.667 49.952 207.112 50.496C206.557 51.04 205.869 51.5573 205.048 52.048C204.995 51.9627 204.915 51.8667 204.808 51.76C204.712 51.6427 204.611 51.5253 204.504 51.408C204.397 51.2907 204.291 51.2 204.184 51.136C204.984 50.7093 205.645 50.2507 206.168 49.76C206.691 49.2587 207.101 48.7467 207.4 48.224C207.699 47.6907 207.917 47.1627 208.056 46.64C208.205 46.1173 208.296 45.6053 208.328 45.104C208.371 44.6027 208.392 44.1333 208.392 43.696ZM203.784 55.312H202.584V43.296H214.808V44.48H203.784V55.312ZM214.264 53.68V43.296H215.448V53.696C215.448 54.0907 215.395 54.3893 215.288 54.592C215.181 54.8053 214.995 54.9653 214.728 55.072C214.44 55.168 214.045 55.2213 213.544 55.232C213.053 55.2533 212.451 55.264 211.736 55.264C211.715 55.1467 211.683 55.0133 211.64 54.864C211.597 54.7253 211.549 54.5813 211.496 54.432C211.443 54.2827 211.384 54.1547 211.32 54.048C211.704 54.0587 212.067 54.064 212.408 54.064C212.76 54.0747 213.064 54.0747 213.32 54.064C213.587 54.064 213.768 54.064 213.864 54.064C214.024 54.0533 214.131 54.0213 214.184 53.968C214.237 53.9147 214.264 53.8187 214.264 53.68ZM222.296 43.888L223.432 44.256C223.08 44.7253 222.675 45.1787 222.216 45.616C221.757 46.0533 221.272 46.464 220.76 46.848C220.259 47.2213 219.763 47.5467 219.272 47.824C219.219 47.7493 219.139 47.6533 219.032 47.536C218.925 47.4187 218.819 47.3013 218.712 47.184C218.605 47.0667 218.509 46.9707 218.424 46.896C219.149 46.544 219.859 46.1013 220.552 45.568C221.256 45.024 221.837 44.464 222.296 43.888ZM226.376 44.592L227.192 43.904C227.683 44.192 228.195 44.5173 228.728 44.88C229.261 45.2427 229.763 45.6107 230.232 45.984C230.712 46.3573 231.101 46.6933 231.4 46.992L230.536 47.792C230.248 47.4827 229.875 47.1413 229.416 46.768C228.957 46.384 228.461 46 227.928 45.616C227.395 45.232 226.877 44.8907 226.376 44.592ZM221.688 55.296H220.52V49.92H229.512V55.232H228.28V50.992H221.688V55.296ZM228.872 54.752H221.144V53.664H228.872V54.752ZM219.512 44.96H218.328V42.032H231.688V44.96H230.456V43.136H219.512V44.96ZM223.928 40.736L225.16 40.448C225.352 40.736 225.539 41.0613 225.72 41.424C225.901 41.7867 226.029 42.1013 226.104 42.368L224.808 42.672C224.733 42.416 224.611 42.1067 224.44 41.744C224.28 41.3707 224.109 41.0347 223.928 40.736ZM224.92 45.296L225.96 45.76C225.405 46.624 224.728 47.4293 223.928 48.176C223.139 48.9227 222.269 49.6 221.32 50.208C220.381 50.8053 219.4 51.312 218.376 51.728C218.291 51.5893 218.173 51.4293 218.024 51.248C217.875 51.056 217.731 50.896 217.592 50.768C218.584 50.3947 219.539 49.936 220.456 49.392C221.384 48.8373 222.232 48.2133 223 47.52C223.768 46.816 224.408 46.0747 224.92 45.296ZM224.408 46.304L225.384 45.84C226.323 46.9707 227.379 47.8987 228.552 48.624C229.725 49.3493 230.995 49.984 232.36 50.528C232.221 50.6453 232.077 50.8 231.928 50.992C231.779 51.1733 231.661 51.3547 231.576 51.536C230.648 51.1093 229.768 50.656 228.936 50.176C228.104 49.6853 227.309 49.1253 226.552 48.496C225.805 47.8667 225.091 47.136 224.408 46.304Z" fill="#B389FF"/>
<path d="M169.816 139.256L169.512 138.072C170.141 137.901 170.899 137.683 171.784 137.416C172.68 137.139 173.592 136.856 174.52 136.568L174.696 137.672C173.853 137.949 173 138.227 172.136 138.504C171.283 138.781 170.509 139.032 169.816 139.256ZM174.664 133.864H169.64V132.744H174.664V133.864ZM171.688 142.792V129.576H172.872V142.808C172.872 143.139 172.829 143.395 172.744 143.576C172.659 143.768 172.515 143.912 172.312 144.008C172.109 144.115 171.848 144.179 171.528 144.2C171.208 144.232 170.787 144.248 170.264 144.248C170.253 144.088 170.211 143.896 170.136 143.672C170.072 143.459 169.997 143.261 169.912 143.08C170.253 143.091 170.563 143.096 170.84 143.096C171.128 143.107 171.32 143.107 171.416 143.096C171.512 143.096 171.581 143.075 171.624 143.032C171.667 142.989 171.688 142.909 171.688 142.792ZM183.704 136.696H176.28V135.624H183.704V136.696ZM183.688 139.88H176.296V138.808H183.688V139.88ZM184.264 143.176H176.328V142.056H184.264V143.176ZM177.032 129.656L178.168 129.944C177.891 130.797 177.56 131.64 177.176 132.472C176.803 133.293 176.397 134.067 175.96 134.792C175.523 135.507 175.064 136.141 174.584 136.696C174.531 136.621 174.445 136.531 174.328 136.424C174.221 136.317 174.109 136.211 173.992 136.104C173.875 135.987 173.773 135.896 173.688 135.832C174.157 135.331 174.6 134.755 175.016 134.104C175.432 133.443 175.811 132.733 176.152 131.976C176.504 131.219 176.797 130.445 177.032 129.656ZM175.896 133.368L176.808 132.424H177.064H183.944V133.528H177.064V144.28H175.896V133.368ZM180.888 142.648H179.752V133.016H180.888V142.648ZM179.256 130.088L180.296 129.688C180.541 130.051 180.776 130.451 181 130.888C181.224 131.315 181.389 131.693 181.496 132.024L180.408 132.488C180.301 132.157 180.136 131.768 179.912 131.32C179.699 130.872 179.48 130.461 179.256 130.088ZM199.976 135.064H185.976V133.976H199.976V135.064ZM198.216 137.384H191.64V136.392H198.216V137.384ZM200.2 140.664H190.44V139.624H200.2V140.664ZM191.08 132.472L192.232 132.776C191.571 134.376 190.723 135.832 189.688 137.144C188.664 138.445 187.523 139.523 186.264 140.376C186.221 140.301 186.147 140.205 186.04 140.088C185.944 139.96 185.843 139.837 185.736 139.72C185.629 139.592 185.533 139.496 185.448 139.432C186.675 138.653 187.773 137.661 188.744 136.456C189.725 135.251 190.504 133.923 191.08 132.472ZM194.84 142.968V138.552H195.992V143C195.992 143.299 195.949 143.528 195.864 143.688C195.789 143.859 195.635 143.992 195.4 144.088C195.165 144.163 194.851 144.205 194.456 144.216C194.061 144.237 193.571 144.248 192.984 144.248C192.963 144.099 192.909 143.928 192.824 143.736C192.749 143.544 192.675 143.373 192.6 143.224C193.048 143.235 193.453 143.24 193.816 143.24C194.179 143.24 194.419 143.24 194.536 143.24C194.653 143.229 194.733 143.203 194.776 143.16C194.819 143.128 194.84 143.064 194.84 142.968ZM197.8 136.6V136.392H198.072L198.312 136.328L199.048 136.904C198.568 137.352 198.003 137.784 197.352 138.2C196.701 138.605 196.067 138.947 195.448 139.224C195.384 139.117 195.288 139 195.16 138.872C195.032 138.733 194.925 138.627 194.84 138.552C195.203 138.392 195.571 138.205 195.944 137.992C196.317 137.768 196.669 137.533 197 137.288C197.331 137.043 197.597 136.813 197.8 136.6ZM190.68 133.208H189.512V129.576H190.68V133.208ZM196.472 133.192H195.304V129.56H196.472V133.192ZM200.136 131.88H185.848V130.792H200.136V131.88ZM189.336 144.28H188.184V137.512L189.016 136.68L189.336 136.776V144.28ZM216.088 131.56H203.784V130.44H216.088V131.56ZM203.096 134.984V130.44H204.28V134.984C204.28 135.635 204.259 136.344 204.216 137.112C204.184 137.88 204.109 138.669 203.992 139.48C203.875 140.291 203.704 141.08 203.48 141.848C203.256 142.605 202.957 143.309 202.584 143.96C202.52 143.896 202.424 143.821 202.296 143.736C202.168 143.651 202.035 143.571 201.896 143.496C201.768 143.421 201.656 143.368 201.56 143.336C201.912 142.717 202.189 142.056 202.392 141.352C202.595 140.637 202.744 139.907 202.84 139.16C202.947 138.413 203.016 137.688 203.048 136.984C203.08 136.269 203.096 135.603 203.096 134.984ZM213.592 138.072V136.568H206.904V138.072H213.592ZM213.592 135.656V134.168H206.904V135.656H213.592ZM214.824 139.032H205.72V133.224H214.824V139.032ZM209.656 142.936V138.264H210.824V142.952C210.824 143.261 210.781 143.501 210.696 143.672C210.611 143.853 210.451 143.992 210.216 144.088C209.971 144.173 209.645 144.221 209.24 144.232C208.835 144.253 208.323 144.264 207.704 144.264C207.683 144.104 207.635 143.923 207.56 143.72C207.485 143.528 207.411 143.352 207.336 143.192C207.805 143.203 208.227 143.208 208.6 143.208C208.973 143.219 209.219 143.219 209.336 143.208C209.464 143.197 209.549 143.171 209.592 143.128C209.635 143.096 209.656 143.032 209.656 142.936ZM209.48 131.736L210.872 131.944C210.68 132.296 210.483 132.648 210.28 133C210.088 133.352 209.907 133.656 209.736 133.912L208.632 133.672C208.792 133.395 208.947 133.075 209.096 132.712C209.256 132.339 209.384 132.013 209.48 131.736ZM212.184 140.36L213.128 139.848C213.448 140.179 213.789 140.541 214.152 140.936C214.525 141.32 214.877 141.704 215.208 142.088C215.549 142.461 215.827 142.787 216.04 143.064L215.016 143.672C214.813 143.395 214.552 143.064 214.232 142.68C213.912 142.296 213.571 141.901 213.208 141.496C212.845 141.091 212.504 140.712 212.184 140.36ZM206.936 139.816L208.072 140.2C207.805 140.584 207.507 140.984 207.176 141.4C206.845 141.816 206.515 142.216 206.184 142.6C205.853 142.973 205.539 143.304 205.24 143.592C205.155 143.528 205.048 143.453 204.92 143.368C204.803 143.293 204.68 143.213 204.552 143.128C204.424 143.043 204.307 142.979 204.2 142.936C204.68 142.52 205.165 142.035 205.656 141.48C206.157 140.915 206.584 140.36 206.936 139.816ZM229.608 135.704H220.392V134.6H229.608V135.704ZM224.568 131.992H225.736C225.704 133.112 225.629 134.179 225.512 135.192C225.395 136.195 225.187 137.123 224.888 137.976C224.589 138.819 224.141 139.576 223.544 140.248C222.957 140.92 222.163 141.485 221.16 141.944C221.117 141.837 221.048 141.725 220.952 141.608C220.867 141.491 220.776 141.379 220.68 141.272C220.584 141.155 220.493 141.059 220.408 140.984C221.336 140.579 222.072 140.077 222.616 139.48C223.16 138.872 223.565 138.184 223.832 137.416C224.099 136.648 224.28 135.811 224.376 134.904C224.472 133.987 224.536 133.016 224.568 131.992ZM224.36 137.016L225.16 136.408C225.725 136.877 226.291 137.389 226.856 137.944C227.432 138.499 227.96 139.053 228.44 139.608C228.92 140.152 229.309 140.637 229.608 141.064L228.744 141.784C228.52 141.453 228.243 141.091 227.912 140.696C227.581 140.291 227.219 139.875 226.824 139.448C226.429 139.021 226.019 138.6 225.592 138.184C225.176 137.757 224.765 137.368 224.36 137.016ZM219.448 144.264H218.312V130.216H231.72V144.264H230.552V131.304H219.448V144.264ZM231.16 143.48H219.016V142.44H231.16V143.48Z" fill="#B389FF"/>
<path d="M185.896 234.224L185.576 233.072C186.152 232.891 186.84 232.656 187.64 232.368C188.44 232.08 189.251 231.787 190.072 231.488L190.264 232.56C189.507 232.848 188.744 233.141 187.976 233.44C187.219 233.728 186.525 233.989 185.896 234.224ZM190.168 228.912H185.736V227.776H190.168V228.912ZM187.528 237.872V224.56H188.68V237.856C188.68 238.165 188.643 238.405 188.568 238.576C188.493 238.747 188.371 238.88 188.2 238.976C188.019 239.061 187.789 239.115 187.512 239.136C187.245 239.168 186.909 239.184 186.504 239.184C186.483 239.045 186.435 238.869 186.36 238.656C186.296 238.443 186.227 238.261 186.152 238.112C186.429 238.123 186.669 238.123 186.872 238.112C187.085 238.112 187.229 238.112 187.304 238.112C187.453 238.112 187.528 238.032 187.528 237.872ZM197.112 227.808V226.128H193.432V227.808H197.112ZM198.232 228.72H192.376V225.216H198.232V228.72ZM193.832 232.144V230.32H191.72V232.144H193.832ZM194.808 233.04H190.776V229.44H194.808V233.04ZM198.856 232.144V230.32H196.68V232.144H198.856ZM199.864 233.04H195.72V229.44H199.864V233.04ZM200.216 235.264H190.472V234.24H200.216V235.264ZM195.832 239.296H194.696V233.04H195.832V239.296ZM194.424 234.688L195.384 235.056C195.011 235.611 194.541 236.139 193.976 236.64C193.421 237.141 192.819 237.589 192.168 237.984C191.517 238.368 190.861 238.683 190.2 238.928C190.104 238.779 189.981 238.608 189.832 238.416C189.683 238.235 189.549 238.091 189.432 237.984C190.072 237.781 190.712 237.515 191.352 237.184C191.992 236.843 192.579 236.459 193.112 236.032C193.645 235.605 194.083 235.157 194.424 234.688ZM195.32 235.152L196.184 234.816C196.493 235.232 196.877 235.637 197.336 236.032C197.805 236.427 198.312 236.784 198.856 237.104C199.4 237.424 199.939 237.675 200.472 237.856C200.387 237.931 200.296 238.021 200.2 238.128C200.104 238.235 200.008 238.347 199.912 238.464C199.827 238.581 199.752 238.688 199.688 238.784C199.155 238.549 198.611 238.245 198.056 237.872C197.512 237.488 197 237.061 196.52 236.592C196.051 236.123 195.651 235.643 195.32 235.152ZM216.392 228.4H208.232L208.792 227.232H216.392V228.4ZM216.024 231.808H210.792V230.704H216.024V231.808ZM216.232 235.376H210.792V234.24H216.232V235.376ZM211.432 239.264H210.2V227.616H211.432V239.264ZM209.416 224.752L210.568 225.056C210.269 225.899 209.923 226.731 209.528 227.552C209.133 228.363 208.701 229.131 208.232 229.856C207.773 230.571 207.299 231.2 206.808 231.744C206.744 231.68 206.653 231.595 206.536 231.488C206.429 231.381 206.312 231.275 206.184 231.168C206.067 231.061 205.965 230.981 205.88 230.928C206.36 230.427 206.819 229.845 207.256 229.184C207.693 228.523 208.093 227.813 208.456 227.056C208.829 226.299 209.149 225.531 209.416 224.752ZM205.56 224.624L206.712 224.976C206.371 225.872 205.965 226.768 205.496 227.664C205.027 228.549 204.52 229.381 203.976 230.16C203.432 230.928 202.867 231.616 202.28 232.224C202.237 232.128 202.173 232.005 202.088 231.856C202.003 231.696 201.912 231.536 201.816 231.376C201.731 231.216 201.651 231.088 201.576 230.992C202.109 230.48 202.621 229.883 203.112 229.2C203.603 228.517 204.056 227.787 204.472 227.008C204.899 226.219 205.261 225.424 205.56 224.624ZM205.064 239.248H203.848V228.736L205.048 227.536L205.064 227.568V239.248Z" fill="#B389FF"/>
</svg>
