<svg width="456" height="192" viewBox="0 0 456 192" fill="none" xmlns="http://www.w3.org/2000/svg">
<g filter="url(#filter0_d_14_87)">
<foreignObject x="42" y="18" width="403.87" height="139.395"><div xmlns="http://www.w3.org/1999/xhtml" style="backdrop-filter:blur(3px);clip-path:url(#bgblur_0_14_87_clip_path);height:100%;width:100%"></div></foreignObject><rect data-figma-bg-blur-radius="6" x="0.495614" y="0.433918" width="394.338" height="76.1187" rx="7.5" transform="matrix(0.991228 -0.132164 0 1 48.0043 75.3282)" fill="#222635" fill-opacity="0.7" stroke="#88A1FE"/>
<path d="M197.568 100.659L195.902 100.881L199.4 90.237L201.467 89.9613L204.964 99.673L203.285 99.8969L200.454 91.7903L200.399 91.7977L197.568 100.659ZM197.831 96.718L202.994 96.0297V97.2757L197.831 97.964V96.718ZM207.99 89.0916V99.2696L206.422 99.4786V89.3006L207.99 89.0916ZM221.638 90.0578L216.115 90.7942V89.5202L221.638 88.7838V90.0578ZM220.972 89.1526V88.8726L222.249 88.7024C222.249 88.7024 222.249 88.7444 222.249 88.8284C222.249 88.9031 222.249 88.9918 222.249 89.0944C222.249 89.1878 222.249 89.2671 222.249 89.3324C222.202 90.7759 222.156 92.0001 222.11 93.0049C222.064 94.0004 222.013 94.8239 221.957 95.4753C221.902 96.1173 221.832 96.6259 221.749 97.001C221.666 97.3668 221.564 97.637 221.444 97.8117C221.286 98.0474 221.124 98.2183 220.958 98.3245C220.801 98.4295 220.606 98.516 220.375 98.5842C220.153 98.6325 219.871 98.6794 219.529 98.7251C219.186 98.7801 218.835 98.8176 218.474 98.8377C218.455 98.6535 218.409 98.445 218.335 98.2122C218.27 97.9782 218.183 97.7752 218.072 97.6034C218.432 97.5833 218.765 97.5575 219.071 97.5261C219.385 97.4935 219.617 97.4674 219.765 97.4476C219.885 97.4316 219.987 97.404 220.07 97.3649C220.153 97.3165 220.227 97.2459 220.292 97.1533C220.384 97.029 220.463 96.7992 220.528 96.4639C220.602 96.1273 220.662 95.6526 220.708 95.0398C220.764 94.4164 220.81 93.6262 220.847 92.6693C220.884 91.703 220.926 90.5308 220.972 89.1526ZM217.933 86.3659L219.237 86.1919C219.228 87.2198 219.209 88.235 219.182 89.2373C219.163 90.2291 219.108 91.1979 219.015 92.1435C218.923 93.0799 218.775 93.9816 218.571 94.8487C218.368 95.7066 218.085 96.5142 217.725 97.2716C217.373 98.0185 216.915 98.7002 216.351 99.3168C216.286 99.2134 216.193 99.1044 216.073 98.9898C215.962 98.8833 215.842 98.7826 215.712 98.6879C215.592 98.5919 215.476 98.5187 215.365 98.4682C215.884 97.9044 216.304 97.279 216.628 96.5918C216.952 95.9046 217.202 95.1666 217.378 94.3779C217.563 93.5879 217.692 92.7586 217.766 91.8901C217.84 91.0122 217.886 90.11 217.905 89.1836C217.923 88.2571 217.933 87.3179 217.933 86.3659ZM215.685 88.7236L210.286 89.4434V88.2674L215.685 87.5476V88.7236ZM215.934 92.0223L209.801 92.8401V91.6221L215.934 90.8043V92.0223ZM213.853 93.6578L214.908 93.2232C215.083 93.6011 215.259 94.0164 215.435 94.4689C215.62 94.9109 215.786 95.3414 215.934 95.7603C216.092 96.178 216.207 96.5406 216.281 96.848L215.143 97.3918C215.069 97.0656 214.963 96.6878 214.824 96.2583C214.685 95.8288 214.528 95.3878 214.352 94.9352C214.186 94.4814 214.019 94.0556 213.853 93.6578ZM210.342 98.494L210.231 97.3888L210.828 96.8752L215.352 95.264C215.37 95.4295 215.398 95.6218 215.435 95.8409C215.472 96.06 215.509 96.2324 215.546 96.3581C214.695 96.6769 213.978 96.9499 213.395 97.1769C212.821 97.3934 212.349 97.5776 211.979 97.7296C211.619 97.8711 211.332 97.9887 211.119 98.0824C210.906 98.1761 210.74 98.2543 210.619 98.317C210.508 98.3784 210.416 98.4374 210.342 98.494ZM210.467 98.2673C210.384 98.3531 210.342 98.4286 210.342 98.494C210.323 98.4031 210.286 98.2914 210.231 98.1588C210.185 98.0156 210.134 97.8684 210.078 97.7171C210.023 97.5659 209.972 97.442 209.926 97.3455C210.046 97.2921 210.157 97.1746 210.259 96.9931C210.36 96.8115 210.467 96.578 210.578 96.2925C210.633 96.1638 210.712 95.948 210.814 95.6451C210.916 95.3328 211.027 94.9727 211.147 94.5647C211.267 94.1566 211.383 93.7165 211.494 93.2444C211.614 92.771 211.711 92.3101 211.785 91.8615L213.076 92.0675C212.937 92.702 212.766 93.3548 212.562 94.0259C212.359 94.6971 212.141 95.342 211.91 95.9609C211.688 96.5785 211.457 97.1367 211.216 97.6354V97.6774C211.216 97.6774 211.17 97.7069 211.077 97.7659C210.994 97.8237 210.892 97.8979 210.772 97.9886C210.661 98.0781 210.559 98.171 210.467 98.2673ZM236.167 86.8186L223.692 88.482V87.25L236.167 85.5866V86.8186ZM229.284 84.5163L230.658 84.3331C230.593 85.0511 230.496 85.7547 230.367 86.444C230.237 87.1333 230.038 87.8038 229.77 88.4556C229.511 89.0968 229.155 89.7089 228.701 90.292C228.248 90.8751 227.661 91.4295 226.939 91.955C226.217 92.4712 225.329 92.9443 224.275 93.3743C224.21 93.2242 224.103 93.0518 223.955 92.8568C223.817 92.6513 223.678 92.4832 223.539 92.3523C224.529 91.9684 225.352 91.5506 226.009 91.099C226.675 90.6462 227.212 90.164 227.619 89.6524C228.026 89.1407 228.341 88.6088 228.563 88.0565C228.785 87.4949 228.947 86.918 229.048 86.3258C229.15 85.7335 229.229 85.1304 229.284 84.5163ZM229.659 86.8184L230.866 86.3774C231.283 87.5445 231.949 88.4777 232.865 89.1769C233.78 89.8762 234.951 90.2941 236.376 90.4308C236.283 90.5365 236.177 90.672 236.056 90.8374C235.945 90.9922 235.839 91.151 235.737 91.3139C235.645 91.4756 235.566 91.6261 235.501 91.7654C234.493 91.6105 233.614 91.3264 232.865 90.9129C232.115 90.4902 231.477 89.936 230.95 89.2503C230.431 88.5634 230.001 87.7527 229.659 86.8184ZM228.216 90.9448L229.34 90.1089C229.617 90.2119 229.9 90.3423 230.186 90.5001C230.482 90.6472 230.76 90.8016 231.019 90.963C231.287 91.1233 231.509 91.2803 231.685 91.4342L230.492 92.3493C230.334 92.2023 230.131 92.0428 229.881 91.8708C229.631 91.6987 229.358 91.5345 229.062 91.3779C228.775 91.2108 228.493 91.0665 228.216 90.9448ZM226.675 95.9802V93.3902L227.966 93.2181V95.7941C227.966 96.0088 228.026 96.1407 228.146 96.19C228.276 96.2288 228.553 96.2198 228.979 96.163C229.053 96.1532 229.183 96.1359 229.368 96.1112C229.553 96.0865 229.756 96.0594 229.978 96.0298C230.209 95.999 230.445 95.9675 230.686 95.9354C230.926 95.9034 231.144 95.8744 231.338 95.8485C231.532 95.8226 231.685 95.8022 231.796 95.7874C232.027 95.7566 232.203 95.6958 232.323 95.6051C232.444 95.5144 232.527 95.3493 232.573 95.1098C232.629 94.8597 232.67 94.4995 232.698 94.0292C232.791 94.0821 232.906 94.1321 233.045 94.1789C233.184 94.2257 233.327 94.2673 233.475 94.3035C233.623 94.3305 233.757 94.3499 233.878 94.3619C233.822 94.9853 233.73 95.4783 233.6 95.8409C233.471 96.1942 233.272 96.454 233.003 96.6204C232.735 96.7869 232.36 96.9022 231.879 96.9663C231.805 96.9762 231.667 96.9947 231.463 97.0218C231.259 97.049 231.024 97.0804 230.755 97.1162C230.496 97.1507 230.237 97.1853 229.978 97.2198C229.719 97.2543 229.488 97.2852 229.284 97.3123C229.09 97.3382 228.956 97.3561 228.882 97.366C228.299 97.4437 227.846 97.4528 227.522 97.3933C227.207 97.3419 226.985 97.1989 226.856 96.9641C226.736 96.7375 226.675 96.4095 226.675 95.9802ZM228.618 92.8651L229.631 92.1281C229.89 92.3175 230.159 92.5338 230.436 92.7767C230.714 93.0197 230.973 93.2652 231.213 93.5131C231.454 93.7517 231.648 93.9732 231.796 94.1774L230.714 95.0077C230.584 94.801 230.399 94.5737 230.159 94.3258C229.927 94.0766 229.677 93.8252 229.409 93.5717C229.141 93.3088 228.877 93.0733 228.618 92.8651ZM233.323 92.6439L234.474 92.1123C234.706 92.4735 234.937 92.8673 235.168 93.2938C235.4 93.711 235.603 94.1225 235.779 94.5284C235.955 94.9343 236.084 95.3043 236.167 95.6386L234.918 96.2391C234.844 95.913 234.724 95.5463 234.558 95.1392C234.391 94.7227 234.197 94.296 233.975 93.8589C233.762 93.4206 233.545 93.0156 233.323 92.6439ZM224.968 93.5618L226.134 93.7983C226.042 94.212 225.931 94.6515 225.801 95.1167C225.672 95.582 225.524 96.0404 225.357 96.492C225.2 96.9329 225.019 97.3303 224.816 97.6841L223.636 97.2254C223.831 96.8915 224.011 96.5221 224.177 96.1172C224.353 95.7018 224.506 95.2754 224.635 94.8382C224.774 94.3903 224.885 93.9649 224.968 93.5618ZM237.472 84.7126L238.513 83.9299C238.772 84.1847 239.045 84.4656 239.331 84.7727C239.618 85.0798 239.886 85.3847 240.136 85.6874C240.395 85.9889 240.599 86.2604 240.747 86.502L239.623 87.4079C239.484 87.1557 239.294 86.873 239.054 86.5597C238.813 86.2465 238.554 85.9263 238.277 85.5993C238.008 85.2711 237.74 84.9755 237.472 84.7126ZM238.429 95.757L237.291 95.0967C237.523 94.6925 237.777 94.2199 238.055 93.6789C238.332 93.1286 238.614 92.5496 238.901 91.9421C239.188 91.3252 239.452 90.7253 239.692 90.1426L240.677 90.8092C240.465 91.3509 240.229 91.9097 239.97 92.4856C239.72 93.0602 239.466 93.6262 239.206 94.1834C238.947 94.7312 238.688 95.2558 238.429 95.757ZM247.699 85.561L241.815 86.3455V85.0995L248.948 84.1485V88.9645L247.699 89.131V85.561ZM250.239 89.4644L241.135 90.6782V89.4042L250.239 88.1904V89.4644ZM245.063 89.5385L246.256 89.1274C246.552 90.2919 247.033 91.2685 247.699 92.057C248.375 92.8443 249.267 93.3599 250.378 93.6039C250.285 93.7002 250.179 93.8264 250.058 93.9824C249.947 94.1372 249.841 94.2914 249.739 94.445C249.647 94.6067 249.563 94.7531 249.489 94.8843C248.694 94.6544 248.009 94.2977 247.436 93.8141C246.862 93.3213 246.381 92.7181 245.992 92.0046C245.604 91.2817 245.294 90.4597 245.063 89.5385ZM244.48 87.3483V82.6023L245.854 82.4191V87.1651C245.854 87.7251 245.821 88.3081 245.757 88.914C245.701 89.5188 245.585 90.1315 245.41 90.7523C245.234 91.3637 244.975 91.9769 244.632 92.5919C244.299 93.1963 243.855 93.7922 243.3 94.3795C242.754 94.9563 242.074 95.509 241.26 96.0375C241.205 95.9516 241.122 95.846 241.011 95.7208C240.899 95.605 240.779 95.4903 240.65 95.3769C240.529 95.2623 240.418 95.1698 240.317 95.0993C241.103 94.6398 241.755 94.1515 242.273 93.6344C242.791 93.1174 243.198 92.5918 243.495 92.0576C243.8 91.5222 244.022 90.9886 244.161 90.4568C244.299 89.9156 244.387 89.3859 244.424 88.8677C244.461 88.3401 244.48 87.8336 244.48 87.3483ZM263.672 85.2093L251.64 86.8135V85.6515L263.672 84.0473V85.2093ZM258.468 93.7152L257.066 93.902V84.102L258.468 83.9152V93.7152ZM253.972 91.1507L252.584 91.3357V87.5977L262.243 86.3099V87.4439L253.972 88.5467V91.1507ZM261.577 88.9047V86.3987L262.923 86.2192V88.7252C262.923 89.0145 262.886 89.2435 262.812 89.412C262.738 89.5712 262.59 89.7123 262.368 89.8352C262.164 89.9464 261.914 90.031 261.618 90.0891C261.322 90.1473 260.971 90.2035 260.563 90.2578C260.526 90.0854 260.462 89.912 260.369 89.7377C260.286 89.5621 260.207 89.4093 260.133 89.2791C260.392 89.2539 260.642 89.2253 260.883 89.1932C261.123 89.1611 261.28 89.1402 261.354 89.1303C261.438 89.1192 261.493 89.0978 261.521 89.0661C261.558 89.0332 261.577 88.9794 261.577 88.9047ZM257.205 89.0535L258.204 89.3263C257.76 90.0109 257.219 90.657 256.581 91.2648C255.942 91.8726 255.239 92.4237 254.471 92.918C253.713 93.4019 252.926 93.81 252.112 94.1426C252.057 94.038 251.983 93.9219 251.89 93.7942C251.798 93.6759 251.696 93.5588 251.585 93.4429C251.483 93.3258 251.386 93.2268 251.294 93.1458C252.089 92.8623 252.866 92.5114 253.625 92.0929C254.384 91.6651 255.073 91.1952 255.693 90.6832C256.312 90.1619 256.817 89.6187 257.205 89.0535ZM257.441 89.6941L258.149 88.9137C258.491 89.2881 258.963 89.6452 259.564 89.985C260.175 90.3236 260.873 90.6131 261.66 90.8536C262.455 91.0928 263.307 91.2407 264.213 91.2971C264.121 91.4028 264.019 91.533 263.908 91.6878C263.806 91.8414 263.704 91.995 263.603 92.1485C263.51 92.3102 263.436 92.4508 263.381 92.5702C262.492 92.4552 261.66 92.2489 260.883 91.9512C260.115 91.6429 259.435 91.2903 258.843 90.8932C258.26 90.4949 257.793 90.0952 257.441 89.6941ZM257.469 83.1524L253.111 83.7334V82.6134L257.469 82.0324V83.1524ZM263.866 82.2994L258.537 83.0099V81.8899L263.866 81.1794V82.2994ZM253.306 81.3415L254.555 81.5109C254.277 82.2199 253.93 82.9195 253.514 83.6097C253.098 84.2999 252.667 84.8892 252.223 85.3778C252.149 85.313 252.043 85.2432 251.904 85.1683C251.775 85.0923 251.64 85.0215 251.502 84.956C251.363 84.8905 251.238 84.8372 251.127 84.796C251.58 84.3435 251.997 83.812 252.376 83.2014C252.764 82.5803 253.074 81.9603 253.306 81.3415ZM258.773 80.6125L260.05 80.7502C259.8 81.4929 259.463 82.2099 259.037 82.9013C258.621 83.5821 258.186 84.1674 257.733 84.6572C257.649 84.5937 257.538 84.5245 257.399 84.4496C257.27 84.3642 257.136 84.2841 256.997 84.2093C256.858 84.1345 256.733 84.0764 256.622 84.0352C257.085 83.5909 257.506 83.0681 257.885 82.4669C258.264 81.8656 258.561 81.2475 258.773 80.6125ZM253.805 83.3889L254.902 82.8647C255.077 83.1119 255.253 83.3965 255.429 83.7184C255.614 84.0297 255.748 84.3011 255.831 84.5327L254.68 85.1203C254.615 84.8769 254.499 84.5937 254.333 84.2705C254.166 83.9474 253.99 83.6535 253.805 83.3889ZM259.689 82.5203L260.799 82.0223C261.003 82.2658 261.206 82.5467 261.41 82.8649C261.614 83.1831 261.762 83.462 261.854 83.7017L260.688 84.2631C260.605 84.0129 260.466 83.728 260.272 83.4086C260.078 83.0799 259.883 82.7838 259.689 82.5203ZM276.772 83.6586L269.917 84.5727V83.5087L276.772 82.5946V83.6586ZM276.772 85.6606L269.917 86.5747V85.5107L276.772 84.5966V85.6606ZM276.161 90.852L270.513 91.6051V90.5271L276.161 89.774V90.852ZM277.827 81.488L268.918 82.6759V81.5839L277.827 80.396V81.488ZM270.846 92.0507L269.722 92.2006V87.6086L276.925 86.6483V91.1983L275.759 91.3537V87.8817L270.846 88.5367V92.0507ZM272.095 79.3262L273.219 78.7423C273.414 78.9964 273.608 79.2832 273.802 79.6026C273.997 79.922 274.14 80.2016 274.233 80.4412L273.081 81.1128C272.988 80.8638 272.845 80.5749 272.651 80.2462C272.465 79.9068 272.28 79.6002 272.095 79.3262ZM268.029 79.5043L269.195 79.6989C268.927 80.5187 268.608 81.3405 268.238 82.1646C267.868 82.9886 267.465 83.7749 267.03 84.5235C266.605 85.2709 266.161 85.9415 265.698 86.5352C265.652 86.4387 265.587 86.3166 265.504 86.1691C265.43 86.0109 265.346 85.8587 265.254 85.7124C265.161 85.5567 265.074 85.4378 264.99 85.3555C265.397 84.8532 265.791 84.2875 266.17 83.6582C266.549 83.0197 266.896 82.3481 267.211 81.6435C267.534 80.9283 267.807 80.2152 268.029 79.5043ZM268.085 92.4749L266.878 92.6359V83.4099L268.071 82.0328L268.085 82.0449V92.4749ZM288.387 81.8439V80.9199L282.351 81.7248V82.6488L288.387 81.8439ZM288.387 83.7479V82.8099L282.351 83.6148V84.5528L288.387 83.7479ZM288.387 79.9399V79.0439L282.351 79.8488V80.7448L288.387 79.9399ZM289.719 84.5923L281.088 85.7432V78.9812L289.719 77.8303V84.5923ZM284.765 77.0629L286.333 77.0918C286.185 77.4195 286.028 77.7391 285.862 78.0507C285.704 78.361 285.561 78.6321 285.431 78.864L284.238 78.7712C284.34 78.5056 284.441 78.2167 284.543 77.9045C284.645 77.5922 284.719 77.3117 284.765 77.0629ZM282.059 88.6657V86.5377L283.378 86.3619V88.4759C283.378 88.6719 283.438 88.7899 283.558 88.8298C283.688 88.8686 283.96 88.8602 284.377 88.8047C284.46 88.7936 284.59 88.7763 284.765 88.7529C284.941 88.7294 285.145 88.7023 285.376 88.6714C285.607 88.6406 285.834 88.6104 286.056 88.5808C286.287 88.5499 286.5 88.5216 286.694 88.4957C286.889 88.4698 287.041 88.4494 287.152 88.4346C287.393 88.4025 287.568 88.3464 287.68 88.2663C287.8 88.1756 287.883 88.0152 287.929 87.785C287.976 87.5455 288.013 87.1952 288.04 86.7342C288.133 86.7965 288.248 86.8511 288.387 86.8979C288.535 86.9435 288.688 86.9792 288.845 87.0049C289.002 87.0306 289.137 87.0453 289.248 87.0492C289.201 87.6807 289.109 88.1737 288.97 88.5282C288.841 88.8815 288.637 89.1373 288.359 89.2956C288.091 89.4621 287.717 89.5774 287.235 89.6415C287.161 89.6514 287.023 89.6699 286.819 89.697C286.625 89.7229 286.398 89.7531 286.139 89.7877C285.889 89.821 285.635 89.8549 285.376 89.8894C285.117 89.924 284.886 89.9548 284.682 89.982C284.488 90.0079 284.354 90.0257 284.28 90.0356C283.697 90.1133 283.243 90.1224 282.92 90.0629C282.596 90.0128 282.369 89.875 282.24 89.6496C282.119 89.423 282.059 89.095 282.059 88.6657ZM284.266 85.7535L285.265 85.0462C285.496 85.2207 285.732 85.4179 285.973 85.6379C286.213 85.8578 286.431 86.0855 286.625 86.3209C286.828 86.5458 286.99 86.7529 287.111 86.9422L286.028 87.7445C285.926 87.5434 285.778 87.3251 285.584 87.0897C285.39 86.8543 285.177 86.6213 284.946 86.3908C284.714 86.151 284.488 85.9385 284.266 85.7535ZM288.942 85.7599L290.108 85.1145C290.321 85.3755 290.534 85.6644 290.746 85.9814C290.959 86.2983 291.144 86.6143 291.301 86.9294C291.468 87.2338 291.593 87.5205 291.676 87.7894L290.441 88.5001C290.367 88.2393 290.251 87.9514 290.094 87.6363C289.937 87.312 289.756 86.986 289.553 86.6585C289.359 86.3297 289.155 86.0302 288.942 85.7599ZM280.394 86.6477L281.546 86.9841C281.435 87.2976 281.305 87.6462 281.157 88.0299C281.009 88.4137 280.857 88.7887 280.699 89.155C280.542 89.5213 280.385 89.8503 280.227 90.1419L279.02 89.7289C279.196 89.4348 279.367 89.1133 279.534 88.7644C279.7 88.4062 279.857 88.0446 280.005 87.6795C280.163 87.3039 280.292 86.9599 280.394 86.6477Z" fill="url(#paint0_linear_14_87)"/>
</g>
<defs>
<filter id="filter0_d_14_87" x="0" y="0" width="455.87" height="191.395" filterUnits="userSpaceOnUse" color-interpolation-filters="sRGB">
<feFlood flood-opacity="0" result="BackgroundImageFix"/>
<feColorMatrix in="SourceAlpha" type="matrix" values="0 0 0 0 0 0 0 0 0 0 0 0 0 0 0 0 0 0 127 0" result="hardAlpha"/>
<feOffset dx="-16" dy="8"/>
<feGaussianBlur stdDeviation="16"/>
<feComposite in2="hardAlpha" operator="out"/>
<feColorMatrix type="matrix" values="0 0 0 0 0.054221 0 0 0 0 0.0599108 0 0 0 0 0.0826698 0 0 0 0.5 0"/>
<feBlend mode="normal" in2="BackgroundImageFix" result="effect1_dropShadow_14_87"/>
<feBlend mode="normal" in="SourceGraphic" in2="effect1_dropShadow_14_87" result="shape"/>
</filter>
<clipPath id="bgblur_0_14_87_clip_path" transform="translate(-42 -18)"><rect x="0.495614" y="0.433918" width="394.338" height="76.1187" rx="7.5" transform="matrix(0.991228 -0.132164 0 1 48.0043 75.3282)"/>
</clipPath><linearGradient id="paint0_linear_14_87" x1="48" y1="116.822" x2="439.87" y2="116.822" gradientUnits="userSpaceOnUse">
<stop stop-color="#97AAFF"/>
<stop offset="1" stop-color="#4F7EFE"/>
</linearGradient>
</defs>
</svg>
