<svg width="535" height="293" viewBox="0 0 535 293" fill="none" xmlns="http://www.w3.org/2000/svg">
<rect x="0.495614" y="0.433918" width="510.016" height="204.932" rx="23.5" transform="matrix(0.991228 -0.132164 0 1 19.665 87.0552)" fill="#222635" fill-opacity="0.7" stroke="#2E354F"/>
<g filter="url(#filter0_d_14_75)">
<foreignObject x="36" y="55.7607" width="357.575" height="110.63"><div xmlns="http://www.w3.org/1999/xhtml" style="backdrop-filter:blur(2px);clip-path:url(#bgblur_0_14_75_clip_path);height:100%;width:100%"></div></foreignObject><rect data-figma-bg-blur-radius="4" x="0.495717" y="0.434699" width="351.595" height="58.0203" rx="9.5" transform="matrix(0.991435 -0.130603 0 1 40.0042 104.655)" fill="#222635" fill-opacity="0.7" stroke="#2E354F"/>
<path d="M187.749 117.241L187.486 116.366C188.032 116.135 188.689 115.848 189.457 115.504C190.234 115.159 191.02 114.804 191.816 114.437L191.955 115.287C191.224 115.626 190.488 115.97 189.748 116.32C189.008 116.66 188.341 116.967 187.749 117.241ZM191.927 111.959L187.61 112.527V111.645L191.927 111.077V111.959ZM189.429 120.24V108.592L190.331 108.473V120.121C190.331 120.392 190.294 120.607 190.22 120.766C190.146 120.925 190.03 121.057 189.873 121.161C189.706 121.258 189.484 121.334 189.207 121.389C188.938 121.453 188.582 121.509 188.138 121.558C188.119 121.448 188.082 121.309 188.027 121.139C187.981 120.977 187.92 120.831 187.846 120.7C188.161 120.668 188.439 120.636 188.679 120.605C188.929 120.572 189.096 120.545 189.179 120.525C189.262 120.514 189.322 120.487 189.359 120.445C189.406 120.411 189.429 120.343 189.429 120.24ZM199.742 113.393L193.315 114.24V113.4L199.742 112.553V113.393ZM199.742 116.193L193.329 117.038V116.198L199.742 115.353V116.193ZM200.241 118.998L193.343 119.906V119.038L200.241 118.13V118.998ZM193.995 108.06L194.884 108.181C194.634 108.952 194.347 109.717 194.023 110.479C193.708 111.229 193.366 111.942 192.996 112.616C192.626 113.29 192.237 113.897 191.83 114.436C191.775 114.387 191.705 114.326 191.622 114.253C191.539 114.18 191.451 114.108 191.358 114.036C191.266 113.964 191.187 113.904 191.122 113.857C191.52 113.366 191.899 112.807 192.26 112.181C192.621 111.555 192.95 110.891 193.246 110.189C193.542 109.487 193.792 108.778 193.995 108.06ZM193.01 111.382L193.718 110.547L193.898 110.523L199.964 109.724V110.578L193.898 111.377V120.827L193.01 120.944V111.382ZM197.243 118.987L196.355 119.104V110.662L197.243 110.545V118.987ZM195.925 108.156L196.73 107.742C196.943 108.031 197.146 108.355 197.34 108.712C197.544 109.068 197.692 109.384 197.785 109.661L196.938 110.137C196.855 109.858 196.716 109.536 196.521 109.17C196.327 108.794 196.128 108.456 195.925 108.156ZM213.885 110.088L201.768 111.684V110.83L213.885 109.234V110.088ZM212.386 112.302L206.626 113.06V112.276L212.386 111.518V112.302ZM214.08 114.963L205.599 116.08V115.254L214.08 114.137V114.963ZM206.251 108.924L207.126 109.047C206.543 110.505 205.807 111.862 204.919 113.117C204.031 114.373 203.05 115.45 201.976 116.347C201.939 116.287 201.879 116.215 201.796 116.133C201.713 116.05 201.629 115.968 201.546 115.886C201.463 115.803 201.389 115.743 201.324 115.705C202.388 114.874 203.346 113.871 204.197 112.694C205.048 111.518 205.733 110.261 206.251 108.924ZM209.458 117.727V113.765L210.346 113.648V117.624C210.346 117.876 210.309 118.073 210.235 118.213C210.17 118.352 210.045 118.471 209.86 118.57C209.666 118.661 209.398 118.734 209.055 118.789C208.722 118.842 208.296 118.902 207.778 118.971C207.76 118.852 207.718 118.722 207.653 118.581C207.598 118.448 207.538 118.326 207.473 118.213C207.88 118.169 208.241 118.126 208.556 118.084C208.879 118.042 209.092 118.014 209.194 118C209.296 117.977 209.365 117.945 209.402 117.903C209.439 117.87 209.458 117.811 209.458 117.727ZM212.081 111.726V111.558L212.289 111.53L212.47 111.451L213.053 111.822C212.636 112.269 212.146 112.707 211.581 113.136C211.017 113.555 210.466 113.922 209.93 114.235C209.883 114.157 209.809 114.074 209.708 113.985C209.606 113.895 209.523 113.822 209.458 113.765C209.772 113.584 210.096 113.378 210.429 113.147C210.762 112.908 211.072 112.666 211.359 112.423C211.655 112.169 211.896 111.937 212.081 111.726ZM205.793 109.614L204.891 109.733V106.555L205.793 106.436V109.614ZM210.776 108.958L209.874 109.077V105.899L210.776 105.78V108.958ZM214.038 107.324L201.643 108.957V108.103L214.038 106.47V107.324ZM204.586 119.433L203.698 119.55V113.656L204.364 112.897L204.586 112.937V119.433ZM215.759 114.083C215.695 114.148 215.662 114.208 215.662 114.264C215.644 114.192 215.616 114.102 215.579 113.995C215.542 113.888 215.5 113.777 215.454 113.662C215.417 113.545 215.38 113.452 215.343 113.382C215.5 113.334 215.662 113.219 215.829 113.038C216.005 112.847 216.203 112.611 216.426 112.33C216.555 112.191 216.736 111.962 216.967 111.642C217.198 111.322 217.457 110.948 217.744 110.518C218.04 110.087 218.336 109.623 218.632 109.127C218.929 108.631 219.202 108.128 219.451 107.619L220.312 108.024C219.72 109.044 219.081 110.048 218.397 111.034C217.712 112.011 217.022 112.881 216.328 113.644V113.672C216.328 113.672 216.296 113.691 216.231 113.727C216.166 113.764 216.088 113.816 215.995 113.884C215.903 113.943 215.824 114.01 215.759 114.083ZM215.662 114.264L215.62 113.472L216.134 113.068L220.284 111.821C220.284 111.952 220.289 112.096 220.298 112.253C220.307 112.411 220.321 112.54 220.34 112.64C219.368 112.945 218.586 113.193 217.994 113.383C217.411 113.572 216.962 113.72 216.648 113.826C216.342 113.932 216.12 114.017 215.981 114.082C215.843 114.147 215.736 114.208 215.662 114.264ZM215.662 110.708C215.597 110.773 215.565 110.833 215.565 110.889C215.546 110.817 215.519 110.727 215.482 110.62C215.445 110.503 215.403 110.388 215.357 110.272C215.32 110.156 215.278 110.059 215.232 109.981C215.361 109.936 215.491 109.83 215.62 109.664C215.75 109.488 215.884 109.279 216.023 109.037C216.106 108.914 216.222 108.716 216.37 108.445C216.518 108.164 216.685 107.834 216.87 107.455C217.055 107.067 217.24 106.66 217.425 106.234C217.61 105.799 217.772 105.367 217.911 104.938L218.868 105.218C218.619 105.811 218.35 106.411 218.063 107.018C217.777 107.616 217.476 108.192 217.161 108.747C216.847 109.292 216.532 109.791 216.217 110.243V110.271C216.217 110.271 216.185 110.294 216.12 110.34C216.055 110.386 215.977 110.443 215.884 110.511C215.801 110.569 215.727 110.634 215.662 110.708ZM215.565 110.889L215.551 110.163L216.037 109.805L218.966 109.153C218.938 109.269 218.915 109.407 218.896 109.568C218.887 109.719 218.887 109.845 218.896 109.946C218.23 110.109 217.689 110.245 217.272 110.356C216.865 110.456 216.546 110.54 216.315 110.608C216.083 110.676 215.912 110.731 215.801 110.774C215.699 110.815 215.62 110.854 215.565 110.889ZM215.468 117.174L215.301 116.23C215.727 116.099 216.208 115.947 216.745 115.774C217.291 115.59 217.869 115.397 218.48 115.195C219.091 114.984 219.701 114.773 220.312 114.562L220.381 115.421C219.521 115.739 218.656 116.049 217.786 116.35C216.916 116.652 216.143 116.926 215.468 117.174ZM227.849 106.331L220.451 107.305V106.409L227.849 105.435V106.331ZM227.613 109.554L220.798 110.452V109.556L227.613 108.658V109.554ZM226.78 115.894L221.658 116.568V115.7L226.78 115.026V115.894ZM224.656 109.509L223.699 109.636V104.064L224.656 103.937V109.509ZM222.061 117.117L221.159 117.236V111.916L227.266 111.112V116.376L226.336 116.498V112.088L222.061 112.651V117.117ZM241.687 110.01L229.542 111.61V110.742L241.687 109.142V110.01ZM236.094 115.269L235.122 115.397V103.553L236.094 103.425V115.269ZM234.761 110.404L235.538 110.652C235.113 111.305 234.585 111.944 233.956 112.568C233.327 113.193 232.656 113.766 231.943 114.289C231.24 114.811 230.542 115.253 229.848 115.616C229.801 115.547 229.741 115.466 229.667 115.373C229.593 115.29 229.514 115.207 229.431 115.124C229.348 115.051 229.269 114.987 229.195 114.931C229.713 114.686 230.236 114.398 230.764 114.067C231.3 113.735 231.814 113.368 232.304 112.968C232.804 112.566 233.262 112.146 233.678 111.709C234.104 111.27 234.465 110.835 234.761 110.404ZM235.663 110.593L236.399 110.16C236.714 110.502 237.084 110.831 237.509 111.148C237.944 111.464 238.412 111.757 238.911 112.028C239.42 112.287 239.943 112.517 240.48 112.717C241.016 112.908 241.535 113.054 242.034 113.156C241.97 113.23 241.896 113.319 241.812 113.423C241.729 113.528 241.65 113.631 241.576 113.734C241.502 113.847 241.442 113.948 241.396 114.038C240.887 113.9 240.364 113.717 239.827 113.489C239.3 113.26 238.782 112.997 238.273 112.7C237.764 112.393 237.283 112.065 236.829 111.714C236.385 111.352 235.996 110.979 235.663 110.593ZM239.425 107.368V105.814L231.846 106.812V108.366L239.425 107.368ZM239.425 105.03V103.504L231.846 104.502V106.028L239.425 105.03ZM240.41 108.064L230.889 109.318V103.802L240.41 102.548V108.064Z" fill="#919DD8" fill-opacity="0.6"/>
</g>
<g filter="url(#filter2_d_14_75)">
<foreignObject x="34" y="122.324" width="361.575" height="103.688"><div xmlns="http://www.w3.org/1999/xhtml" style="backdrop-filter:blur(3px);clip-path:url(#bgblur_1_14_75_clip_path);height:100%;width:100%"></div></foreignObject><rect data-figma-bg-blur-radius="6" x="0.495717" y="0.434699" width="351.595" height="46.5906" rx="7.5" transform="matrix(0.991435 -0.130603 0 1 40.0042 173.463)" fill="#222635" fill-opacity="0.7" stroke="#2E354F"/>
<path d="M189.137 184.069L188.263 184.184V172.116L194.689 171.269V172.109L189.137 172.841V184.069ZM194.287 182.046V171.322L195.133 171.211V181.935C195.133 182.206 195.096 182.416 195.022 182.565C194.948 182.715 194.814 182.845 194.62 182.954C194.444 183.043 194.19 183.119 193.857 183.181C193.533 183.242 193.107 183.308 192.58 183.377C192.561 183.268 192.519 183.133 192.455 182.974C192.399 182.822 192.339 182.695 192.274 182.591C192.672 182.548 193.028 182.506 193.343 182.465C193.667 182.422 193.88 182.394 193.981 182.381C194.185 182.344 194.287 182.233 194.287 182.046ZM189.581 174.532L190.248 174.108C190.581 174.597 190.919 175.121 191.261 175.683C191.613 176.234 191.946 176.792 192.26 177.357C192.575 177.923 192.862 178.468 193.121 178.994C193.38 179.52 193.593 179.996 193.759 180.422L193.065 180.905C192.899 180.47 192.686 179.985 192.427 179.449C192.168 178.914 191.881 178.364 191.566 177.799C191.252 177.224 190.923 176.661 190.581 176.109C190.248 175.546 189.915 175.02 189.581 174.532ZM192.871 173.035L193.634 173.074C193.338 174.224 193.001 175.36 192.621 176.484C192.251 177.597 191.844 178.654 191.4 179.655C190.956 180.647 190.484 181.539 189.984 182.333C189.938 182.293 189.873 182.25 189.79 182.205C189.706 182.16 189.618 182.115 189.526 182.072C189.433 182.028 189.355 181.996 189.29 181.977C189.79 181.211 190.262 180.346 190.706 179.382C191.15 178.409 191.552 177.381 191.913 176.297C192.274 175.204 192.593 174.117 192.871 173.035ZM198.881 181.595V170.269L199.756 170.154V181.48C199.756 181.769 199.714 181.994 199.631 182.154C199.547 182.315 199.409 182.45 199.214 182.559C199.029 182.649 198.765 182.726 198.423 182.79C198.081 182.863 197.623 182.937 197.049 183.013C197.03 182.894 196.993 182.754 196.938 182.593C196.882 182.432 196.822 182.296 196.757 182.183C197.183 182.136 197.563 182.091 197.896 182.047C198.229 182.003 198.451 181.969 198.562 181.945C198.682 181.929 198.765 181.895 198.812 181.842C198.858 181.799 198.881 181.716 198.881 181.595ZM197.41 179.521L196.577 179.631V171.833L197.41 171.723V179.521ZM212.914 169.513L202.795 170.846V170.076L212.914 168.743V169.513ZM213.913 175.583L201.824 177.176V176.406L213.913 174.813V175.583ZM206.598 173.397L203.573 173.795V173.151L206.598 172.753V173.397ZM206.598 174.881L203.281 175.318V174.66L206.598 174.223V174.881ZM212.456 174.109L209.014 174.562V173.904L212.456 173.451V174.109ZM212.123 172.669L209.014 173.078V172.434L212.123 172.025V172.669ZM208.264 175.067L207.362 175.186V169.768L208.264 169.649V175.067ZM206.834 181.695L205.974 181.809V178.169L206.834 178.055V181.695ZM209.93 181.288L209.069 181.401V177.761L209.93 177.648V181.288ZM202.865 174.378L202.004 174.492V171.818L213.705 170.276V172.95L212.831 173.066V171.092L202.865 172.404V174.378ZM203.809 182.178L202.92 182.295V178.095L212.47 176.837V177.621L203.809 178.762V182.178ZM212.22 180.118V176.87L213.122 176.751V180.013C213.122 180.237 213.094 180.414 213.039 180.542C212.983 180.68 212.872 180.793 212.706 180.88C212.548 180.975 212.336 181.045 212.067 181.09C211.808 181.134 211.489 181.18 211.109 181.23C211.091 181.121 211.049 180.996 210.985 180.855C210.929 180.713 210.869 180.59 210.804 180.487C211.1 180.457 211.359 180.427 211.581 180.398C211.803 180.369 211.952 180.345 212.026 180.326C212.109 180.315 212.16 180.294 212.178 180.264C212.206 180.232 212.22 180.183 212.22 180.118ZM207.362 175.956L208.375 175.879C208.255 176.249 208.125 176.625 207.986 177.008C207.848 177.381 207.723 177.7 207.612 177.967L206.793 177.977C206.904 177.692 207.01 177.356 207.112 176.969C207.223 176.581 207.306 176.243 207.362 175.956ZM226.794 171.45L220.09 172.333V171.549L226.794 170.666V171.45ZM226.794 173.424L220.09 174.307V173.523L226.794 172.64V173.424ZM226.419 178.64L220.451 179.426V178.642L226.419 177.856V178.64ZM227.904 169.33L219.091 170.491V169.693L227.904 168.532V169.33ZM220.728 179.963L219.909 180.071V175.591L226.933 174.666V179.104L226.086 179.215V175.561L220.728 176.267V179.963ZM222.297 167.255L223.116 166.825C223.319 167.078 223.514 167.365 223.699 167.686C223.893 167.996 224.036 168.271 224.129 168.511L223.282 169.001C223.19 168.761 223.051 168.476 222.866 168.146C222.681 167.815 222.491 167.518 222.297 167.255ZM218.397 167.488L219.229 167.631C218.961 168.45 218.646 169.266 218.285 170.079C217.925 170.883 217.531 171.648 217.106 172.376C216.68 173.104 216.24 173.764 215.787 174.356C215.759 174.285 215.713 174.203 215.648 174.108C215.583 174.005 215.514 173.902 215.44 173.8C215.375 173.696 215.311 173.612 215.246 173.545C215.671 173.032 216.079 172.446 216.467 171.789C216.856 171.131 217.212 170.435 217.536 169.702C217.869 168.967 218.156 168.229 218.397 167.488ZM218.022 180.362L217.161 180.475V171.263L218.008 170.298L218.022 170.31V180.362ZM238.897 169.954V168.75L232.277 169.622V170.826L238.897 169.954ZM238.897 171.914V170.696L232.277 171.568V172.786L238.897 171.914ZM238.897 168.022V166.818L232.277 167.69V168.894L238.897 168.022ZM239.813 172.563L231.388 173.673V167.037L239.813 165.927V172.563ZM235.191 165.094L236.26 165.149C236.121 165.466 235.973 165.78 235.816 166.09C235.659 166.39 235.515 166.652 235.386 166.874L234.567 166.786C234.678 166.538 234.794 166.252 234.914 165.929C235.034 165.605 235.127 165.327 235.191 165.094ZM232.332 176.867V174.529L233.262 174.406V176.73C233.262 176.926 233.327 177.044 233.456 177.083C233.586 177.121 233.877 177.111 234.331 177.051C234.414 177.04 234.558 177.021 234.761 176.995C234.965 176.968 235.201 176.937 235.469 176.901C235.737 176.866 236.006 176.831 236.274 176.795C236.552 176.759 236.802 176.726 237.024 176.697C237.246 176.667 237.412 176.645 237.523 176.631C237.782 176.597 237.972 176.534 238.092 176.444C238.222 176.352 238.31 176.187 238.356 175.947C238.402 175.708 238.439 175.343 238.467 174.854C238.541 174.901 238.629 174.94 238.731 174.974C238.833 175.007 238.934 175.036 239.036 175.059C239.147 175.082 239.249 175.097 239.342 175.103C239.295 175.688 239.217 176.142 239.106 176.464C239.004 176.795 238.833 177.032 238.592 177.176C238.361 177.328 238.028 177.432 237.593 177.49C237.519 177.499 237.371 177.519 237.149 177.548C236.926 177.577 236.667 177.612 236.371 177.651C236.084 177.688 235.793 177.727 235.497 177.766C235.201 177.805 234.942 177.839 234.719 177.868C234.497 177.897 234.354 177.916 234.289 177.925C233.78 177.992 233.382 178.007 233.096 177.97C232.809 177.943 232.61 177.838 232.499 177.657C232.388 177.475 232.332 177.212 232.332 176.867ZM234.497 173.697L235.205 173.184C235.446 173.358 235.691 173.559 235.941 173.787C236.2 174.005 236.431 174.231 236.635 174.466C236.848 174.69 237.019 174.896 237.149 175.084L236.399 175.659C236.279 175.46 236.112 175.249 235.899 175.025C235.696 174.79 235.469 174.559 235.219 174.33C234.979 174.091 234.738 173.88 234.497 173.697ZM239.3 173.751L240.133 173.291C240.355 173.542 240.572 173.821 240.785 174.129C240.998 174.437 241.188 174.739 241.354 175.034C241.53 175.328 241.66 175.601 241.743 175.851L240.868 176.358C240.794 176.107 240.674 175.833 240.507 175.538C240.341 175.233 240.151 174.927 239.938 174.619C239.735 174.3 239.522 174.011 239.3 173.751ZM230.778 174.747L231.569 174.979C231.448 175.284 231.314 175.624 231.166 175.998C231.018 176.363 230.861 176.724 230.694 177.082C230.528 177.44 230.357 177.766 230.181 178.06L229.334 177.766C229.528 177.488 229.713 177.17 229.889 176.81C230.065 176.451 230.227 176.094 230.375 175.738C230.532 175.372 230.667 175.042 230.778 174.747Z" fill="#919DD8" fill-opacity="0.6"/>
</g>
<g filter="url(#filter4_d_14_75)">
<foreignObject x="397.558" y="34" width="118.724" height="195.93"><div xmlns="http://www.w3.org/1999/xhtml" style="backdrop-filter:blur(3px);clip-path:url(#bgblur_2_14_75_clip_path);height:100%;width:100%"></div></foreignObject><rect data-figma-bg-blur-radius="6" x="0.495614" y="0.433918" width="106.669" height="171.66" rx="11.5" transform="matrix(0.991228 -0.132164 0 1 403.562 52.8155)" fill="#222635" fill-opacity="0.7" stroke="#2E354F"/>
<path d="M429.957 139.628L429.707 138.751C430.197 138.527 430.785 138.244 431.469 137.9C432.154 137.557 432.852 137.203 433.565 136.837L433.717 137.657C433.061 137.996 432.404 138.341 431.747 138.689C431.09 139.038 430.493 139.351 429.957 139.628ZM433.634 134.462L429.832 134.969V134.087L433.634 133.58V134.462ZM431.428 142.75V131.032L432.302 130.915V142.619C432.302 142.862 432.27 143.058 432.205 143.206C432.149 143.354 432.052 143.469 431.913 143.553C431.765 143.648 431.576 143.72 431.344 143.769C431.122 143.827 430.836 143.879 430.484 143.926C430.466 143.807 430.429 143.667 430.373 143.507C430.327 143.354 430.271 143.222 430.207 143.109C430.447 143.086 430.66 143.062 430.845 143.038C431.039 143.012 431.169 142.995 431.233 142.986C431.363 142.969 431.428 142.89 431.428 142.75ZM439.726 132.81V131.228L436.396 131.672V133.254L439.726 132.81ZM440.587 133.423L435.577 134.091V131.067L440.587 130.399V133.423ZM436.868 136.971V135.277L434.911 135.538V137.232L436.868 136.971ZM437.631 137.583L434.162 138.046V134.924L437.631 134.461V137.583ZM441.239 136.388V134.694L439.227 134.962V136.656L441.239 136.388ZM442.03 136.996L438.463 137.472V134.35L442.03 133.874V136.996ZM442.349 138.858L433.898 139.985V139.187L442.349 138.06V138.858ZM438.491 142.928L437.603 143.047V137.601L438.491 137.482V142.928ZM437.367 139.046L438.103 139.256C437.779 139.775 437.372 140.287 436.881 140.791C436.4 141.294 435.873 141.756 435.299 142.178C434.735 142.598 434.171 142.949 433.606 143.23C433.532 143.127 433.435 143.01 433.315 142.876C433.204 142.751 433.102 142.653 433.01 142.581C433.565 142.33 434.12 142.018 434.675 141.645C435.23 141.263 435.744 140.854 436.215 140.418C436.687 139.972 437.071 139.515 437.367 139.046ZM438.117 139.324L438.797 138.954C439.074 139.29 439.416 139.608 439.823 139.909C440.231 140.209 440.67 140.472 441.142 140.699C441.623 140.924 442.095 141.09 442.557 141.196C442.492 141.261 442.418 141.341 442.335 141.436C442.261 141.53 442.187 141.628 442.113 141.731C442.048 141.833 441.993 141.925 441.947 142.006C441.484 141.853 441.012 141.645 440.531 141.382C440.05 141.11 439.597 140.797 439.171 140.444C438.755 140.088 438.403 139.715 438.117 139.324ZM456.365 130.955L449.357 131.889L449.787 130.936L456.365 130.059V130.955ZM456.046 133.994L451.508 134.599V133.731L456.046 133.126V133.994ZM456.24 137.076L451.508 137.707V136.825L456.24 136.194V137.076ZM451.994 141.1L451.05 141.226V131.062L451.994 130.936V141.1ZM450.37 128.674L451.258 128.794C450.999 129.566 450.699 130.329 450.356 131.084C450.014 131.839 449.639 132.556 449.232 133.236C448.834 133.905 448.423 134.511 447.997 135.053C447.951 135.003 447.881 134.947 447.789 134.885C447.706 134.812 447.618 134.739 447.525 134.668C447.433 134.596 447.35 134.542 447.275 134.505C447.701 134.01 448.104 133.447 448.483 132.818C448.862 132.189 449.214 131.521 449.537 130.815C449.861 130.1 450.139 129.387 450.37 128.674ZM447.081 128.987L447.969 129.148C447.673 129.972 447.322 130.798 446.915 131.627C446.508 132.456 446.068 133.238 445.596 133.973C445.125 134.708 444.634 135.37 444.125 135.961C444.098 135.89 444.051 135.803 443.987 135.7C443.922 135.587 443.852 135.475 443.778 135.363C443.704 135.252 443.635 135.163 443.57 135.097C444.042 134.577 444.495 133.989 444.93 133.334C445.365 132.669 445.763 131.967 446.124 131.229C446.494 130.489 446.813 129.741 447.081 128.987ZM446.526 141.815L445.596 141.939V132.755L446.512 131.695L446.526 131.721V141.815ZM470.214 132.23L461.86 133.344V132.49L470.214 131.376V132.23ZM467.73 132.226L468.73 132.162C468.508 133.499 468.133 134.641 467.606 135.588C467.088 136.525 466.398 137.327 465.538 137.992C464.677 138.657 463.623 139.241 462.374 139.744C462.346 139.673 462.304 139.59 462.249 139.495C462.203 139.407 462.147 139.312 462.082 139.209C462.018 139.115 461.958 139.043 461.902 138.995C463.077 138.558 464.067 138.043 464.872 137.451C465.677 136.858 466.31 136.139 466.773 135.293C467.245 134.437 467.564 133.415 467.73 132.226ZM462.735 135.622L463.359 134.937C463.933 135.131 464.534 135.354 465.163 135.606C465.802 135.857 466.426 136.124 467.037 136.406C467.647 136.679 468.221 136.958 468.757 137.241C469.294 137.515 469.747 137.771 470.117 138.011L469.451 138.828C469.09 138.578 468.646 138.31 468.119 138.026C467.601 137.75 467.037 137.466 466.426 137.174C465.815 136.882 465.196 136.605 464.566 136.344C463.937 136.073 463.327 135.832 462.735 135.622ZM465.191 126.656L466.107 126.338C466.246 126.665 466.38 127.02 466.509 127.404C466.639 127.779 466.736 128.107 466.801 128.388L465.829 128.727C465.783 128.435 465.695 128.096 465.566 127.712C465.436 127.328 465.311 126.976 465.191 126.656ZM463.637 135.809L462.735 135.622C462.947 135.248 463.165 134.822 463.387 134.345C463.609 133.858 463.826 133.353 464.039 132.83C464.261 132.306 464.46 131.784 464.636 131.266C464.821 130.738 464.978 130.241 465.108 129.775L466.051 129.804C465.866 130.463 465.635 131.161 465.357 131.898C465.08 132.626 464.789 133.332 464.483 134.017C464.187 134.7 463.905 135.298 463.637 135.809ZM463.123 131.314L462.235 131.432V128.744L470.02 127.706V130.366L469.118 130.487V128.667L463.123 129.466V131.314ZM457.586 136.378L457.364 135.498C457.762 135.333 458.211 135.142 458.71 134.926C459.219 134.7 459.756 134.46 460.32 134.208C460.884 133.955 461.449 133.707 462.013 133.464L462.152 134.285C461.356 134.662 460.556 135.035 459.751 135.404C458.955 135.762 458.234 136.087 457.586 136.378ZM461.86 130.698L457.517 131.277V130.395L461.86 129.816V130.698ZM459.418 139.018V127.3L460.334 127.178V138.882C460.334 139.162 460.297 139.377 460.223 139.527C460.149 139.677 460.024 139.801 459.848 139.899C459.682 139.995 459.455 140.072 459.168 140.129C458.881 140.196 458.507 140.255 458.044 140.307C458.035 140.196 458.003 140.061 457.947 139.9C457.892 139.749 457.831 139.612 457.767 139.49C458.09 139.456 458.382 139.422 458.641 139.388C458.9 139.353 459.076 139.33 459.168 139.317C459.261 139.305 459.326 139.273 459.363 139.221C459.4 139.179 459.418 139.111 459.418 139.018ZM482.926 125.748L476.709 126.577V125.709L482.926 124.88V125.748ZM482.551 130.754L476.806 131.52V130.624L482.551 129.858V130.754ZM484.078 136.444L475.821 137.545V136.621L484.078 135.52V136.444ZM482.551 124.944L483.467 124.821C483.43 125.536 483.384 126.303 483.328 127.122C483.273 127.932 483.213 128.757 483.148 129.596C483.083 130.435 483.019 131.261 482.954 132.072C482.889 132.874 482.82 133.634 482.746 134.354C482.681 135.062 482.616 135.696 482.551 136.256L481.608 136.381C481.682 135.812 481.756 135.167 481.83 134.448C481.904 133.719 481.978 132.949 482.052 132.136C482.126 131.324 482.191 130.503 482.246 129.674C482.311 128.835 482.366 128.016 482.413 127.216C482.468 126.406 482.514 125.648 482.551 124.944ZM479.249 125.79L480.192 125.664C480.127 126.363 480.053 127.111 479.97 127.906C479.887 128.701 479.794 129.511 479.693 130.337C479.6 131.152 479.503 131.953 479.401 132.742C479.309 133.519 479.216 134.26 479.124 134.963C479.031 135.656 478.943 136.275 478.86 136.818L477.916 136.944C478.009 136.381 478.106 135.747 478.208 135.043C478.31 134.338 478.407 133.593 478.499 132.806C478.601 132.008 478.698 131.202 478.791 130.387C478.883 129.572 478.966 128.777 479.04 128.002C479.124 127.216 479.193 126.479 479.249 125.79ZM473.073 125.465L473.906 125.592C473.749 126.164 473.554 126.736 473.323 127.308C473.101 127.87 472.851 128.407 472.574 128.92C472.296 129.424 472 129.878 471.685 130.284C471.658 130.223 471.611 130.14 471.547 130.037C471.491 129.932 471.431 129.833 471.366 129.739C471.302 129.636 471.237 129.555 471.172 129.499C471.579 128.969 471.945 128.355 472.268 127.659C472.601 126.952 472.87 126.22 473.073 125.465ZM476.376 127.573L472.685 128.065L472.879 127.157L476.376 126.691V127.573ZM473.365 138.18L473.24 137.329L473.559 136.881L476.085 135.06C476.103 135.169 476.135 135.3 476.182 135.453C476.237 135.604 476.283 135.724 476.32 135.812C475.719 136.266 475.238 136.633 474.877 136.915C474.516 137.187 474.234 137.402 474.031 137.56C473.836 137.726 473.688 137.853 473.587 137.941C473.494 138.028 473.42 138.108 473.365 138.18ZM476.043 130.039L472.185 130.554V129.714L476.043 129.199V130.039ZM476.445 132.856L471.491 133.516V132.662L476.445 132.002V132.856ZM473.476 137.9C473.402 138.012 473.365 138.106 473.365 138.18C473.337 138.119 473.291 138.05 473.226 137.975C473.17 137.898 473.11 137.822 473.045 137.747C472.99 137.68 472.934 137.622 472.879 137.573C472.962 137.506 473.059 137.404 473.17 137.268C473.281 137.132 473.378 136.97 473.462 136.781C473.554 136.592 473.601 136.385 473.601 136.161V129.763L474.447 129.65V136.79C474.447 136.79 474.41 136.828 474.336 136.903C474.262 136.969 474.174 137.055 474.072 137.162C473.971 137.278 473.864 137.4 473.753 137.527C473.642 137.663 473.55 137.787 473.476 137.9Z" fill="#919DD8" fill-opacity="0.6"/>
</g>
<defs>
<filter id="filter0_d_14_75" x="0" y="19.7607" width="413.575" height="166.63" filterUnits="userSpaceOnUse" color-interpolation-filters="sRGB">
<feFlood flood-opacity="0" result="BackgroundImageFix"/>
<feColorMatrix in="SourceAlpha" type="matrix" values="0 0 0 0 0 0 0 0 0 0 0 0 0 0 0 0 0 0 127 0" result="hardAlpha"/>
<feOffset dx="-8" dy="-8"/>
<feGaussianBlur stdDeviation="16"/>
<feComposite in2="hardAlpha" operator="out"/>
<feColorMatrix type="matrix" values="0 0 0 0 0.0962703 0 0 0 0 0.105344 0 0 0 0 0.141639 0 0 0 0.3 0"/>
<feBlend mode="normal" in2="BackgroundImageFix" result="effect1_dropShadow_14_75"/>
<feBlend mode="normal" in="SourceGraphic" in2="effect1_dropShadow_14_75" result="shape"/>
</filter>
<clipPath id="bgblur_0_14_75_clip_path" transform="translate(-36 -55.7607)"><rect x="0.495717" y="0.434699" width="351.595" height="58.0203" rx="9.5" transform="matrix(0.991435 -0.130603 0 1 40.0042 104.655)"/>
</clipPath><filter id="filter2_d_14_75" x="0" y="88.3242" width="413.575" height="155.688" filterUnits="userSpaceOnUse" color-interpolation-filters="sRGB">
<feFlood flood-opacity="0" result="BackgroundImageFix"/>
<feColorMatrix in="SourceAlpha" type="matrix" values="0 0 0 0 0 0 0 0 0 0 0 0 0 0 0 0 0 0 127 0" result="hardAlpha"/>
<feOffset dx="-8" dy="-8"/>
<feGaussianBlur stdDeviation="16"/>
<feComposite in2="hardAlpha" operator="out"/>
<feColorMatrix type="matrix" values="0 0 0 0 0.0962703 0 0 0 0 0.105344 0 0 0 0 0.141639 0 0 0 0.3 0"/>
<feBlend mode="normal" in2="BackgroundImageFix" result="effect1_dropShadow_14_75"/>
<feBlend mode="normal" in="SourceGraphic" in2="effect1_dropShadow_14_75" result="shape"/>
</filter>
<clipPath id="bgblur_1_14_75_clip_path" transform="translate(-34 -122.324)"><rect x="0.495717" y="0.434699" width="351.595" height="46.5906" rx="7.5" transform="matrix(0.991435 -0.130603 0 1 40.0042 173.463)"/>
</clipPath><filter id="filter4_d_14_75" x="363.558" y="0" width="170.724" height="247.93" filterUnits="userSpaceOnUse" color-interpolation-filters="sRGB">
<feFlood flood-opacity="0" result="BackgroundImageFix"/>
<feColorMatrix in="SourceAlpha" type="matrix" values="0 0 0 0 0 0 0 0 0 0 0 0 0 0 0 0 0 0 127 0" result="hardAlpha"/>
<feOffset dx="-8" dy="-8"/>
<feGaussianBlur stdDeviation="16"/>
<feComposite in2="hardAlpha" operator="out"/>
<feColorMatrix type="matrix" values="0 0 0 0 0.0962703 0 0 0 0 0.105344 0 0 0 0 0.141639 0 0 0 0.3 0"/>
<feBlend mode="normal" in2="BackgroundImageFix" result="effect1_dropShadow_14_75"/>
<feBlend mode="normal" in="SourceGraphic" in2="effect1_dropShadow_14_75" result="shape"/>
</filter>
<clipPath id="bgblur_2_14_75_clip_path" transform="translate(-397.558 -34)"><rect x="0.495614" y="0.433918" width="106.669" height="171.66" rx="11.5" transform="matrix(0.991228 -0.132164 0 1 403.562 52.8155)"/>
</clipPath></defs>
</svg>
