<svg width="42" height="42" viewBox="0 0 42 42" fill="none" xmlns="http://www.w3.org/2000/svg">
<path d="M28.0905 31.7651V17.0531C28.0905 13.7103 25.4058 11 22.0935 11H5.23531C5.10533 11 5 11.1057 5 11.2355V31.765C5 31.8948 5.10529 32 5.23531 32H9.73828C9.8683 32 9.97344 31.8942 9.97344 31.7637V15.6505C9.97344 15.5196 10.0787 15.4135 10.2087 15.4135H19.892C21.7104 15.4135 23.185 16.9008 23.185 18.7359V31.7632C23.185 31.8939 23.2902 31.9994 23.4195 31.9994H27.8562C27.9853 31.9994 28.0907 31.894 28.0907 31.7644L28.0905 31.7651ZM18.9972 31.7635C18.9973 31.7946 18.9913 31.8254 18.9795 31.8541C18.9678 31.8828 18.9505 31.9089 18.9287 31.9309C18.9069 31.9529 18.8811 31.9703 18.8526 31.9822C18.8241 31.994 18.7936 32.0001 18.7628 32H14.2609C14.1309 32 14.0256 31.8942 14.0256 31.7635V19.4161C14.0256 19.2854 14.1309 19.1793 14.2609 19.1793H18.7628C18.7937 19.1793 18.8242 19.1854 18.8526 19.1973C18.8811 19.2091 18.907 19.2266 18.9287 19.2486C18.9505 19.2706 18.9678 19.2967 18.9795 19.3255C18.9913 19.3542 18.9973 19.385 18.9972 19.4161V31.7642V31.7635ZM37 31.7635C37 31.8943 36.8946 32 36.7646 32H32.2637C32.1334 32 32.0274 31.8942 32.0274 31.7635V11.2377C32.0274 11.1064 32.1334 11.0004 32.2637 11.0004H36.7646C36.7955 11.0004 36.8261 11.0065 36.8547 11.0184C36.8832 11.0303 36.9092 11.0477 36.9311 11.0698C36.9529 11.0918 36.9703 11.118 36.9821 11.1468C36.9939 11.1756 37 11.2065 37 11.2377V31.7635Z" fill="white"/>
</svg>
