<svg width="42" height="42" viewBox="0 0 42 42" fill="none" xmlns="http://www.w3.org/2000/svg">
<path d="M20.7332 22.1355C19.2547 22.1355 17.7166 21.991 16.7716 21.1506C15.9827 20.5181 15.5514 19.7831 15.0973 18.9458C14.9384 18.6807 12.1176 13.3464 11.9615 13.0602H0C1.47568 15.8614 2.95703 18.7018 4.45541 21.4789C5.75513 23.9307 6.99527 26.2199 9.2627 27.8946C10.3468 28.7319 11.4904 29.2831 12.8299 29.6325C14.1495 29.9578 15.4889 30 16.8511 30H27.493L23.3128 22.1325H20.7304L20.7332 22.1355ZM24.9304 22.1114L29.1077 30H42L37.8 22.1114H24.9304ZM37.1473 20.8464L32.97 13H20.0805L24.2408 20.8464H37.1473Z" fill="white"/>
</svg>
