<svg width="42" height="42" viewBox="0 0 42 42" fill="none" xmlns="http://www.w3.org/2000/svg">
<path d="M32.5132 22.7709C32.3503 22.5921 32.149 22.452 31.9242 22.3611C31.6994 22.2702 31.4569 22.2307 31.2147 22.2456H22.4307C22.2947 22.2424 22.1611 22.2814 22.0483 22.357C21.9356 22.4327 21.8493 22.5413 21.8014 22.6679C21.7616 22.7709 21.7616 22.8712 21.7616 23.011V24.1618C21.7616 24.6871 22.0855 24.9088 22.452 25.0698C22.8768 25.2519 36.1272 31.1194 38.0921 31.8663C39.0268 32.2279 39.6748 31.8056 39.919 31.2012C40.1846 30.5149 39.7358 29.9712 39.4517 29.6703C37.6062 27.7515 33.894 24.1222 32.5132 22.7709ZM38.0921 11.1336C36.1272 11.8991 22.8768 17.7692 22.452 17.9302C22.0855 18.0727 21.7616 18.3129 21.7616 18.8381V19.9889C21.7616 20.1288 21.7616 20.2106 21.8014 20.332C21.8811 20.5326 22.1068 20.7543 22.4307 20.7543H31.2147C31.8042 20.7543 32.1069 20.6118 32.5159 20.2106C33.894 18.8777 37.6062 15.2274 39.4517 13.3323C39.7358 13.0287 40.1846 12.4877 39.919 11.8014C39.6748 11.1943 39.0268 10.772 38.0948 11.1336H38.0921ZM19.5682 17.9513C19.1434 17.7665 5.89302 11.9017 3.92804 11.1548C2.99335 10.7905 2.34544 11.2155 2.10114 11.8199C1.83561 12.5061 2.28436 13.0499 2.56849 13.3508C4.41398 15.2485 8.1262 18.8988 9.50699 20.2291C9.91327 20.6118 10.216 20.7755 10.8055 20.7755H19.5682C19.7048 20.7815 19.8397 20.7437 19.9531 20.6676C20.0664 20.5916 20.1521 20.4813 20.1975 20.3531C20.24 20.2476 20.24 20.1499 20.24 20.01V18.8381C20.2586 18.3129 19.9347 18.0912 19.5709 17.9513H19.5682ZM19.5682 22.2456H10.7842C10.542 22.2307 10.2995 22.2702 10.0748 22.3611C9.84998 22.452 9.64867 22.5921 9.48575 22.7709C8.10496 24.1011 4.39274 27.7515 2.54725 29.6466C2.26312 29.9501 1.81702 30.4938 2.0799 31.1801C2.3242 31.7871 2.97211 32.1883 3.9068 31.8452C5.87444 31.0798 19.1221 25.2097 19.547 25.0487C19.9134 24.9088 20.2374 24.666 20.2374 24.1434V22.9926C20.2374 22.8527 20.2374 22.7709 20.1975 22.6494C20.1476 22.5256 20.0603 22.4203 19.9475 22.348C19.8348 22.2756 19.7023 22.2399 19.5682 22.2456Z" fill="white"/>
</svg>
